<svg width="124" height="28" viewBox="0 0 124 28" fill="none" xmlns="http://www.w3.org/2000/svg">
<path d="M38.932 0L42.0202 5.25H35.8438L38.932 0Z" fill="white"/>
<path d="M49.018 4.10048L47.4195 9.9561L43.0521 5.66949L49.018 4.10048Z" fill="white"/>
<path d="M49.018 23.8995L43.0521 22.3305L47.4195 18.0439L49.018 23.8995Z" fill="white"/>
<path d="M38.932 28L35.8438 22.75H42.0202L38.932 28Z" fill="white"/>
<path d="M28.846 23.8995L30.4446 18.0439L34.8119 22.3305L28.846 23.8995Z" fill="white"/>
<path d="M28.846 4.1005L34.8119 5.66951L30.4446 9.95612L28.846 4.1005Z" fill="white"/>
<path d="M45.5545 14C45.5545 17.5899 42.5895 20.5 38.932 20.5C35.2745 20.5 32.3095 17.5899 32.3095 14C32.3095 10.4101 35.2745 7.5 38.932 7.5C42.5895 7.5 45.5545 10.4101 45.5545 14Z" fill="white"/>
<path d="M2.54303 10.62V20.06H0.521647V21.5H8.34636V20.06H6.39018V10.3C7.07484 9.756 8.02033 9.18 9.03102 9.18C10.9872 9.18 12.0631 10.332 12.0631 12.38V20.06H10.0743V21.5H17.8664V20.06H15.9102V10.3C16.5949 9.756 17.5404 9.18 18.5511 9.18C20.5399 9.18 21.5832 10.332 21.5832 12.38V20.06H19.5944V21.5H27.4517V20.06H25.4303V11.356C25.4303 8.604 24.0284 6.652 21.3875 6.652C19.1379 6.652 17.4426 8.06 16.2363 9.212H15.7472C15.1278 7.772 13.8563 6.652 11.8675 6.652C9.61787 6.652 8.15074 7.964 6.97703 9.116H6.39018V6.332L0 8.668L2.54303 10.62Z" fill="white"/>
<path d="M52.4663 10.62V20.06H50.4449V21.5H58.2696V20.06H56.3135V10.3C56.9981 9.756 57.9436 9.18 58.9543 9.18C60.9105 9.18 61.9864 10.332 61.9864 12.38V20.06H59.9976V21.5H67.7897V20.06H65.8335V10.3C66.5182 9.756 67.4637 9.18 68.4744 9.18C70.4632 9.18 71.5064 10.332 71.5064 12.38V20.06H69.5177V21.5H77.375V20.06H75.3536V11.356C75.3536 8.604 73.9517 6.652 71.3108 6.652C69.0612 6.652 67.3659 8.06 66.1596 9.212H65.6705C65.0511 7.772 63.7795 6.652 61.7908 6.652C59.5412 6.652 58.074 7.964 56.9003 9.116H56.3135V6.332L49.9233 8.668L52.4663 10.62Z" fill="white"/>
<path d="M92.1487 16.54C90.975 18.044 89.3122 18.684 87.4539 18.684C84.4544 18.684 82.0418 16.412 82.0418 13.02V12.796H92.2465C92.2465 9.5 89.9969 6.652 86.2476 6.652C82.2374 6.652 78.9119 10.364 78.9119 14.428C78.9119 18.684 82.0092 21.82 86.0193 21.82C89.0514 21.82 91.6271 19.932 92.1487 16.54ZM85.6607 8.188C87.3887 8.188 88.5298 9.532 88.5298 11.516H82.1722C82.6286 9.372 84.0306 8.188 85.6607 8.188Z" fill="white"/>
<path d="M95.9582 10.62V20.06H93.9368V21.5H101.794V20.06H99.8053V10.3C100.49 9.756 101.435 9.18 102.479 9.18C104.468 9.18 105.543 10.332 105.543 12.38V20.06H103.522V21.5H111.412V20.06H109.391V11.356C109.391 8.604 107.956 6.652 105.25 6.652C103.098 6.652 101.566 7.932 100.392 9.116H99.8053V6.332L93.4151 8.668L95.9582 10.62Z" fill="white"/>
<path d="M112.067 8.252L114.61 9.692L114.447 17.596C114.447 20.348 116.436 21.82 118.784 21.82C121.294 21.82 123.25 20.412 124 17.788C123.055 18.748 122.044 19.164 120.87 19.164C119.436 19.164 118.197 18.332 118.197 16.348V9.148H122.663L123.707 7.42H118.197V3.58L112.067 8.252Z" fill="white"/>
</svg>
