<svg fill="none" height="24" viewBox="0 0 124 24" width="124" xmlns="http://www.w3.org/2000/svg"><g fill="#ededef"><path d="m4.21551 23.5158h-4.21551l4.11269-14.90485c.09139-.27666.14851-.55331.17136-.82997.0457-.27666.02285-.51873-.06854-.72623-.06855-.20749-.23991-.31123-.51409-.31123-.43412 0-.83396.23054-1.19953.69164-.36558.43804-.74257 1.19884-1.13099 2.28242l-.582634 1.62532h-.651176l.89108-2.59362c.31988-.92219.71972-1.63689 1.19954-2.14409.50266-.53026 1.02817-.89914 1.57653-1.10663.5712-.20749 1.13099-.31124 1.67935-.31124.75399 0 1.31377.14985 1.67934.44957.36558.29971.60548.69164.71973 1.17579.11424.48415.12566 1.01441.03427 1.59078-.06855.55331-.17136 1.0951-.30845 1.62534zm8.73949-14.31695c.1371-.41499.2285-.79539.2742-1.14121.0685-.36888.0571-.65706-.0343-.86456-.0914-.23054-.3085-.34582-.6512-.34582-.5484 0-1.1538.34582-1.8164 1.03747-.6398.69164-1.30239 1.65994-1.98783 2.90487-.68545 1.245-1.35948 2.709-2.02208 4.392-.63975 1.6599-1.24523 3.4812-1.81643 5.4639l.51408-3.4236c1.00533-2.951 1.95353-5.3026 2.84461-7.0548.91393-1.77517 1.87355-3.04318 2.87885-3.80399 1.0054-.78386 2.1363-1.17579 3.393-1.17579.7311 0 1.2795.14985 1.6451.44957.3884.29971.6397.70317.754 1.21037.1371.48415.1599 1.03747.0685 1.65994-.0685.62248-.1942 1.25649-.377 1.902l-3.5986 13.1066h-4.28403zm8.9451 0c.2056-.64554.3084-1.19885.3084-1.65995 0-.46109-.1828-.69164-.5483-.69164-.5484 0-1.131.31124-1.7479.93372s-1.2795 1.55619-1.9878 2.80112c-.6855 1.2219-1.3823 2.7205-2.0906 4.4957s-1.4281 3.8271-2.1592 6.1556l.3427-2.732c.8226-2.559 1.6108-4.6916 2.3648-6.3977.754-1.706 1.508-3.06624 2.262-4.08065.754-1.0144 1.5308-1.74063 2.3305-2.17867.8226-.43804 1.6908-.65706 2.6047-.65706.9825 0 1.6794.2536 2.0906.76081.4113.5072.6055 1.15273.5827 1.9366-.0229.78386-.1828 1.62536-.4798 2.52447l-3.3587 10.1672c-.2285.6916-.2856 1.1758-.1714 1.4524.1142.2767.3427.415.6854.415.3428 0 .6969-.196 1.0625-.5879.3884-.3919.7997-1.1873 1.2338-2.3862l.5484-1.5562h.6511l-.8568 2.5245c-.3199.9683-.7311 1.7061-1.2338 2.2133-.4798.5072-1.0053.853-1.5765 1.0375-.5484.2075-1.0853.3112-1.6108.3112-.6626 0-1.1996-.1037-1.6108-.3112-.4113-.1845-.7312-.4611-.9597-.83-.2741-.4611-.3884-1.0375-.3427-1.7291.0686-.6917.2514-1.4986.5484-2.4208z"/><path d="m39.0652 5.87896c-.5941 0-1.1995.31124-1.8164.93372-.6169.59942-1.1996 1.42939-1.7479 2.48991-.5484 1.03751-1.0511 2.20171-1.508 3.49281-.4341 1.2911-.7769 2.6282-1.0282 4.0115-.2513 1.3602-.377 2.6628-.377 3.9078 0 .9222.1143 1.5908.3427 2.0058.2514.3919.6169.5879 1.0968.5879.5712 0 1.1652-.2998 1.7821-.8992s1.1996-1.4063 1.7479-2.4207c.5712-1.0375 1.0739-2.1902 1.508-3.4582.4341-1.2911.7768-2.6283 1.0282-4.0116.2513-1.3833.377-2.73196.377-4.04608 0-.9683-.1257-1.63689-.377-2.00576-.2285-.39193-.5712-.5879-1.0282-.5879zm-10.5216 12.51874c0-1.0375.1371-2.1556.4112-3.3545.2971-1.1988.7312-2.3746 1.3024-3.5273.5712-1.1758 1.2795-2.23636 2.1249-3.18161.8682-.9683 1.8735-1.7291 3.0159-2.28242 1.1425-.57637 2.4334-.86455 3.8728-.86455 1.6451 0 2.9246.47262 3.8385 1.41787.9368.92219 1.4052 2.317 1.4052 4.18441 0 1.0375-.1485 2.1556-.4455 3.3545-.2742 1.1988-.6969 2.3862-1.2681 3.562-.5712 1.1527-1.2909 2.2132-2.1592 3.1815-.8454.9453-1.8393 1.7061-2.9817 2.2824-1.1424.5533-2.4333.83-3.8728.83-1.645 0-2.936-.4726-3.8727-1.4179-.914-.9452-1.3709-2.34-1.3709-4.1844z"/><path d="m50.6707 23.5158h-4.2155l4.1127-14.90485c.0914-.27666.1485-.55331.1713-.82997.0457-.27666.0229-.51873-.0685-.72623-.0686-.20749-.2399-.31123-.5141-.31123-.4341 0-.834.23054-1.1995.69164-.3656.43804-.7426 1.19884-1.131 2.28242l-.5826 1.62532h-.6512l.8911-2.59362c.3198-.92219.7197-1.63689 1.1995-2.14409.5027-.53026 1.0282-.89914 1.5765-1.10663.5712-.20749 1.131-.31124 1.6794-.31124.754 0 1.3137.14985 1.6793.44957.3656.29971.6055.69164.7197 1.17579.1143.48415.1257 1.01441.0343 1.59078-.0685.55331-.1713 1.0951-.3084 1.62534zm8.7395-14.31695c.137-.41499.2284-.79539.2741-1.14121.0686-.36888.0572-.65706-.0342-.86456-.0914-.23054-.3085-.34582-.6512-.34582-.5484 0-1.1538.34582-1.8164 1.03747-.6398.69164-1.3024 1.65994-1.9879 2.90487-.6854 1.245-1.3594 2.709-2.022 4.392-.6398 1.6599-1.2453 3.4812-1.8165 5.4639l.5141-3.4236c1.0054-2.951 1.9536-5.3026 2.8446-7.0548.914-1.77517 1.8736-3.04318 2.8789-3.80399 1.0053-.78386 2.1363-1.17579 3.393-1.17579.7311 0 1.2795.14985 1.6451.44957.3884.29971.6397.70317.754 1.21037.137.48415.1599 1.03747.0685 1.65994-.0685.62248-.1942 1.25649-.377 1.902l-3.5986 13.1066h-4.2841zm8.9451 0c.2056-.64554.3084-1.19885.3084-1.65995 0-.46109-.1828-.69164-.5484-.69164-.5483 0-1.1309.31124-1.7478.93372s-1.2795 1.55619-1.9878 2.80112c-.6855 1.2219-1.3824 2.7205-2.0907 4.4957s-1.428 3.8271-2.1591 6.1556l.3427-2.732c.8225-2.559 1.6108-4.6916 2.3648-6.3977.754-1.706 1.508-3.06624 2.262-4.08065.754-1.0144 1.5308-1.74063 2.3305-2.17867.8225-.43804 1.6908-.65706 2.6047-.65706.9825 0 1.6794.2536 2.0906.76081.4113.5072.6055 1.15273.5827 1.9366-.0229.78386-.1828 1.62536-.4799 2.52447l-3.3587 10.1672c-.2284.6916-.2856 1.1758-.1713 1.4524.1142.2767.3427.415.6854.415.3428 0 .6969-.196 1.0625-.5879.3884-.3919.7997-1.1873 1.2338-2.3862l.5483-1.5562h.6512l-.8568 2.5245c-.3199.9683-.7311 1.7061-1.2338 2.2133-.4798.5072-1.0053.853-1.5765 1.0375-.5484.2075-1.0853.3112-1.6108.3112-.6626 0-1.1996-.1037-1.6108-.3112-.4113-.1845-.7312-.4611-.9597-.83-.2741-.4611-.3884-1.0375-.3427-1.7291.0686-.6917.2513-1.4986.5484-2.4208z"/><path d="m78.426 15.9078c1.0739-.415 2.0563-.8415 2.9474-1.2796.914-.4611 1.6794-.9452 2.2963-1.4524.8454-.7608 1.5308-1.6484 2.0563-2.6628.5255-1.0375.7883-2.16718.7883-3.38908 0-.53026-.0457-.87608-.1371-1.03747-.0914-.16138-.2285-.24207-.4113-.24207-.5255 0-1.0967.2536-1.7136.76081-.6169.5072-1.2224 1.21037-1.8164 2.10951-.5941.87608-1.1425 1.8674-1.6451 2.9741-.4798 1.1066-.8682 2.2709-1.1653 3.4928-.297 1.2219-.4455 2.4322-.4455 3.6311 0 1.2219.2285 2.0864.6854 2.5936.4799.4842 1.1082.7263 1.885.7263.6626 0 1.4509-.2191 2.3648-.6571s1.8164-1.2334 2.7075-2.3862l.5484.2767c-.457.7608-1.0625 1.4986-1.8164 2.2133-.754.7146-1.6223 1.3025-2.6047 1.7636-.9597.4381-2.0221.6571-3.1874.6571-.9596 0-1.8278-.1844-2.6047-.5533-.7768-.3689-1.3823-.9107-1.8164-1.6254-.4341-.7377-.6512-1.6369-.6512-2.6974 0-1.1297.1942-2.3285.5826-3.5965.3884-1.2911.9368-2.5476 1.6451-3.7695.7311-1.2219 1.588-2.32851 2.5704-3.31986 1.0054-.99135 2.1135-1.77522 3.3245-2.35159 1.2109-.59942 2.5133-.89913 3.907-.89913.914 0 1.6794.21902 2.2963.65706.6169.41499.9253 1.06052.9253 1.9366 0 .89913-.2513 1.74063-.754 2.52452-.5026.7838-1.1881 1.4985-2.0563 2.1441-.8454.6455-1.7822 1.2219-2.8104 1.7291-1.0053.5072-2.022.9452-3.0502 1.3141s-1.9878.6686-2.8789.8991z"/><path d="m95.0843 23.5158h-4.2155l4.1469-14.90485c.0914-.32277.16-.62248.2056-.89914.0457-.27665.0229-.5072-.0685-.69164-.0685-.18444-.2627-.27665-.5826-.27665-.4341 0-.834.21902-1.1996.65706-.3427.41498-.7197 1.18732-1.131 2.317l-.5826 1.62532h-.6512l.8911-2.59362c.4798-1.36023 1.0967-2.29395 1.8507-2.80115.754-.50721 1.588-.76081 2.5019-.76081.754 0 1.3252.14985 1.7137.44957.4112.29971.674.69164.7882 1.17579.1142.46109.1371.97983.0686 1.5562-.0686.55331-.1714 1.10662-.3085 1.65992zm1.268-6.2939c.8454-2.3746 1.6565-4.3343 2.4334-5.879.7768-1.54463 1.5313-2.76653 2.2623-3.66567.731-.92219 1.485-1.56772 2.262-1.9366.776-.36887 1.588-.55331 2.433-.55331 1.12 0 1.896.2536 2.331.76081.456.48415.674 1.12968.651 1.9366 0 .78386-.149 1.62536-.446 2.52447l-3.359 10.1672c-.205.6224-.262 1.0951-.171 1.4178.091.2997.32.4496.686.4496.342 0 .696-.196 1.062-.5879.388-.3919.8-1.1873 1.234-2.3862l.548-1.5562h.651l-.856 2.5245c-.32.9683-.732 1.7061-1.234 2.2133-.48.5072-1.006.853-1.577 1.0375-.548.2075-1.097.3112-1.645.3112-.594 0-1.108-.1037-1.542-.3112-.411-.1845-.731-.4496-.96-.7954-.297-.4381-.422-1.0029-.377-1.6946.046-.6916.229-1.5216.549-2.4899l3.118-9.51005c.115-.36888.206-.73776.275-1.10663.068-.39193.057-.7147-.035-.9683-.091-.27666-.331-.41499-.719-.41499-.48 0-1.006.27666-1.577.82997-.571.53026-1.165 1.27954-1.782 2.24784-.6171.96826-1.234 2.09796-1.8509 3.38906s-1.2109 2.6974-1.7821 4.219c-.5484 1.4986-1.0396 3.0548-1.4737 4.6686z"/><path d="m124 5.67147-.103.69164h-11.481l.171-.69164zm-8.328 14.90493c-.183.6455-.16 1.1181.068 1.4178.252.2997.583.4496.994.4496.48 0 .96-.2305 1.44-.6916.502-.4611.959-1.2681 1.371-2.4208l.514-1.4179h.651l-.686 2.075c-.479 1.4294-1.142 2.4553-1.987 3.0778-.846.6225-1.851.9337-3.016.9337-1.029 0-1.817-.2305-2.365-.6916-.526-.4611-.846-1.0836-.96-1.8675-.091-.8069.012-1.7176.309-2.732l5.175-18.22475c.822-.023056 1.588-.069166 2.296-.138329.731-.069165 1.417-.184438 2.056-.345821z"/></g></svg>