<svg viewBox="0 0 136 27" fill="none" xmlns="http://www.w3.org/2000/svg">
<path
    d="M4.62346 25.5606H0L4.51069 9.35968C4.61093 9.05897 4.67358 8.75826 4.69864 8.45755C4.74876 8.15683 4.7237 7.89371 4.62346 7.66818C4.54828 7.44264 4.36034 7.32987 4.05962 7.32987C3.58349 7.32987 3.14495 7.58047 2.744 8.08166C2.34305 8.55778 1.92957 9.38474 1.50356 10.5625L0.864549 12.3292H0.150356L1.12767 9.51004C1.4785 8.50767 1.91704 7.73082 2.44329 7.17952C2.9946 6.60315 3.57096 6.2022 4.17239 5.97667C4.79887 5.75113 5.41283 5.63836 6.01426 5.63836C6.84122 5.63836 7.45517 5.80125 7.85612 6.12702C8.25707 6.4528 8.5202 6.8788 8.64549 7.40505C8.77079 7.9313 8.78332 8.50767 8.68308 9.13415C8.6079 9.73558 8.49514 10.3245 8.34478 10.9008L4.62346 25.5606ZM14.2087 9.9987C14.359 9.54763 14.4593 9.13415 14.5094 8.75826C14.5846 8.35731 14.572 8.04407 14.4718 7.81853C14.3716 7.56794 14.1335 7.44264 13.7576 7.44264C13.1562 7.44264 12.4921 7.81853 11.7654 8.57031C11.0637 9.3221 10.337 10.3746 9.58522 11.7278C8.83344 13.081 8.09419 14.6723 7.36746 16.5016C6.6658 18.3059 6.00173 20.2856 5.37524 22.4407L5.93908 18.7194C7.04169 15.5118 8.08166 12.9557 9.05897 11.0512C10.0613 9.12162 11.1138 7.74335 12.2165 6.91639C13.3191 6.06437 14.5595 5.63836 15.9378 5.63836C16.7397 5.63836 17.3411 5.80125 17.7421 6.12702C18.1681 6.4528 18.4437 6.89134 18.569 7.44264C18.7194 7.96889 18.7444 8.57031 18.6442 9.24692C18.569 9.92352 18.4312 10.6127 18.2307 11.3143L14.2839 25.5606H9.58522L14.2087 9.9987ZM24.0194 9.9987C24.245 9.29704 24.3577 8.69561 24.3577 8.19442C24.3577 7.69323 24.1573 7.44264 23.7563 7.44264C23.1549 7.44264 22.5159 7.78094 21.8393 8.45755C21.1627 9.13415 20.4359 10.1491 19.6591 11.5023C18.9073 12.8304 18.143 14.4593 17.3662 16.3888C16.5893 18.3184 15.8 20.5487 14.9981 23.0797L15.3739 20.1102C16.2761 17.3286 17.1406 15.0106 17.9676 13.1562C18.7945 11.3018 19.6215 9.82328 20.4485 8.72067C21.2754 7.61806 22.1274 6.82869 23.0045 6.35256C23.9067 5.87643 24.8589 5.63836 25.8613 5.63836C26.9389 5.63836 27.7032 5.91402 28.1542 6.46532C28.6053 7.01663 28.8183 7.71829 28.7933 8.57031C28.7682 9.42233 28.5928 10.337 28.267 11.3143L24.5833 22.3655C24.3327 23.1173 24.27 23.6435 24.3953 23.9443C24.5206 24.245 24.7712 24.3953 25.1471 24.3953C25.523 24.3953 25.9114 24.1823 26.3124 23.7563C26.7384 23.3303 27.1894 22.4658 27.6656 21.1627L28.267 19.4712H28.9812L28.0415 22.2152C27.6906 23.2677 27.2396 24.0696 26.6883 24.6209C26.162 25.1722 25.5856 25.5481 24.9592 25.7485C24.3577 25.9741 23.7688 26.0868 23.1925 26.0868C22.4658 26.0868 21.8769 25.9741 21.4258 25.7485C20.9747 25.5481 20.6239 25.2473 20.3733 24.8464C20.0726 24.3452 19.9473 23.7187 19.9974 22.9669C20.0726 22.2152 20.2731 21.3381 20.5988 20.3357L24.0194 9.9987Z"
    fill="white"
  />
<path
    d="M42.8457 6.39014C42.1942 6.39014 41.5301 6.72845 40.8535 7.40505C40.1769 8.0566 39.5379 8.95873 38.9364 10.1115C38.335 11.2391 37.7837 12.5046 37.2825 13.908C36.8064 15.3113 36.4305 16.7647 36.1548 18.2683C35.8792 19.7468 35.7414 21.1627 35.7414 22.5159C35.7414 23.5182 35.8667 24.245 36.1172 24.696C36.3929 25.122 36.7939 25.3351 37.3201 25.3351C37.9466 25.3351 38.5981 25.0093 39.2747 24.3577C39.9513 23.7062 40.5904 22.8291 41.1918 21.7265C41.8183 20.5988 42.3696 19.3459 42.8457 17.9676C43.3218 16.5643 43.6977 15.1108 43.9734 13.6073C44.249 12.1037 44.3869 10.6377 44.3869 9.20933C44.3869 8.15683 44.249 7.43011 43.9734 7.02916C43.7228 6.60315 43.3469 6.39014 42.8457 6.39014ZM31.3058 19.9974C31.3058 18.8697 31.4562 17.6543 31.7569 16.3513C32.0827 15.0482 32.5588 13.7701 33.1853 12.5172C33.8118 11.2391 34.5886 10.0864 35.5158 9.05897C36.4681 8.00648 37.5707 7.17952 38.8237 6.57809C40.0766 5.95161 41.4925 5.63836 43.0712 5.63836C44.8755 5.63836 46.2788 6.15208 47.2812 7.17952C48.3087 8.18189 48.8224 9.69799 48.8224 11.7278C48.8224 12.8555 48.6595 14.0709 48.3337 15.3739C48.033 16.677 47.5694 17.9676 46.9429 19.2456C46.3164 20.4986 45.5271 21.6513 44.5748 22.7038C43.6476 23.7313 42.5575 24.5582 41.3045 25.1847C40.0516 25.7861 38.6357 26.0868 37.057 26.0868C35.2527 26.0868 33.8368 25.5731 32.8094 24.5457C31.807 23.5182 31.3058 22.0022 31.3058 19.9974Z"
    fill="white"
  />
<path
    d="M55.5743 25.5606H50.9508L55.4615 9.35968C55.5618 9.05897 55.6244 8.75826 55.6495 8.45755C55.6996 8.15683 55.6745 7.89371 55.5743 7.66818C55.4991 7.44264 55.3112 7.32987 55.0105 7.32987C54.5343 7.32987 54.0958 7.58047 53.6949 8.08166C53.2939 8.55778 52.8804 9.38474 52.4544 10.5625L51.8154 12.3292H51.1012L52.0785 9.51004C52.4294 8.50767 52.8679 7.73082 53.3941 7.17952C53.9454 6.60315 54.5218 6.2022 55.1232 5.97667C55.7497 5.75113 56.3637 5.63836 56.9651 5.63836C57.7921 5.63836 58.406 5.80125 58.807 6.12702C59.2079 6.4528 59.471 6.8788 59.5963 7.40505C59.7216 7.9313 59.7342 8.50767 59.6339 9.13415C59.5588 9.73558 59.446 10.3245 59.2956 10.9008L55.5743 25.5606ZM65.1595 9.9987C65.3099 9.54763 65.4101 9.13415 65.4602 8.75826C65.5354 8.35731 65.5229 8.04407 65.4227 7.81853C65.3224 7.56794 65.0844 7.44264 64.7085 7.44264C64.107 7.44264 63.443 7.81853 62.7162 8.57031C62.0146 9.3221 61.2878 10.3746 60.5361 11.7278C59.7843 13.081 59.045 14.6723 58.3183 16.5016C57.6166 18.3059 56.9526 20.2856 56.3261 22.4407L56.8899 18.7194C57.9925 15.5118 59.0325 12.9557 60.0098 11.0512C61.0122 9.12162 62.0647 7.74335 63.1673 6.91639C64.2699 6.06437 65.5104 5.63836 66.8886 5.63836C67.6905 5.63836 68.2919 5.80125 68.6929 6.12702C69.1189 6.4528 69.3946 6.89134 69.5199 7.44264C69.6702 7.96889 69.6953 8.57031 69.595 9.24692C69.5199 9.92352 69.382 10.6127 69.1816 11.3143L65.2347 25.5606H60.5361L65.1595 9.9987ZM74.9703 9.9987C75.1958 9.29704 75.3086 8.69561 75.3086 8.19442C75.3086 7.69323 75.1081 7.44264 74.7072 7.44264C74.1057 7.44264 73.4667 7.78094 72.7901 8.45755C72.1135 9.13415 71.3868 10.1491 70.6099 11.5023C69.8582 12.8304 69.0939 14.4593 68.317 16.3888C67.5402 18.3184 66.7508 20.5487 65.9489 23.0797L66.3248 20.1102C67.2269 17.3286 68.0915 15.0106 68.9184 13.1562C69.7454 11.3018 70.5724 9.82328 71.3993 8.72067C72.2263 7.61806 73.0783 6.82869 73.9554 6.35256C74.8575 5.87643 75.8098 5.63836 76.8121 5.63836C77.8897 5.63836 78.654 5.91402 79.1051 6.46532C79.5562 7.01663 79.7692 7.71829 79.7441 8.57031C79.719 9.42233 79.5436 10.337 79.2178 11.3143L75.5341 22.3655C75.2835 23.1173 75.2209 23.6435 75.3462 23.9443C75.4715 24.245 75.7221 24.3953 76.098 24.3953C76.4738 24.3953 76.8623 24.1823 77.2632 23.7563C77.6892 23.3303 78.1403 22.4658 78.6164 21.1627L79.2178 19.4712H79.932L78.9923 22.2152C78.6415 23.2677 78.1904 24.0696 77.6391 24.6209C77.1129 25.1722 76.5365 25.5481 75.91 25.7485C75.3086 25.9741 74.7197 26.0868 74.1433 26.0868C73.4166 26.0868 72.8277 25.9741 72.3766 25.7485C71.9256 25.5481 71.5747 25.2473 71.3241 24.8464C71.0234 24.3452 70.8981 23.7187 70.9482 22.9669C71.0234 22.2152 71.2239 21.3381 71.5497 20.3357L74.9703 9.9987Z"
    fill="white"
  />
<path
    d="M86.0156 17.291C87.1934 16.8399 88.271 16.3763 89.2483 15.9002C90.2506 15.399 91.0901 14.8728 91.7667 14.3214C92.6939 13.4945 93.4457 12.5297 94.0221 11.4271C94.5984 10.2994 94.8866 9.0715 94.8866 7.74335C94.8866 7.16699 94.8365 6.7911 94.7363 6.61568C94.636 6.44026 94.4857 6.35256 94.2852 6.35256C93.7088 6.35256 93.0824 6.62821 92.4057 7.17952C91.7291 7.73082 91.0651 8.49514 90.4135 9.47245C89.762 10.4247 89.1606 11.5023 88.6093 12.7051C88.083 13.908 87.657 15.1735 87.3312 16.5016C87.0054 17.8298 86.8426 19.1454 86.8426 20.4485C86.8426 21.7766 87.0932 22.7163 87.5943 23.2677C88.1206 23.7939 88.8097 24.057 89.6618 24.057C90.3885 24.057 91.253 23.819 92.2554 23.3428C93.2578 22.8667 94.2476 22.0022 95.2249 20.7492L95.8264 21.0499C95.3252 21.8769 94.6611 22.6788 93.8341 23.4556C93.0072 24.2324 92.0549 24.8715 90.9774 25.3726C89.9249 25.8488 88.7596 26.0868 87.4816 26.0868C86.4291 26.0868 85.4768 25.8864 84.6248 25.4854C83.7728 25.0845 83.1087 24.4956 82.6326 23.7187C82.1565 22.9168 81.9184 21.9395 81.9184 20.7868C81.9184 19.5589 82.1314 18.2558 82.5574 16.8775C82.9834 15.4742 83.5848 14.1084 84.3617 12.7803C85.1636 11.4521 86.1033 10.2493 87.1809 9.17174C88.2835 8.09419 89.4989 7.24217 90.827 6.61568C92.1552 5.96414 93.5835 5.63836 95.1122 5.63836C96.1145 5.63836 96.954 5.87643 97.6306 6.35256C98.3072 6.80363 98.6455 7.50529 98.6455 8.45755C98.6455 9.43486 98.3699 10.3495 97.8186 11.2016C97.2673 12.0536 96.5155 12.8304 95.5632 13.5321C94.636 14.2337 93.6086 14.8602 92.4809 15.4115C91.3783 15.9628 90.2632 16.439 89.1355 16.8399C88.0078 17.2409 86.9553 17.5666 85.978 17.8172L86.0156 17.291Z"
    fill="white"
  />
<path
    d="M104.286 25.5606H99.6625L104.211 9.35968C104.311 9.00885 104.386 8.68308 104.436 8.38237C104.486 8.08166 104.461 7.83106 104.361 7.63059C104.286 7.43011 104.073 7.32987 103.722 7.32987C103.246 7.32987 102.807 7.56794 102.407 8.04407C102.031 8.49514 101.617 9.33463 101.166 10.5625L100.527 12.3292H99.8129L100.79 9.51004C101.316 8.03154 101.993 7.01663 102.82 6.46532C103.647 5.91402 104.562 5.63836 105.564 5.63836C106.391 5.63836 107.017 5.80125 107.443 6.12702C107.895 6.4528 108.183 6.8788 108.308 7.40505C108.433 7.90624 108.458 8.47008 108.383 9.09656C108.308 9.69799 108.195 10.2994 108.045 10.9008L104.286 25.5606ZM105.677 18.7194C106.604 16.1383 107.494 14.0082 108.346 12.3292C109.198 10.6502 110.025 9.32209 110.826 8.34478C111.628 7.3424 112.455 6.64074 113.307 6.23979C114.159 5.83884 115.049 5.63836 115.976 5.63836C117.204 5.63836 118.056 5.91402 118.532 6.46532C119.033 6.99157 119.271 7.69323 119.246 8.57031C119.246 9.42233 119.084 10.337 118.758 11.3143L115.074 22.3655C114.849 23.0421 114.786 23.5558 114.886 23.9067C114.986 24.2324 115.237 24.3953 115.638 24.3953C116.014 24.3953 116.402 24.1823 116.803 23.7563C117.229 23.3303 117.68 22.4658 118.156 21.1627L118.758 19.4712H119.472L118.532 22.2152C118.181 23.2677 117.73 24.0696 117.179 24.6209C116.653 25.1722 116.076 25.5481 115.45 25.7485C114.848 25.9741 114.247 26.0868 113.646 26.0868C112.994 26.0868 112.43 25.9741 111.954 25.7485C111.503 25.5481 111.152 25.2599 110.902 24.884C110.576 24.4079 110.438 23.7939 110.488 23.0421C110.538 22.2903 110.739 21.3882 111.09 20.3357L114.51 9.9987C114.635 9.59775 114.736 9.1968 114.811 8.79585C114.886 8.36984 114.874 8.01901 114.773 7.74335C114.673 7.44264 114.41 7.29228 113.984 7.29228C113.458 7.29228 112.881 7.593 112.255 8.19442C111.628 8.77079 110.977 9.58522 110.3 10.6377C109.624 11.6902 108.947 12.9181 108.27 14.3214C107.594 15.7248 106.942 17.2534 106.316 18.9073C105.714 20.5362 105.176 22.2277 104.699 23.9818L105.677 18.7194Z"
    fill="white"
  />
<path
    d="M136 6.16461L135.887 6.91639H123.295L123.483 6.16461H136ZM126.866 22.3655C126.665 23.0672 126.69 23.5809 126.941 23.9067C127.217 24.2324 127.58 24.3953 128.031 24.3953C128.557 24.3953 129.084 24.1447 129.61 23.6435C130.161 23.1424 130.662 22.2653 131.113 21.0123L131.677 19.4712H132.391L131.64 21.7265C131.113 23.2802 130.387 24.3953 129.459 25.0719C128.532 25.7485 127.43 26.0868 126.152 26.0868C125.024 26.0868 124.159 25.8362 123.558 25.3351C122.982 24.8339 122.631 24.1573 122.506 23.3052C122.405 22.4282 122.518 21.4383 122.844 20.3357L128.52 0.526247C129.422 0.501187 130.261 0.451068 131.038 0.375891C131.84 0.300712 132.592 0.175415 133.294 0L126.866 22.3655Z"
    fill="white"
  />
</svg>
