<svg width="43" height="43" viewBox="0 0 43 43" fill="none" xmlns="http://www.w3.org/2000/svg">
<path d="M21.5 0L26.1549 8.0625H16.8451L21.5 0Z" fill="white" fill-opacity="0.8"/>
<path d="M36.7027 6.29717L34.2932 15.2897L27.7102 8.70672L36.7027 6.29717Z" fill="white" fill-opacity="0.8"/>
<path d="M43 21.5L34.9375 26.1549V16.8451L43 21.5Z" fill="white" fill-opacity="0.8"/>
<path d="M36.7028 36.7028L27.7103 34.2932L34.2933 27.7102L36.7028 36.7028Z" fill="white" fill-opacity="0.8"/>
<path d="M21.5 43L16.8451 34.9375H26.1549L21.5 43Z" fill="white" fill-opacity="0.8"/>
<path d="M6.2973 36.7028L8.70684 27.7103L15.2898 34.2933L6.2973 36.7028Z" fill="white" fill-opacity="0.8"/>
<path d="M0 21.5L8.0625 16.8451V26.1549L0 21.5Z" fill="white" fill-opacity="0.8"/>
<path d="M6.29717 6.2972L15.2897 8.70675L8.70672 15.2898L6.29717 6.2972Z" fill="white" fill-opacity="0.8"/>
<path d="M31.4821 21.5C31.4821 27.013 27.013 31.4821 21.5 31.4821C15.987 31.4821 11.5179 27.013 11.5179 21.5C11.5179 15.987 15.987 11.5179 21.5 11.5179C27.013 11.5179 31.4821 15.987 31.4821 21.5Z" fill="white" fill-opacity="0.8"/>
</svg>
