<svg width="624" height="387" viewBox="0 0 624 387" fill="none" xmlns="http://www.w3.org/2000/svg">
<path d="M238.415 229.631C238.609 229.746 238.834 229.811 239.076 229.81C248.205 229.752 254.678 218.646 256.356 207.705C256.464 207.001 255.979 206.348 255.277 206.238C254.575 206.132 253.917 206.615 253.809 207.319C252.335 216.938 246.667 227.185 239.063 227.232C238.351 227.238 237.778 227.819 237.782 228.53C237.785 228.999 238.037 229.408 238.415 229.631Z" fill="#6F3E7A"/>
<path d="M271.614 235.466C272.036 235.715 272.579 235.712 273.008 235.415C273.591 235.009 273.737 234.206 273.33 233.62C266.063 223.152 263.084 210.714 262.562 208.327C262.409 207.634 261.72 207.193 261.027 207.347C260.332 207.5 259.892 208.189 260.045 208.884C260.586 211.353 263.669 224.226 271.213 235.094C271.324 235.249 271.461 235.375 271.614 235.466Z" fill="#6F3E7A"/>
<path d="M478.932 147.667C479.131 147.755 479.352 147.795 479.585 147.771C487.545 146.915 508.719 139.039 513.914 135.001C514.471 134.567 514.572 133.764 514.14 133.208C513.708 132.649 512.906 132.551 512.349 132.983C507.878 136.459 487.38 144.363 479.314 145.229C478.613 145.305 478.104 145.934 478.179 146.637C478.232 147.106 478.53 147.488 478.932 147.667Z" fill="#6F3E7A"/>
<g clip-path="url(#clip0_2908_7943)">
<path d="M533.377 143.741C533.092 142.866 532.523 142.574 531.67 142.282L503.794 136.446C502.94 136.154 502.087 136.446 501.518 137.321C500.949 137.905 500.949 138.78 501.234 139.656L512.612 167.377C512.896 168.253 513.465 168.545 514.318 168.836H514.603C515.172 168.836 516.025 168.545 516.31 167.961L532.808 146.075C533.661 145.2 533.661 144.325 533.377 143.741Z" fill="#D65DF4"/>
</g>
<g clip-path="url(#clip1_2908_7943)">
<path d="M23.7507 91.8189C23.5425 91.1783 23.1263 90.9648 22.5019 90.7513L2.10465 86.4809C1.48025 86.2674 0.855845 86.4809 0.439575 87.1215C0.023306 87.5485 0.023306 88.1891 0.231441 88.8296L8.55683 109.114C8.76496 109.754 9.18123 109.968 9.80564 110.181H10.0138C10.43 110.181 11.0544 109.968 11.2626 109.541L23.3344 93.527C23.9588 92.8865 23.9588 92.2459 23.7507 91.8189Z" fill="#D65DF4"/>
</g>
<g clip-path="url(#clip2_2908_7943)">
<path d="M180.592 127.154C180.333 126.874 180.091 126.319 180.25 125.905C180.28 125.351 180.712 124.939 181.274 124.666L203.698 114.321C204.259 114.049 204.805 114.053 205.192 114.471C205.723 114.753 205.837 115.169 205.807 115.723L205.261 143.284C205.231 143.838 204.927 144.389 204.365 144.662C203.803 144.936 203.258 144.93 202.597 144.509L180.592 127.154ZM202.395 118.189L184.735 126.356L202.022 140.07L202.395 118.189Z" fill="#D65DF4"/>
</g>
<path d="M490.857 48.2633C490.682 48.1894 490.506 48.1174 490.407 47.8754C489.957 47.4876 489.833 46.8319 490.06 46.3222L506.257 0.997898C506.559 0.318219 507.134 -0.043784 507.735 0.00423677C508.335 0.0522576 508.961 0.515843 509.161 1.00159L519.988 36.8879C520.287 37.6156 519.735 38.3913 518.984 38.6813L491.959 48.1192C491.633 48.3852 491.208 48.4092 490.857 48.2633ZM507.523 6.55354L493.968 44.5343L516.559 36.6644L507.523 6.55354Z" fill="#D65DF4"/>
<g clip-path="url(#clip3_2908_7943)">
<path d="M607.913 57.8647L602.505 83.0341L623.906 84.0221L607.913 57.8647Z" fill="#6F3E7A"/>
</g>
<g clip-path="url(#clip4_2908_7943)">
<path d="M300.373 32.7321L289.066 8.73047L270.822 21.4108L300.373 32.7321Z" fill="#6F3E7A"/>
</g>
<path d="M312 55L326.073 79.375H297.927L312 55Z" fill="white"/>
<path d="M357.962 74.0374L350.677 101.224L330.775 81.322L357.962 74.0374Z" fill="white"/>
<path d="M377 120L352.625 134.073V105.927L377 120Z" fill="white"/>
<path d="M357.962 165.963L330.775 158.678L350.677 138.776L357.962 165.963Z" fill="white"/>
<path d="M312 185L297.927 160.625H326.073L312 185Z" fill="white"/>
<path d="M266.038 165.963L273.323 138.776L293.225 158.678L266.038 165.963Z" fill="white"/>
<path d="M247 120L271.375 105.927V134.073L247 120Z" fill="white"/>
<path d="M266.038 74.0369L293.225 81.3215L273.323 101.224L266.038 74.0369Z" fill="white"/>
<circle cx="312" cy="119.999" r="30.1786" fill="white"/>
<path d="M336.332 253.224C336.332 252.94 336.617 252.371 336.332 252.229C336.332 252.371 336.047 252.229 336.047 252.371C336.047 252.655 336.189 252.94 336.332 253.224Z" fill="#D65DF4"/>
<path d="M338.468 251.802C338.183 251.517 338.041 251.944 337.898 252.229C338.183 252.371 337.898 252.798 338.183 252.94C338.326 252.513 338.183 252.229 338.468 251.802Z" fill="#D65DF4"/>
<path d="M337.044 250.948C337.186 250.806 337.044 250.663 336.901 250.521C336.759 250.521 336.759 250.663 336.759 250.806C336.901 250.948 336.901 250.948 337.044 250.948Z" fill="#D65DF4"/>
<path d="M334.908 249.668C334.765 250.095 334.338 249.953 334.195 250.237C334.48 250.522 334.908 250.379 335.335 250.664C335.62 250.522 335.905 250.664 335.905 250.237C335.478 250.379 335.05 250.095 334.908 249.668Z" fill="#D65DF4"/>
<path d="M340.036 255.359C340.178 255.216 340.463 255.074 340.606 254.79C340.606 254.647 340.606 254.505 340.463 254.363C340.321 254.505 339.751 254.078 339.751 254.505C340.036 254.647 340.036 254.932 340.036 255.359Z" fill="#D65DF4"/>
<path d="M333.055 278.833C333.197 278.975 333.482 278.975 333.482 278.69C333.34 278.69 333.197 278.69 333.055 278.833Z" fill="#D65DF4"/>
<path d="M336.76 257.777C336.617 258.062 336.475 258.204 336.475 258.489C336.617 258.489 336.76 258.631 336.902 258.631C337.044 258.204 337.187 257.92 336.76 257.777Z" fill="#D65DF4"/>
<path d="M336.901 260.053C337.186 260.196 337.329 260.053 337.614 260.196C337.614 260.053 337.614 260.053 337.756 259.911C337.471 259.627 337.044 259.627 336.901 259.911V260.053Z" fill="#D65DF4"/>
<path d="M335.62 264.464C335.335 264.748 335.05 264.606 334.622 264.464C334.48 264.464 334.622 264.179 334.48 264.037C334.195 264.037 334.053 264.322 333.91 264.464C334.48 264.606 334.765 265.033 335.335 265.033C335.477 264.891 335.762 264.606 335.62 264.464Z" fill="#D65DF4"/>
<path d="M336.332 261.476C336.189 261.476 336.332 261.192 336.047 261.192C335.904 261.476 336.189 261.619 336.332 261.476Z" fill="#D65DF4"/>
<path d="M332.77 264.748C332.77 264.606 332.628 264.464 332.485 264.321C332.343 264.464 332.343 264.464 332.2 264.606C332.343 264.89 332.628 264.89 332.77 264.748Z" fill="#D65DF4"/>
<path d="M338.469 263.183C339.038 263.325 339.608 262.472 339.038 262.045C338.753 262.187 339.038 262.329 338.896 262.614C338.753 262.614 338.469 262.756 338.184 262.614C338.184 262.899 338.469 262.899 338.469 263.183Z" fill="#D65DF4"/>
<path d="M336.332 264.179C336.617 264.322 336.759 264.037 336.759 263.753C336.474 263.61 336.189 263.895 336.332 264.179Z" fill="#D65DF4"/>
<path d="M337.472 260.907C337.614 261.049 337.472 261.476 337.329 261.761C337.899 261.903 338.041 260.623 337.472 260.907Z" fill="#D65DF4"/>
<path d="M337.757 254.221C337.472 254.078 337.044 254.505 337.329 254.79C337.472 254.79 337.757 254.647 337.757 254.221Z" fill="#D65DF4"/>
<path d="M338.184 255.074C338.042 255.074 338.042 254.932 337.899 254.932C337.899 255.074 337.899 255.074 337.757 255.217C338.042 255.217 338.042 255.217 338.184 255.074Z" fill="#D65DF4"/>
<path d="M334.907 258.489C335.192 258.346 335.049 257.92 334.907 257.777C334.764 258.204 334.764 258.346 334.907 258.489Z" fill="#D65DF4"/>
<path d="M335.905 254.363C336.19 254.363 336.475 254.078 336.332 253.794C335.905 253.651 335.335 254.22 335.905 254.363Z" fill="#D65DF4"/>
<path d="M339.751 256.924C340.321 256.924 340.178 256.07 339.608 256.212C339.466 256.355 339.466 256.781 339.751 256.924Z" fill="#D65DF4"/>
<path d="M335.192 257.35C335.335 257.492 335.477 257.635 335.762 257.635C335.905 257.35 335.762 257.208 335.905 256.923C335.905 256.923 335.762 256.923 335.62 256.923C335.477 257.066 335.335 257.066 335.192 257.35Z" fill="#D65DF4"/>
<path d="M337.186 256.212C337.329 256.07 337.186 255.927 337.329 255.785C336.759 255.785 336.759 255.643 336.331 255.358C336.046 255.643 335.761 256.07 335.477 256.354C335.904 256.781 336.189 255.927 336.759 255.927C336.901 256.07 336.901 256.212 337.186 256.212Z" fill="#D65DF4"/>
<path d="M334.765 267.025C334.337 266.74 334.052 266.74 333.482 266.456C333.34 266.882 333.34 267.025 333.34 267.309C333.625 267.451 333.767 267.736 334.052 267.878C334.48 267.736 334.622 267.451 334.765 267.025Z" fill="#D65DF4"/>
<path d="M330.206 273.711C330.063 273.854 329.921 273.854 329.921 273.996C330.491 274.565 331.203 273.854 330.206 273.711Z" fill="#D65DF4"/>
<path d="M334.053 272.715C333.91 272.858 333.91 273.284 334.195 273.427C334.765 273.569 334.622 272.715 334.053 272.715Z" fill="#D65DF4"/>
<path d="M332.343 273.854C332.343 274.138 332.628 274.281 332.77 274.423C333.055 273.996 332.628 273.712 332.343 273.854Z" fill="#D65DF4"/>
<path d="M330.633 276.414C330.633 276.556 330.49 276.556 330.49 276.699C330.633 276.699 330.775 276.841 330.918 276.841C330.918 276.699 330.918 276.556 330.633 276.414Z" fill="#D65DF4"/>
<path d="M332.912 266.029C332.342 266.029 332.342 265.602 331.915 265.602C331.773 266.171 332.2 266.456 332.485 266.74C332.77 266.456 333.055 266.313 332.912 266.029Z" fill="#D65DF4"/>
<path d="M332.628 276.557C332.913 276.699 333.055 276.415 333.055 276.13C332.913 275.988 332.628 276.272 332.628 276.557Z" fill="#D65DF4"/>
<path d="M332.2 271.293C332.2 271.577 332.2 271.862 332.485 271.862C332.77 272.004 332.913 271.577 333.197 271.577C333.197 271.72 333.197 271.862 333.34 272.004C333.482 271.862 333.91 272.146 334.052 271.862C333.625 271.577 333.482 271.293 333.482 270.724C333.34 270.866 333.197 270.866 332.913 270.866C332.77 271.293 332.628 271.435 332.2 271.293Z" fill="#D65DF4"/>
<path d="M331.203 274.707C331.203 274.565 331.061 274.565 330.776 274.565C330.633 274.707 330.633 274.992 330.776 274.992C331.061 274.849 331.203 274.992 331.203 274.707Z" fill="#D65DF4"/>
<path d="M332.057 278.549C331.915 278.406 331.915 277.98 331.772 278.264C331.772 278.406 331.772 278.833 332.057 278.549Z" fill="#D65DF4"/>
<path d="M335.05 267.878C335.05 268.163 335.05 268.305 335.335 268.447C335.905 268.305 336.047 268.732 336.332 269.016C336.617 268.305 336.332 268.021 335.905 267.594C335.477 267.878 335.335 268.021 335.05 267.878ZM335.477 268.021C335.62 268.021 335.62 268.021 335.762 268.163C335.762 268.305 335.62 268.305 335.62 268.447C335.477 268.305 335.335 268.163 335.477 268.021Z" fill="#D65DF4"/>
<path d="M331.63 269.87C331.488 269.87 331.488 269.728 331.345 269.585C331.203 269.728 330.918 269.87 330.918 270.155C331.345 270.297 331.345 270.012 331.63 269.87Z" fill="#D65DF4"/>
<path d="M334.052 269.728C334.479 269.728 334.764 269.443 335.049 269.159C334.622 268.447 333.34 269.159 334.052 269.728Z" fill="#D65DF4"/>
<path d="M332.77 269.016C332.343 269.158 332.058 270.012 332.628 270.297C332.77 269.87 333.34 269.158 332.77 269.016Z" fill="#D65DF4"/>
<path d="M324.934 260.907L324.792 261.191L324.934 260.907Z" fill="#D65DF4"/>
<path d="M327.071 255.928L326.786 256.639L327.071 255.928Z" fill="#D65DF4"/>
<path d="M331.346 246.254L331.489 246.111L331.346 246.254Z" fill="#D65DF4"/>
<path d="M329.493 250.379L329.778 249.952L329.493 250.379Z" fill="#D65DF4"/>
<path d="M323.367 264.464L323.652 263.61L323.367 264.464Z" fill="#D65DF4"/>
<path d="M408.135 158.796C408.277 158.654 408.42 158.512 408.562 158.512C408.42 158.654 408.277 158.796 408.135 158.796Z" fill="#D65DF4"/>
<path d="M335.049 244.973L334.622 244.404L335.049 244.973Z" fill="#D65DF4"/>
<path d="M170.525 222.908C171.317 223.167 171.843 222.901 172.526 222.422L192.156 204.818C192.839 204.34 193.099 203.548 192.779 202.654C192.67 201.917 192.036 201.446 191.245 201.186L164.872 194.74C164.081 194.481 163.555 194.747 162.872 195.225L162.715 195.437C162.401 195.86 162.141 196.652 162.406 197.178L169.148 221.228C169.311 222.334 169.945 222.805 170.525 222.908Z" fill="#D65DF4"/>
<path d="M364.825 308.835L360.764 329.508L342.877 310.411L364.825 308.835Z" fill="#D65DF4"/>
<path d="M198.602 371.348C198.404 371.264 198.205 371.183 198.093 370.909C197.584 370.47 197.444 369.729 197.701 369.152L216.029 317.884C216.37 317.115 217.022 316.705 217.701 316.76C218.38 316.814 219.088 317.338 219.314 317.888L231.567 358.481C231.905 359.304 231.28 360.181 230.43 360.509L199.849 371.185C199.48 371.486 198.999 371.513 198.602 371.348ZM217.462 324.168L202.123 367.13L227.686 358.228L217.462 324.168Z" fill="#D65DF4"/>
<path d="M271.517 275.504C271.35 275.457 271.018 275.365 270.896 275.141C270.607 274.872 270.408 274.253 270.542 273.726L276.739 251.966C276.871 251.439 277.337 251.007 277.879 250.971C278.421 250.934 278.877 251.25 279.287 251.743L287.782 270.303C288.026 270.748 287.937 271.098 287.804 271.625C287.717 271.976 287.295 272.234 286.918 272.316L272.224 275.517C272.059 275.47 271.849 275.599 271.517 275.504ZM278.514 256.227L273.986 272.063L284.746 269.636L278.514 256.227Z" fill="#6F3E7A"/>
<defs>
<clipPath id="clip0_2908_7943">
<rect width="32.4985" height="32.4985" fill="white" transform="translate(501.046 136.335)"/>
</clipPath>
<clipPath id="clip1_2908_7943">
<rect width="23.7794" height="23.7794" fill="white" transform="translate(0.09375 86.3994)"/>
</clipPath>
<clipPath id="clip2_2908_7943">
<rect width="30.9132" height="25.3647" fill="white" transform="translate(194.98 106.542) rotate(37.7316)"/>
</clipPath>
<clipPath id="clip3_2908_7943">
<rect width="21.4014" height="26.1573" fill="white" transform="translate(602.505 57.8638)"/>
</clipPath>
<clipPath id="clip4_2908_7943">
<rect width="22.1941" height="26.95" fill="white" transform="translate(304.826 29.3223) rotate(142.572)"/>
</clipPath>
</defs>
</svg>
