<svg
  width="1803"
  height="420"
  viewBox="0 0 1803 420"
  fill="none"
  xmlns="http://www.w3.org/2000/svg"
>
<path
    d="M609.5 279.556C609.5 317.778 575.619 352.543 520.46 377.782C465.344 403 389.168 418.611 305 418.611C220.832 418.611 144.656 403 89.5405 377.782C34.3814 352.543 0.5 317.778 0.5 279.556C0.5 241.333 34.3814 206.568 89.5405 181.33C144.656 156.111 220.832 140.5 305 140.5C389.168 140.5 465.344 156.111 520.46 181.33C575.619 206.568 609.5 241.333 609.5 279.556Z"
    fill="#E93D82"
  />
<path
    d="M609.5 279.556C609.5 317.778 575.619 352.543 520.46 377.782C465.344 403 389.168 418.611 305 418.611C220.832 418.611 144.656 403 89.5405 377.782C34.3814 352.543 0.5 317.778 0.5 279.556C0.5 241.333 34.3814 206.568 89.5405 181.33C144.656 156.111 220.832 140.5 305 140.5C389.168 140.5 465.344 156.111 520.46 181.33C575.619 206.568 609.5 241.333 609.5 279.556Z"
    stroke="black"
  />
<path
    d="M609.5 279.556C609.5 317.778 575.619 352.543 520.46 377.782C465.344 403 389.168 418.611 305 418.611C220.832 418.611 144.656 403 89.5405 377.782C34.3814 352.543 0.5 317.778 0.5 279.556C0.5 241.333 34.3814 206.568 89.5405 181.33C144.656 156.111 220.832 140.5 305 140.5C389.168 140.5 465.344 156.111 520.46 181.33C575.619 206.568 609.5 241.333 609.5 279.556Z"
    stroke="black"
    stroke-opacity="0.2"
  />
<path
    d="M2027.5 -88C2027.5 -53.4352 2005.48 -20.418 1965.46 9.69022C1925.45 39.7921 1867.51 66.9218 1795.88 89.7144C1652.61 135.298 1454.67 163.5 1236 163.5C1017.33 163.5 819.386 135.298 676.123 89.7144C604.489 66.9218 546.555 39.7921 506.54 9.69022C466.516 -20.418 444.5 -53.4352 444.5 -88C444.5 -122.565 466.516 -155.582 506.54 -185.69C546.555 -215.792 604.489 -242.922 676.123 -265.714C819.386 -311.298 1017.33 -339.5 1236 -339.5C1454.67 -339.5 1652.61 -311.298 1795.88 -265.714C1867.51 -242.922 1925.45 -215.792 1965.46 -185.69C2005.48 -155.582 2027.5 -122.565 2027.5 -88Z"
    fill="#AB4ABA"
  />
<path
    d="M2027.5 -88C2027.5 -53.4352 2005.48 -20.418 1965.46 9.69022C1925.45 39.7921 1867.51 66.9218 1795.88 89.7144C1652.61 135.298 1454.67 163.5 1236 163.5C1017.33 163.5 819.386 135.298 676.123 89.7144C604.489 66.9218 546.555 39.7921 506.54 9.69022C466.516 -20.418 444.5 -53.4352 444.5 -88C444.5 -122.565 466.516 -155.582 506.54 -185.69C546.555 -215.792 604.489 -242.922 676.123 -265.714C819.386 -311.298 1017.33 -339.5 1236 -339.5C1454.67 -339.5 1652.61 -311.298 1795.88 -265.714C1867.51 -242.922 1925.45 -215.792 1965.46 -185.69C2005.48 -155.582 2027.5 -122.565 2027.5 -88Z"
    stroke="black"
  />
<path
    d="M2027.5 -88C2027.5 -53.4352 2005.48 -20.418 1965.46 9.69022C1925.45 39.7921 1867.51 66.9218 1795.88 89.7144C1652.61 135.298 1454.67 163.5 1236 163.5C1017.33 163.5 819.386 135.298 676.123 89.7144C604.489 66.9218 546.555 39.7921 506.54 9.69022C466.516 -20.418 444.5 -53.4352 444.5 -88C444.5 -122.565 466.516 -155.582 506.54 -185.69C546.555 -215.792 604.489 -242.922 676.123 -265.714C819.386 -311.298 1017.33 -339.5 1236 -339.5C1454.67 -339.5 1652.61 -311.298 1795.88 -265.714C1867.51 -242.922 1925.45 -215.792 1965.46 -185.69C2005.48 -155.582 2027.5 -122.565 2027.5 -88Z"
    stroke="black"
    stroke-opacity="0.2"
  />
<path
    d="M1527.5 177.778C1527.5 205.689 1512.33 230.997 1487.72 249.345C1463.11 267.692 1429.1 279.056 1391.5 279.056C1353.9 279.056 1319.89 267.692 1295.28 249.345C1270.67 230.997 1255.5 205.689 1255.5 177.778C1255.5 149.867 1270.67 124.559 1295.28 106.211C1319.89 87.8632 1353.9 76.5 1391.5 76.5C1429.1 76.5 1463.11 87.8632 1487.72 106.211C1512.33 124.559 1527.5 149.867 1527.5 177.778Z"
    fill="#E93D82"
  />
<path
    d="M1527.5 177.778C1527.5 205.689 1512.33 230.997 1487.72 249.345C1463.11 267.692 1429.1 279.056 1391.5 279.056C1353.9 279.056 1319.89 267.692 1295.28 249.345C1270.67 230.997 1255.5 205.689 1255.5 177.778C1255.5 149.867 1270.67 124.559 1295.28 106.211C1319.89 87.8632 1353.9 76.5 1391.5 76.5C1429.1 76.5 1463.11 87.8632 1487.72 106.211C1512.33 124.559 1527.5 149.867 1527.5 177.778Z"
    stroke="black"
  />
<path
    d="M1527.5 177.778C1527.5 205.689 1512.33 230.997 1487.72 249.345C1463.11 267.692 1429.1 279.056 1391.5 279.056C1353.9 279.056 1319.89 267.692 1295.28 249.345C1270.67 230.997 1255.5 205.689 1255.5 177.778C1255.5 149.867 1270.67 124.559 1295.28 106.211C1319.89 87.8632 1353.9 76.5 1391.5 76.5C1429.1 76.5 1463.11 87.8632 1487.72 106.211C1512.33 124.559 1527.5 149.867 1527.5 177.778Z"
    stroke="black"
    stroke-opacity="0.2"
  />
</svg>
