<svg width="18" height="18" viewBox="0 0 18 18" fill="none" xmlns="http://www.w3.org/2000/svg">
<path opacity="0.4" d="M1 9H17M9 1V17" stroke="#FF51A8" stroke-width="1.5" stroke-linecap="round" stroke-linejoin="round"/>
<path d="M12.7333 1H5.2667C3.77319 1 3.02645 1 2.45603 1.29065C1.95426 1.54631 1.54631 1.95426 1.29065 2.45603C1 3.02645 1 3.77319 1 5.2667V12.7333C1 14.2269 1 14.9735 1.29065 15.544C1.54631 16.0458 1.95426 16.4537 2.45603 16.7093C3.02645 17 3.77319 17 5.2667 17H12.7333C14.2269 17 14.9735 17 15.544 16.7093C16.0458 16.4537 16.4537 16.0458 16.7093 15.544C17 14.9735 17 14.2269 17 12.7333V5.2667C17 3.77319 17 3.02645 16.7093 2.45603C16.4537 1.95426 16.0458 1.54631 15.544 1.29065C14.9735 1 14.2269 1 12.7333 1Z" stroke="#FF51A8" stroke-width="1.5" stroke-linecap="round" stroke-linejoin="round"/>
</svg>
