<svg width="25" height="18" viewBox="0 0 25 18" fill="none" xmlns="http://www.w3.org/2000/svg">
<path opacity="0.4" d="M24 5.42589C24 4.72034 24 4.36756 23.8802 4.20411C23.7763 4.06245 23.6203 3.98723 23.4608 4.00178C23.2769 4.01867 23.0627 4.26812 22.6343 4.767L19 9L22.6343 13.2329C23.0627 13.7319 23.2769 13.9813 23.4608 13.9982C23.6203 14.0128 23.7763 13.9376 23.8802 13.7958C24 13.6324 24 13.2797 24 12.5741V5.42589Z" stroke="#FF51A8" stroke-width="1.5" stroke-linecap="round" stroke-linejoin="round"/>
<path d="M1 6.48576C1 4.56555 1 3.60544 1.39238 2.87203C1.73752 2.2269 2.28825 1.7024 2.96563 1.3737C3.73571 1 4.74381 1 6.76 1H13.24C15.2562 1 16.2642 1 17.0344 1.3737C17.7118 1.7024 18.2624 2.2269 18.6076 2.87203C19 3.60544 19 4.56555 19 6.48576V11.5142C19 13.4346 19 14.3946 18.6076 15.128C18.2624 15.7731 17.7118 16.2976 17.0344 16.6262C16.2642 17 15.2562 17 13.24 17H6.76C4.74381 17 3.73571 17 2.96563 16.6262C2.28825 16.2976 1.73752 15.7731 1.39238 15.128C1 14.3946 1 13.4346 1 11.5142V6.48576Z" stroke="#FF51A8" stroke-width="1.5" stroke-linecap="round" stroke-linejoin="round"/>
</svg>
