<svg width="17" height="17" viewBox="0 0 17 17" fill="none" xmlns="http://www.w3.org/2000/svg">
<path d="M15.0875 0H1.9125C0.8585 0 0 0.8585 0 1.9125V15.0875C0 16.1415 0.8585 17 1.9125 17H15.0875C16.1415 17 17 16.1415 17 15.0875V1.9125C17 0.8585 16.1415 0 15.0875 0ZM1.9125 1.275H15.0875C15.4385 1.275 15.725 1.56145 15.725 1.9125V10.1371L12.4457 6.8578C12.3267 6.7388 12.1652 6.6708 11.9952 6.6708H11.9927C11.8227 6.6708 11.6586 6.7388 11.5405 6.8612L7.871 10.5876L6.32993 9.05245C6.21093 8.93345 6.04947 8.86555 5.87947 8.86555C5.7154 8.84 5.54365 8.93345 5.42465 9.05847L1.275 13.2957V1.9125C1.275 1.56145 1.56145 1.275 1.9125 1.275ZM1.2801 15.113L5.8854 10.4091L11.2251 15.725H1.9125C1.5708 15.725 1.29455 15.4513 1.2801 15.113ZM15.0875 15.725H13.0305L8.77453 11.4861L11.9977 8.21353L15.725 11.9399V15.0875C15.725 15.4385 15.4385 15.725 15.0875 15.725Z" fill="#FF51A8"/>
<path d="M5.86015 6.7709C6.57815 6.7709 7.1602 6.18885 7.1602 5.47085C7.1602 4.75295 6.57815 4.1709 5.86015 4.1709C5.14215 4.1709 4.5602 4.75295 4.5602 5.47085C4.5602 6.18885 5.14215 6.7709 5.86015 6.7709Z" fill="#FF51A8"/>
</svg>
