<svg width="24" height="24" fill="none" xmlns="http://www.w3.org/2000/svg"><path opacity=".4" d="M22 10H2" stroke="gray" stroke-opacity=".923" stroke-width="2"/><path d="M11 19h7.8c1.12 0 1.68 0 2.108-.218.377-.192.682-.497.873-.874C22 17.48 22 16.92 22 15.8V8.2c0-1.12 0-1.68-.218-2.108a2 2 0 0 0-.873-.873C20.48 5 19.92 5 18.8 5H17m-6 14L13 21m-2-2 2-2m-6 2H5.2c-1.12 0-1.68 0-2.108-.218a2 2 0 0 1-.873-.874C2 17.48 2 16.92 2 15.8V8.2c0-1.12 0-1.68.218-2.108.19-.377.496-.682.873-.873C3.519 5 4.08 5 5.2 5H13m0 0-2 2M13 5l-2-2"/></svg>