<svg width="24" height="24" fill="none" xmlns="http://www.w3.org/2000/svg"><path d="M18.773 5.45h-.033a15.155 15.155 0 0 0-3.95-1.23c-.034-.032-.067 0-.067 0a7.29 7.29 0 0 0-.498 1.03 14.495 14.495 0 0 0-4.483 0 7.3 7.3 0 0 0-.498-1.03s-.033-.032-.066 0c-1.362.233-2.69.632-3.951 1.23h-.034c-2.523 3.784-3.22 7.47-2.888 11.122 0 0 0 .034.033.034a15.708 15.708 0 0 0 4.88 2.456c0 .034.034 0 .067 0 .365-.53.697-1.062.996-1.627 0-.033 0-.066-.033-.1-.531-.198-1.062-.43-1.527-.73-.034 0-.067-.066 0-.1.1-.066.199-.132.299-.232h.066c3.187 1.461 6.64 1.461 9.795 0h.066c.1.1.2.166.3.233.032.033.032.1 0 .1a9.194 9.194 0 0 1-1.528.73c-.034.033-.034.066-.034.1.3.564.631 1.095.997 1.627.033 0 .033.033.066 0a15.708 15.708 0 0 0 4.88-2.457c.034 0 .034-.034.034-.034.399-4.216-.697-7.869-2.889-11.123ZM8.746 14.347c-.963 0-1.76-.897-1.76-1.96 0-1.095.797-1.958 1.76-1.958.996 0 1.76.863 1.76 1.959 0 1.062-.797 1.959-1.76 1.959Zm6.475 0c-.963 0-1.727-.897-1.727-1.96 0-1.095.764-1.958 1.727-1.958.996 0 1.793.863 1.76 1.959 0 1.062-.764 1.959-1.76 1.959Z" fill="#fff"/></svg>