<svg width="24" height="24" fill="none" xmlns="http://www.w3.org/2000/svg"><path d="M17.686 6.94a3.63 3.63 0 0 1-.314-.183 4.413 4.413 0 0 1-.805-.684 3.794 3.794 0 0 1-.909-1.874h.003c-.068-.406-.04-.668-.035-.668h-2.738v10.585c0 .142 0 .283-.005.421 0 .017-.003.033-.003.052 0 .007 0 .016-.003.023v.007a2.322 2.322 0 0 1-1.168 1.844c-.346.197-.736.3-1.133.3a2.316 2.316 0 0 1-2.31-2.325 2.317 2.317 0 0 1 2.31-2.325c.241 0 .481.039.71.114l.004-2.788a5.085 5.085 0 0 0-3.918 1.147c-.472.41-.869.9-1.173 1.445-.115.2-.551 1-.604 2.3-.033.736.189 1.501.294 1.816v.008c.066.185.324.82.743 1.354.338.43.738.807 1.186 1.12v-.007l.006.007c1.325.9 2.795.84 2.795.84.254-.01 1.106 0 2.074-.458 1.073-.508 1.683-1.266 1.683-1.266.39-.452.701-.968.918-1.525.248-.651.33-1.432.33-1.744V8.86c.034.02.476.312.476.312s.638.41 1.632.675c.712.189 1.674.23 1.674.23V7.357c-.337.037-1.02-.069-1.721-.418Z" fill="#fff"/></svg>