<svg width="24" height="24" fill="none" xmlns="http://www.w3.org/2000/svg"><path d="M19.24 8.172v.465c0 4.615-3.486 9.894-9.894 9.894-1.992 0-3.819-.564-5.346-1.56.266.033.531.066.83.066a7.01 7.01 0 0 0 4.316-1.494 3.47 3.47 0 0 1-3.253-2.424c.232.033.431.066.664.066.298 0 .63-.066.896-.132a3.49 3.49 0 0 1-2.789-3.42V9.6c.465.265 1.03.398 1.594.431a3.43 3.43 0 0 1-1.56-2.888c0-.664.165-1.262.464-1.76a10.115 10.115 0 0 0 7.205 3.652 3.275 3.275 0 0 1-.1-.797 3.486 3.486 0 0 1 3.487-3.486c.996 0 1.893.398 2.557 1.096a7.364 7.364 0 0 0 2.191-.864 3.407 3.407 0 0 1-1.527 1.926 6.535 6.535 0 0 0 1.992-.531 7.383 7.383 0 0 1-1.727 1.793Z" fill="#fff"/></svg>