<svg viewBox="0 0 22 17" width="22" height="17" fill="none" xmlns="http://www.w3.org/2000/svg"><path d="M21 6.5H1m9 4H5M1 4.7v7.6c0 1.12 0 1.68.218 2.108a2 2 0 0 0 .874.874c.428.218.988.218 2.108.218h13.6c1.12 0 1.68 0 2.108-.218a2 2 0 0 0 .874-.874C21 13.98 21 13.42 21 12.3V4.7c0-1.12 0-1.68-.218-2.108a2 2 0 0 0-.874-.874C19.48 1.5 18.92 1.5 17.8 1.5H4.2c-1.12 0-1.68 0-2.108.218a2 2 0 0 0-.874.874C1 3.02 1 3.58 1 4.7Z" stroke="#fff" stroke-width="2" stroke-linecap="round" stroke-linejoin="round"/></svg>