<svg width="42" height="42" fill="none" xmlns="http://www.w3.org/2000/svg"><g opacity=".5" stroke="#fff" stroke-width="3.5" stroke-linecap="round" stroke-linejoin="round"><path opacity=".4" d="M15.75 26.25h10.5"/><path d="M36.75 14H5.25h31.5ZM28 3.5v5.25V3.5Zm-14 0v5.25V3.5Zm-.35 35h14.7c2.94 0 4.41 0 5.533-.572a5.249 5.249 0 0 0 2.295-2.294c.572-1.124.572-2.594.572-5.534V15.4c0-2.94 0-4.41-.572-5.533a5.25 5.25 0 0 0-2.294-2.295C32.76 7 31.29 7 28.35 7h-14.7c-2.94 0-4.41 0-5.533.572a5.25 5.25 0 0 0-2.295 2.295C5.25 10.99 5.25 12.46 5.25 15.4v14.7c0 2.94 0 4.41.572 5.533a5.25 5.25 0 0 0 2.295 2.295c1.123.572 2.593.572 5.533.572Z"/></g></svg>