<svg width="21" height="21" fill="none" xmlns="http://www.w3.org/2000/svg"><path d="M5.704 8.77h.01m4.49 0h.01m4.49 0h.01m-9.51 7.5v2.335c0 .533 0 .8.11.937a.5.5 0 0 0 .39.188c.176 0 .384-.167.8-.5l2.386-1.908c.487-.39.73-.585 1.002-.723.24-.123.497-.213.761-.268.299-.061.611-.061 1.235-.061h2.516c1.68 0 2.52 0 3.162-.327a3 3 0 0 0 1.311-1.311c.327-.642.327-1.482.327-3.162v-5.4c0-1.68 0-2.52-.327-3.162a3 3 0 0 0-1.31-1.311c-.643-.327-1.483-.327-3.163-.327h-8.4c-1.68 0-2.52 0-3.162.327a3 3 0 0 0-1.31 1.311c-.328.642-.328 1.482-.328 3.162v6.2c0 .93 0 1.395.103 1.777a3 3 0 0 0 2.12 2.12c.382.103.847.103 1.777.103Zm1-7.5a.5.5 0 1 1-1 0 .5.5 0 0 1 1 0Zm4.5 0a.5.5 0 1 1-1 0 .5.5 0 0 1 1 0Zm4.5 0a.5.5 0 1 1-1 0 .5.5 0 0 1 1 0Z" stroke="#F3EFF3" stroke-width="2" stroke-linecap="round" stroke-linejoin="round"/></svg>