<svg width="34" height="34" fill="none" xmlns="http://www.w3.org/2000/svg"><path d="M34 14.715C34 2.597 31.403 0 19.285 0h-4.57C2.597 0 0 2.597 0 14.715v4.57C0 31.403 2.597 34 14.715 34h4.57C31.403 34 34 31.403 34 19.285v-4.57Z" fill="#0052FF"/><path d="M17 3c7.18 0 13 5.82 13 13s-5.82 13-13 13S4 23.18 4 16 9.82 3 17 3Z" fill="#0052FF"/><path d="M17.003 20.57a4.569 4.569 0 0 1-4.57-4.57 4.569 4.569 0 0 1 9.071-.762h4.604A9.141 9.141 0 1 0 17 25.14c4.791 0 8.72-3.686 9.108-8.378h-4.606a4.569 4.569 0 0 1-4.5 3.808Z" fill="#fff"/></svg>