<svg width="36" height="36" viewBox="0 0 36 36" fill="none" xmlns="http://www.w3.org/2000/svg">
<path d="M36 15.5808C36 2.75001 33.25 0 20.4192 0H15.5808C2.75001 0 0 2.75001 0 15.5808V20.4192C0 33.25 2.75001 36 15.5808 36H20.4192C33.25 36 36 33.25 36 20.4192V15.5808Z" fill="#B52A6F"/>
<path d="M15 18L15 18L15 18V18Z" fill="#B52A6F"/>
<path d="M17.3866 16.6L12.6134 19.4M17.3866 16.6L17.8189 14.9608M17.3866 16.6L19 17.0392M12.6134 19.4L11 18.9608M12.6134 19.4L12.1811 21.0392M17.3866 19.3999L12.6133 16.5999M17.3866 19.3999L19 18.9607M17.3866 19.3999L17.8189 21.0392M12.6133 16.5999L12.1811 14.9608M12.6133 16.5999L11.0001 17.0393M15 15.2L15 20.8M15 15.2L13.8189 14M15 15.2L16.1811 14M15 20.8L13.8189 22M15 20.8L16.1811 22" stroke="white" stroke-width="0.8" stroke-linecap="round" stroke-linejoin="round"/>
<path d="M26 15.5V13.2C26 12.0799 26 11.5198 25.782 11.092C25.5903 10.7157 25.2843 10.4097 24.908 10.218C24.4802 10 23.9201 10 22.8 10H11.2C10.0799 10 9.51984 10 9.09202 10.218C8.7157 10.4097 8.40973 10.7157 8.21799 11.092C8 11.5198 8 12.0799 8 13.2V22.8C8 23.9201 8 24.4802 8.21799 24.908C8.40973 25.2843 8.71569 25.5903 9.09202 25.782C9.51984 26 10.0799 26 11.2 26L22.8 26C23.9201 26 24.4802 26 24.908 25.782C25.2843 25.5903 25.5903 25.2843 25.782 24.908C26 24.4802 26 23.9201 26 22.8V20.5M21 18C21 17.5353 21 17.303 21.0384 17.1098C21.1962 16.3164 21.8164 15.6962 22.6098 15.5384C22.803 15.5 23.0353 15.5 23.5 15.5H25.5C25.9647 15.5 26.197 15.5 26.3902 15.5384C27.1836 15.6962 27.8038 16.3164 27.9616 17.1098C28 17.303 28 17.5353 28 18C28 18.4647 28 18.697 27.9616 18.8902C27.8038 19.6836 27.1836 20.3038 26.3902 20.4616C26.197 20.5 25.9647 20.5 25.5 20.5H23.5C23.0353 20.5 22.803 20.5 22.6098 20.4616C21.8164 20.3038 21.1962 19.6836 21.0384 18.8902C21 18.697 21 18.4647 21 18Z" stroke="white" stroke-width="1.4" stroke-linecap="round" stroke-linejoin="round"/>
</svg>
