<svg width="17" height="17" fill="none" xmlns="http://www.w3.org/2000/svg"><path fill-rule="evenodd" clip-rule="evenodd" d="m8.363 14.489-.152.001C3.687 14.49.02 11.246.02 7.245.02 3.244 3.687 0 8.21 0c4.524 0 8.192 3.244 8.192 7.245a6.511 6.511 0 0 1-.659 2.85c-.568 1.237-1.445 2.341-2.397 3.293a18.246 18.246 0 0 1-4.322 3.164c-.316.163-.662-.093-.662-.449V14.49Zm-2.96-6.87c0 .69-.524 1.25-1.17 1.25-.647 0-1.17-.56-1.17-1.25 0-.689.523-1.248 1.17-1.248.646 0 1.17.559 1.17 1.249ZM8.21 8.87c.646 0 1.17-.56 1.17-1.25 0-.689-.524-1.248-1.17-1.248-.646 0-1.17.559-1.17 1.249 0 .69.524 1.249 1.17 1.249Zm5.15-1.25c0 .69-.525 1.25-1.171 1.25s-1.17-.56-1.17-1.25c0-.689.524-1.248 1.17-1.248.646 0 1.17.559 1.17 1.249Z" fill="#FBFBFB"/></svg>