<svg width="17" height="18" viewBox="0 0 17 18" fill="none" xmlns="http://www.w3.org/2000/svg">
<path fill-rule="evenodd" clip-rule="evenodd" d="M14.9402 6.04782C15.3119 6.07842 15.5891 6.40333 15.5594 6.77503C15.554 6.83623 15.0662 12.8762 14.7854 15.4098C14.6108 16.9821 13.5722 17.9388 12.0044 17.9676C10.8046 17.9883 9.64723 18 8.51591 18C7.29639 18 6.10748 17.9865 4.93116 17.9622C3.42634 17.9325 2.38502 16.9569 2.21492 15.4161C1.93141 12.86 1.44631 6.83533 1.44181 6.77503C1.41121 6.40333 1.68841 6.07752 2.06012 6.04782C2.42642 6.03792 2.75763 6.29532 2.78733 6.66613C2.7902 6.70519 2.98852 9.16549 3.20463 11.5997L3.24804 12.0855C3.35688 13.2955 3.46722 14.4581 3.55684 15.2676C3.65314 16.1433 4.12565 16.5951 4.95906 16.6122C7.20909 16.6599 9.50503 16.6626 11.9801 16.6176C12.8657 16.6005 13.3445 16.1577 13.4435 15.2613C13.7225 12.7466 14.2085 6.72733 14.2139 6.66613C14.2436 6.29532 14.5721 6.03612 14.9402 6.04782ZM10.4049 0C11.2311 0 11.9574 0.557108 12.1707 1.35542L12.3993 2.49034C12.4732 2.86238 12.7997 3.13408 13.1777 3.14005L16.1313 3.14015C16.5039 3.14015 16.8063 3.44255 16.8063 3.81516C16.8063 4.18776 16.5039 4.49017 16.1313 4.49017L13.2041 4.49003C13.1995 4.49012 13.195 4.49017 13.1904 4.49017L13.1684 4.48927L3.83136 4.49006C3.8241 4.49013 3.81683 4.49017 3.80956 4.49017L3.7957 4.48927L0.868858 4.49017C0.496252 4.49017 0.193848 4.18776 0.193848 3.81516C0.193848 3.44255 0.496252 3.14015 0.868858 3.14015L3.8218 3.13925L3.91272 3.13349C4.25139 3.08955 4.53285 2.83234 4.60157 2.49034L4.82028 1.39592C5.04258 0.557108 5.76889 0 6.5951 0H10.4049ZM10.4049 1.35002H6.5951C6.3791 1.35002 6.1892 1.49492 6.1343 1.70283L5.92459 2.75584C5.89794 2.88922 5.85913 3.01776 5.80947 3.14039H11.1908C11.141 3.01776 11.1021 2.88922 11.0754 2.75584L10.8567 1.66142C10.8108 1.49492 10.6209 1.35002 10.4049 1.35002Z" fill="#FF51A8"/>
</svg>
