<svg width="24" height="25" fill="none" xmlns="http://www.w3.org/2000/svg"><path fill-rule="evenodd" clip-rule="evenodd" d="M20.481 8.4a.939.939 0 0 1 .86 1.01c-.007.085-.685 8.474-1.075 11.992-.242 2.184-1.685 3.513-3.862 3.553a245.67 245.67 0 0 1-9.824-.007c-2.09-.042-3.537-1.397-3.773-3.537C2.413 17.861 1.74 9.494 1.733 9.41a.936.936 0 0 1 .859-1.01c.509-.014.969.344 1.01.859.004.054.28 3.47.58 6.852l.06.674c.151 1.68.304 3.296.429 4.42.134 1.216.79 1.844 1.947 1.868 3.125.066 6.314.07 9.752.007 1.23-.024 1.895-.639 2.032-1.884.388-3.492 1.063-11.852 1.07-11.937.041-.515.498-.876 1.01-.86ZM14.182 0c1.147 0 2.156.774 2.452 1.883l.318 1.576c.103.517.556.894 1.081.902h4.102a.938.938 0 0 1 0 1.875H.938a.938.938 0 0 1 0-1.875h4.1l.127-.009c.47-.061.861-.418.957-.893l.304-1.52C6.734.774 7.743 0 8.89 0h5.291Zm0 1.875H8.891a.66.66 0 0 0-.64.49l-.292 1.463c-.037.185-.09.363-.16.534h7.474a2.98 2.98 0 0 1-.16-.534l-.303-1.52c-.064-.232-.328-.433-.628-.433Z" fill="#fff"/></svg>