<svg width="24" height="24" fill="none" xmlns="http://www.w3.org/2000/svg"><path opacity=".4" d="M11 4H6.8c-1.68 0-2.52 0-3.162.327a3 3 0 0 0-1.311 1.311C2 6.28 2 7.12 2 8.8v8.4c0 1.68 0 2.52.327 3.162a3 3 0 0 0 1.311 1.311C4.28 22 5.12 22 6.8 22h8.4c1.68 0 2.52 0 3.162-.327a3 3 0 0 0 1.311-1.311C20 19.72 20 18.88 20 17.2V13" stroke="#fff" stroke-width="2" stroke-linecap="round" stroke-linejoin="round"/><path d="M8 14.322c0-.49 0-.734.055-.964a2 2 0 0 1 .24-.578c.123-.202.296-.375.642-.721L18.5 2.496a2.121 2.121 0 0 1 3 3l-9.563 9.563c-.346.346-.519.519-.72.643-.18.11-.375.19-.579.239-.23.055-.474.055-.963.055H8v-1.674Z" stroke="#fff" stroke-width="2" stroke-linecap="round" stroke-linejoin="round"/></svg>