<svg width="24" height="25" fill="none" xmlns="http://www.w3.org/2000/svg"><path opacity=".4" d="M4 7.3c0-1.68 0-2.52.327-3.162a3 3 0 0 1 1.311-1.311C6.28 2.5 7.12 2.5 8.8 2.5h6.4c1.68 0 2.52 0 3.162.327a3 3 0 0 1 1.311 1.311C20 4.78 20 5.62 20 7.3v10.4c0 1.68 0 2.52-.327 3.162a3 3 0 0 1-1.311 1.311c-.642.327-1.482.327-3.162.327H8.8c-1.68 0-2.52 0-3.162-.327a3 3 0 0 1-1.311-1.311C4 20.22 4 19.38 4 17.7V7.3Z" stroke="#fff" stroke-width="2" stroke-linecap="round" stroke-linejoin="round"/><path d="M12 8.5v10m-4-4v4-4Zm8-2v6-6Z" stroke="#fff" stroke-width="2" stroke-linecap="round" stroke-linejoin="round"/></svg>