<svg width="21" height="19" fill="none" xmlns="http://www.w3.org/2000/svg"><path d="M10.36 0c-5.516 0-10 4.26-10 9.5s4.484 9.5 10 9.5c5.514 0 10-4.26 10-9.5S15.873 0 10.36 0Zm0 1.267c4.794 0 8.666 3.678 8.666 8.233 0 4.555-3.872 8.233-8.667 8.233-4.794 0-8.666-3.678-8.666-8.233 0-4.555 3.872-8.233 8.666-8.233Zm-.008 1.886a.73.73 0 0 0-.069.007.679.679 0 0 0-.425.212.615.615 0 0 0-.165.428v.89c-.566.078-1.105.257-1.563.555-.635.413-1.104 1.11-1.104 1.933 0 .844.516 1.51 1.125 1.906.609.396 1.313.621 1.972.858.66.236 1.272.481 1.66.772.388.29.576.558.576 1.108 0 .406-.169.662-.52.89-.352.23-.9.377-1.48.377-1.63 0-2.055-1.102-2.055-1.102a.654.654 0 0 0-.37-.335.702.702 0 0 0-.512.012.65.65 0 0 0-.353.352.607.607 0 0 0 .013.486s.766 1.49 2.61 1.794v.904a.618.618 0 0 0 .193.454c.125.12.296.188.474.188.179 0 .35-.068.475-.188a.618.618 0 0 0 .192-.454v-.89c.566-.078 1.105-.257 1.563-.555.635-.413 1.104-1.11 1.104-1.933 0-.915-.478-1.645-1.09-2.104-.613-.46-1.334-.715-2.008-.957-.673-.242-1.303-.471-1.694-.726-.391-.254-.542-.435-.542-.857 0-.406.17-.662.521-.89.352-.23.9-.377 1.48-.377 1.63 0 2.055 1.102 2.055 1.102a.655.655 0 0 0 .37.335c.166.06.35.056.512-.012a.65.65 0 0 0 .353-.352.607.607 0 0 0-.013-.486s-.767-1.49-2.61-1.794V3.8a.617.617 0 0 0-.194-.459.685.685 0 0 0-.48-.188Z" fill="#fff"/></svg>