<svg width="21" height="13" fill="none" xmlns="http://www.w3.org/2000/svg"><path d="M19.36.5c-.907 0-1.641.746-1.641 1.667 0 .189.037.367.094.536l-3.999 3.499a1.61 1.61 0 0 0-1.017-.369c-.446 0-.85.182-1.145.476L8.52 4.715c-.061-.864-.763-1.548-1.63-1.548-.905 0-1.64.746-1.64 1.666 0 .252.06.489.157.703L2.214 9.277c-.18-.068-.37-.11-.573-.11C.735 9.167 0 9.913 0 10.833c0 .92.735 1.667 1.64 1.667.907 0 1.641-.746 1.641-1.667a1.68 1.68 0 0 0-.122-.626l3.246-3.79c.155.049.315.083.486.083.477 0 .903-.21 1.203-.542l3.064 1.561c.01.911.74 1.648 1.639 1.648.906 0 1.64-.747 1.64-1.667 0-.03-.006-.057-.008-.087l4.268-3.724c.203.091.426.144.662.144.907 0 1.641-.746 1.641-1.666C21 1.247 20.266.5 19.36.5Z" fill="#fff"/></svg>