<svg width="20" height="20" fill="none" xmlns="http://www.w3.org/2000/svg"><path d="M17 1H3a2 2 0 0 0-2 2v14a2 2 0 0 0 2 2h14a2 2 0 0 0 2-2V3a2 2 0 0 0-2-2Z" stroke="#F2F2F4" stroke-linecap="round" stroke-linejoin="round"/><rect x="1" y="1" width="6" height="18" rx="1" fill="#F2F2F4"/><path d="M17 1H3a2 2 0 0 0-2 2v14a2 2 0 0 0 2 2h14a2 2 0 0 0 2-2V3a2 2 0 0 0-2-2ZM7 1v18" stroke="#F2F2F4" stroke-linecap="round" stroke-linejoin="round"/><path d="M2 4h4M2 6h4M2 8h4" stroke="#070612" stroke-linecap="round" stroke-linejoin="round"/></svg>