<svg width="20" height="21" fill="none" xmlns="http://www.w3.org/2000/svg"><path opacity=".12" d="M1 6.07c0-1.68 0-2.52.327-3.161a3 3 0 0 1 1.311-1.312c.642-.326 1.482-.326 3.162-.326h8.4c1.68 0 2.52 0 3.162.326a3 3 0 0 1 1.311 1.312C19 3.55 19 4.39 19 6.07v5.4c0 1.68 0 2.52-.327 3.162a3 3 0 0 1-1.311 1.31c-.642.327-1.482.327-3.162.327h-2.516c-.624 0-.936 0-1.235.062a2.997 2.997 0 0 0-.761.267c-.272.139-.516.334-1.003.723L6.3 19.231c-.416.333-.624.499-.8.5a.5.5 0 0 1-.39-.189C5 19.405 5 19.14 5 18.606V16.27c-.93 0-1.395 0-1.776-.102a3 3 0 0 1-2.122-2.121C1 13.665 1 13.2 1 12.27v-6.2Z" fill="#F3EFF3"/><path d="M5.5 8.77h.01m4.49 0h.01m4.49 0h.01M5 16.27v2.336c0 .533 0 .8.11.936a.5.5 0 0 0 .39.188c.176 0 .384-.166.8-.5l2.385-1.908c.487-.39.731-.584 1.002-.723.241-.123.497-.213.762-.267.299-.062.61-.062 1.235-.062H14.2c1.68 0 2.52 0 3.162-.326a3 3 0 0 0 1.311-1.312C19 13.992 19 13.152 19 11.47v-5.4c0-1.68 0-2.52-.327-3.161a3 3 0 0 0-1.311-1.312c-.642-.326-1.482-.326-3.162-.326H5.8c-1.68 0-2.52 0-3.162.326A3 3 0 0 0 1.327 2.91C1 3.55 1 4.39 1 6.07v6.2c0 .93 0 1.394.102 1.776a3 3 0 0 0 2.122 2.121c.381.102.846.102 1.776.102Zm1-7.5a.5.5 0 1 1-1 0 .5.5 0 0 1 1 0Zm4.5 0a.5.5 0 1 1-1 0 .5.5 0 0 1 1 0Zm4.5 0a.5.5 0 1 1-1 0 .5.5 0 0 1 1 0Z" stroke="#F3EFF3" stroke-width="2" stroke-linecap="round" stroke-linejoin="round"/></svg>