<svg width="17" height="17" viewBox="0 0 17 17" fill="none" xmlns="http://www.w3.org/2000/svg">
<path d="M7.68842 15.8983C8.16156 16.2588 8.79643 16.2588 9.26956 15.8983C11.6342 14.0964 13.8986 12.0234 15.465 9.37059C16.2497 8.04157 16.5786 6.96677 16.708 6.08791C16.7603 5.77845 16.7876 5.4592 16.7876 5.13283C16.7876 2.29804 14.7266 0 12.1842 0C10.6648 0 9.31737 0.820718 8.47899 2.08624C7.64061 0.820718 6.29317 0 4.77381 0C2.23142 0 0.17041 2.29804 0.17041 5.13283C0.17041 5.4592 0.197729 5.77845 0.249957 6.08791C0.379336 6.96677 0.708272 8.04157 1.49302 9.37059C3.05943 12.0234 5.32382 14.0964 7.68842 15.8983Z" fill="#FBFBFB"/>
</svg>
