<svg width="20" height="17" fill="none" xmlns="http://www.w3.org/2000/svg"><path d="M12.132 14.154H8.177V9.686a.55.55 0 0 1 .586-.579h2.79a.55.55 0 0 1 .58.579v4.468Zm-8.745.205c0 .561.171 1.003.513 1.326.347.327.815.49 1.406.49h9.705c.586 0 1.05-.163 1.391-.49.347-.323.52-.765.52-1.326V9.173l-6.291-5.288c-.313-.263-.628-.263-.945 0L3.387 9.173v5.186ZM.867 7.694c0 .259.086.476.257.652.176.17.41.256.703.256.137 0 .269-.03.396-.088.127-.063.246-.141.359-.234l7.177-6.013a.62.62 0 0 1 .403-.169c.142 0 .278.056.41.169l7.163 6.013c.113.093.232.17.36.234a.934.934 0 0 0 .395.088c.278 0 .505-.08.68-.242.182-.16.272-.378.272-.651a.977.977 0 0 0-.374-.777L11.444.531C11.058.204 10.63.04 10.162.04c-.464 0-.891.164-1.282.49L1.25 6.94c-.254.214-.381.466-.381.754Zm13.646-3.977 2.483 2.073V1.988a.554.554 0 0 0-.154-.41.554.554 0 0 0-.41-.154h-1.348a.58.58 0 0 0-.418.154.554.554 0 0 0-.153.41v1.729Z" fill="#fff" fill-opacity=".8"/></svg>