<svg width="14" height="14" viewBox="0 0 14 14" fill="none" xmlns="http://www.w3.org/2000/svg">
<path d="M6.99968 1.16927C3.77801 1.16927 1.16634 3.78094 1.16634 7.0026C1.16634 10.2243 3.77801 12.8359 6.99967 12.8359C10.2213 12.8359 12.833 10.2243 12.833 7.0026C12.833 3.78094 10.2213 1.16927 6.99968 1.16927Z" fill="#C943A8"/>
<path d="M6.99967 9.33594L6.99968 7.0026M6.99968 4.66927L6.99384 4.66927M1.16634 7.0026C1.16634 3.78094 3.77801 1.16927 6.99968 1.16927C10.2213 1.16927 12.833 3.78094 12.833 7.0026C12.833 10.2243 10.2213 12.8359 6.99967 12.8359C3.77801 12.8359 1.16634 10.2243 1.16634 7.0026Z" stroke="white" stroke-width="1.5" stroke-linecap="round" stroke-linejoin="round"/>
</svg>
