<svg width="24" height="25" fill="none" xmlns="http://www.w3.org/2000/svg"><path opacity=".4" d="M17 9.5a1.99 1.99 0 0 0-.586-1.414A1.994 1.994 0 0 0 15 7.5" stroke="#fff" stroke-width="2" stroke-linecap="round" stroke-linejoin="round"/><path d="M21 9.5a6 6 0 0 1-6.807 5.946c-.434-.058-.651-.087-.789-.068a.852.852 0 0 0-.346.117c-.121.068-.24.187-.479.426L11 17.5H9v2H7v2H4.6c-.56 0-.84 0-1.054-.109a1 1 0 0 1-.437-.437C3 20.74 3 20.46 3 19.9v-1.737c0-.245 0-.367.028-.482a1 1 0 0 1 .12-.29c.061-.1.148-.187.32-.36l5.111-5.11c.239-.239.358-.358.426-.48a.853.853 0 0 0 .117-.345c.02-.138-.01-.355-.068-.789A6 6 0 1 1 21 9.5Z" stroke="#fff" stroke-width="2" stroke-linecap="round" stroke-linejoin="round"/></svg>