<svg width="91" height="92" fill="none" xmlns="http://www.w3.org/2000/svg"><path opacity=".15" fill-rule="evenodd" clip-rule="evenodd" d="M46.563 2.137C71.105 2.137 91 22.032 91 46.574c0 24.542-19.895 44.437-44.437 44.437-24.543 0-44.438-19.895-44.438-44.437 0-24.542 19.895-44.437 44.438-44.437Z" fill="#000"/><path d="M45.438 5.252c22.194 0 40.186 17.991 40.186 40.185 0 22.194-17.992 40.185-40.186 40.185S5.252 67.631 5.252 45.437c0-22.193 17.992-40.185 40.186-40.185Z" fill="#9C4DC1"/><path opacity=".3" fill-rule="evenodd" clip-rule="evenodd" d="M47.718 7.405c-21.912 0-39.676 17.763-39.676 39.676 0 12.9 6.161 24.358 15.698 31.604C12.73 71.517 5.444 59.109 5.444 44.992c0-22.194 17.992-40.185 40.186-40.185 14.118 0 26.527 7.286 33.695 18.296C72.078 13.567 60.62 7.405 47.718 7.405Z" fill="#000"/><path fill-rule="evenodd" clip-rule="evenodd" d="M45.438 1C20.895 1 1 20.895 1 45.437 1 69.98 20.895 89.874 45.438 89.874c24.542 0 44.438-19.895 44.438-44.437C89.876 20.895 69.98 1 45.438 1Zm0 83.819c-21.75 0-39.383-17.632-39.383-39.382 0-21.75 17.632-39.382 39.383-39.382 21.75 0 39.382 17.632 39.382 39.382 0 21.75-17.632 39.382-39.382 39.382Z" fill="#fff"/><path d="M45.438 1C20.895 1 1 20.895 1 45.437 1 69.98 20.895 89.874 45.438 89.874c24.542 0 44.438-19.895 44.438-44.437C89.876 20.895 69.98 1 45.438 1Zm0 83.819c-21.75 0-39.383-17.632-39.383-39.382 0-21.75 17.632-39.382 39.383-39.382 21.75 0 39.382 17.632 39.382 39.382 0 21.75-17.632 39.382-39.382 39.382Z" stroke="#EAEAEA" stroke-width=".169" stroke-miterlimit="10"/><path d="M32.376 46.053v5.645l-13.06-11.63v-5.645l13.06 11.63Z" fill="#83722C"/><path d="M71.56 34.423v5.644L58.5 51.697v-5.644l13.06-11.63Z" fill="#8E7C2F"/><path d="M72.454 34.159v5.644L58.947 51.83v-5.644l13.507-12.027ZM31.93 46.186v5.644L18.421 39.803v-5.644l13.507 12.027Z" fill="#8032A5"/><path d="M61.582 62.478v5.643L58.5 51.697v-5.644l3.082 16.425Z" fill="#7C7457"/><path d="M32.376 46.053v5.644l-3.082 16.424v-5.643l3.082-16.425Z" fill="#807859"/><path d="M61.582 62.478v5.643l-16.145-7.753v-5.644l16.145 7.754Z" fill="#8B792E"/><path d="M45.437 54.724v5.644l-16.143 7.753v-5.643l16.143-7.754Z" fill="#948031"/><path d="m45.437 17.084 8.025 14.855 18.098 2.484-13.06 11.63 3.081 16.425-16.145-7.754-16.142 7.754 3.082-16.425-13.06-11.63 18.05-2.395 8.07-14.944Z" fill="#D783FF"/><path d="M72.454 34.159 58.947 46.186l3.19 16.987-16.7-8.02-16.697 8.02 3.19-16.987-13.508-12.027L37.09 31.68l8.347-15.455 8.35 15.455 18.667 2.478ZM61.582 62.478 58.5 46.053l13.06-11.63-18.05-2.396-8.073-14.943-8.07 14.943-18.051 2.396 13.06 11.63-3.082 16.425 16.143-7.754 16.145 7.754Z" fill="#8032A5"/><path d="m45.436 55.153-16.697 8.02v5.645l16.697-8.021 16.7 8.02v-5.643l-16.7-8.02Z" fill="#8032A5"/><path d="m31.215 51.43 33.11-18.205-10.747-1.243-1.637-3.207-24.327 13.198 4.595 4.255-.994 5.203Z" fill="url(#a)"/><path opacity=".8" fill-rule="evenodd" clip-rule="evenodd" d="M54.694 32.957c-.695.578-.961 6.949-.961 6.949s-.464-6.46-1.142-6.938c-.678-.48-4.907-.989-4.907-.989s4.544-.498 5.037-1.077c.492-.58 1.012-8.18 1.012-8.18s.502 7.421 1.005 8.226c.502.805 7.011 1.031 7.011 1.031s-6.358.399-7.055.978ZM33.033 61.199c-.538.446-.744 5.372-.744 5.372s-.358-4.994-.882-5.364c-.524-.37-3.793-.764-3.793-.764s3.512-.384 3.893-.833c.38-.449.782-6.322.782-6.322s.389 5.736.777 6.358c.389.622 5.42.797 5.42.797s-4.915.308-5.453.756Z" fill="#fff"/><path d="m72.007 34.203-6.218-.833-34.875 19.918-1.017 5.863 42.11-24.949Z" fill="url(#b)"/><path opacity=".8" fill-rule="evenodd" clip-rule="evenodd" d="M59.521 47.688c-.337.28-.466 3.367-.466 3.367s-.225-3.13-.553-3.362c-.328-.232-2.377-.478-2.377-.478s2.201-.241 2.44-.522c.239-.282.49-3.962.49-3.962s.244 3.594.487 3.984c.244.39 3.396.5 3.396.5s-3.08.192-3.417.473ZM39.849 46.652c-.467.388-.645 4.662-.645 4.662s-.312-4.333-.766-4.654c-.455-.322-3.292-.663-3.292-.663s3.048-.334 3.379-.723c.33-.39.679-5.487.679-5.487s.337 4.978.674 5.518 4.703.692 4.703.692-4.265.267-4.732.655Z" fill="#fff"/><path opacity=".7" fill-rule="evenodd" clip-rule="evenodd" d="M25.827 40.85c-.589.49-.815 5.888-.815 5.888s-.393-5.473-.967-5.879c-.575-.406-4.158-.837-4.158-.837s3.85-.422 4.268-.913c.417-.492.857-6.931.857-6.931s.426 6.288.852 6.97c.426.681 5.94.874 5.94.874s-5.387.337-5.977.827Z" fill="#fff"/><path opacity=".8" fill-rule="evenodd" clip-rule="evenodd" d="M61.148 67.99c-.295.246-.407 2.949-.407 2.949s-.197-2.74-.485-2.943c-.287-.204-2.081-.42-2.081-.42s1.927-.21 2.136-.457c.21-.246.43-3.469.43-3.469s.213 3.148.426 3.489c.213.341 2.974.437 2.974.437s-2.698.169-2.993.415ZM43.134 21.517c-.295.244-.408 2.947-.408 2.947s-.197-2.74-.484-2.943c-.288-.203-2.082-.42-2.082-.42s1.928-.21 2.137-.456c.21-.247.43-3.47.43-3.47s.212 3.148.426 3.49c.213.341 2.973.437 2.973.437s-2.697.168-2.992.415ZM19.316 34.423c-.296.245-.408 2.948-.408 2.948s-.197-2.74-.485-2.943c-.287-.204-2.081-.42-2.081-.42s1.927-.21 2.136-.457c.21-.246.43-3.469.43-3.469s.213 3.148.426 3.49c.213.34 2.974.436 2.974.436s-2.697.17-2.992.415ZM65.02 55.52c-.338.28-.467 3.366-.467 3.366s-.225-3.129-.553-3.361c-.328-.233-2.377-.48-2.377-.48s2.201-.24 2.44-.521c.239-.281.49-3.962.49-3.962s.244 3.595.487 3.985c.244.39 3.396.499 3.396.499s-3.08.193-3.417.474ZM23.487 49.406c-.269.223-.371 2.68-.371 2.68s-.18-2.491-.44-2.676c-.262-.185-1.893-.381-1.893-.381s1.752-.192 1.943-.416c.19-.224.39-3.154.39-3.154s.194 2.862.388 3.172c.193.31 2.703.398 2.703.398s-2.452.153-2.72.377ZM49.846 18.14c-.268.222-.37 2.68-.37 2.68s-.18-2.492-.441-2.677c-.262-.185-1.893-.38-1.893-.38s1.752-.193 1.943-.416c.19-.224.39-3.154.39-3.154s.194 2.861.388 3.172c.194.31 2.703.397 2.703.397s-2.452.154-2.72.377ZM47.687 63.422c-.214.177-.296 2.136-.296 2.136s-.143-1.986-.351-2.133c-.208-.147-1.508-.304-1.508-.304s1.396-.153 1.548-.33c.151-.18.31-2.514.31-2.514s.155 2.28.31 2.527c.154.248 2.154.317 2.154.317s-1.954.123-2.167.3Z" fill="#fff"/><defs><linearGradient id="a" x1="36.292" y1="54.362" x2="52.453" y2="26.37" gradientUnits="userSpaceOnUse"><stop stop-color="#fff" stop-opacity=".1"/><stop offset=".996" stop-color="#fff" stop-opacity=".4"/></linearGradient><linearGradient id="b" x1="39.399" y1="64.637" x2="60.73" y2="27.691" gradientUnits="userSpaceOnUse"><stop stop-color="#fff" stop-opacity=".1"/><stop offset="1" stop-color="#fff" stop-opacity=".3"/></linearGradient></defs></svg>