<svg width="17" height="17" fill="none" xmlns="http://www.w3.org/2000/svg"><path opacity=".4" d="M4.958 7.083V5.667a3.542 3.542 0 0 1 6.79-1.417" stroke="#C943A8" stroke-width="2" stroke-linecap="round" stroke-linejoin="round"/><path d="M8.5 10.271v1.417m-2.266 3.187h4.533c1.19 0 1.785 0 2.24-.232.4-.203.725-.528.928-.928.232-.455.232-1.05.232-2.24v-.992c0-1.19 0-1.785-.232-2.24a2.125 2.125 0 0 0-.928-.928c-.455-.232-1.05-.232-2.24-.232H6.234c-1.19 0-1.786 0-2.24.232-.4.204-.725.529-.929.929-.232.454-.232 1.05-.232 2.24v.991c0 1.19 0 1.785.232 2.24.204.4.529.725.929.928.454.232 1.05.232 2.24.232Z" stroke="#C943A8" stroke-width="1.6" stroke-linecap="round" stroke-linejoin="round"/></svg>