<svg width="16" height="17" viewBox="0 0 16 17" fill="none" xmlns="http://www.w3.org/2000/svg">
<path d="M12.375 6.83333V5.16667C12.375 2.86548 10.4162 1 8 1C5.58375 1 3.625 2.86548 3.625 5.16667V6.83333M8 10.5833V12.25M5.2 16H10.8C12.2701 16 13.0052 16 13.5667 15.7275C14.0607 15.4878 14.4622 15.1054 14.7139 14.635C15 14.1002 15 13.4001 15 12V10.8333C15 9.4332 15 8.73314 14.7139 8.19836C14.4622 7.72795 14.0607 7.3455 13.5667 7.10582C13.0052 6.83333 12.2701 6.83333 10.8 6.83333H5.2C3.72986 6.83333 2.99479 6.83333 2.43327 7.10582C1.93935 7.3455 1.53778 7.72795 1.28611 8.19836C1 8.73314 1 9.4332 1 10.8333V12C1 13.4001 1 14.1002 1.28611 14.635C1.53778 15.1054 1.93935 15.4878 2.43327 15.7275C2.99479 16 3.72986 16 5.2 16Z" stroke="#B52A6F" stroke-linecap="round" stroke-linejoin="round"/>
</svg>
