<svg width="30" height="30" viewBox="0 0 30 30" fill="none" xmlns="http://www.w3.org/2000/svg">
<path opacity="0.4" d="M25 12.2833C25 11.6483 25 11.3308 24.8802 11.1837C24.7763 11.0562 24.6203 10.9885 24.4608 11.0016C24.2769 11.0168 24.0627 11.2413 23.6343 11.6903L20 15.5L23.6343 19.3096C24.0627 19.7587 24.2769 19.9832 24.4608 19.9984C24.6203 20.0115 24.7763 19.9438 24.8802 19.8162C25 19.6692 25 19.3517 25 18.7167V12.2833Z" stroke="#FF51A8" stroke-width="1.5" stroke-linecap="round" stroke-linejoin="round"/>
<path d="M4 13.1429C4 11.3427 4 10.4426 4.34878 9.75503C4.65557 9.15022 5.14511 8.6585 5.74723 8.35034C6.43174 8 7.32783 8 9.12 8H14.88C16.6722 8 17.5682 8 18.2528 8.35034C18.8549 8.6585 19.3444 9.15022 19.6512 9.75503C20 10.4426 20 11.3427 20 13.1429V17.8571C20 19.6574 20 20.5574 19.6512 21.245C19.3444 21.8498 18.8549 22.3415 18.2528 22.6496C17.5682 23 16.6722 23 14.88 23H9.12C7.32783 23 6.43174 23 5.74723 22.6496C5.14511 22.3415 4.65557 21.8498 4.34878 21.245C4 20.5574 4 19.6574 4 17.8571V13.1429Z" stroke="#FF51A8" stroke-width="1.5" stroke-linecap="round" stroke-linejoin="round"/>
</svg>
