<svg width="20" height="20" fill="none" xmlns="http://www.w3.org/2000/svg"><path opacity=".4" d="M7.5 5.833H3.833c-.466 0-.7 0-.878.09a.833.833 0 0 0-.364.365c-.091.178-.091.412-.091.878v9c0 .467 0 .7.09.879.08.156.208.284.365.364.178.09.412.09.878.09H7.5m5-8.333h3.667c.466 0 .7 0 .878.091.157.08.284.208.364.364.091.179.091.412.091.879v5.666c0 .467 0 .7-.09.879a.833.833 0 0 1-.365.364c-.178.09-.412.09-.878.09H12.5" stroke="#BF7AF0" stroke-width="2" stroke-linecap="round" stroke-linejoin="round"/><path d="M12.5 3.833c0-.466 0-.7-.09-.878a.834.834 0 0 0-.365-.364c-.178-.091-.412-.091-.878-.091H8.833c-.466 0-.7 0-.878.09a.833.833 0 0 0-.364.365c-.091.178-.091.412-.091.878V17.5h5V3.833Z" stroke="#BF7AF0" stroke-width="2" stroke-linecap="round" stroke-linejoin="round"/></svg>