<svg width="25" height="24" fill="none" xmlns="http://www.w3.org/2000/svg"><rect width="24.039" height="24" rx="12" fill="#FFFEFF" fill-opacity=".15"/><path fill-rule="evenodd" clip-rule="evenodd" d="M16.79 9.813a.5.5 0 0 1 .459.539c-.004.045-.366 4.52-.574 6.396-.13 1.165-.898 1.873-2.06 1.895a128.185 128.185 0 0 1-5.24-.004c-1.114-.022-1.885-.745-2.011-1.886-.21-1.894-.57-6.356-.573-6.401a.5.5 0 0 1 .458-.539c.271-.007.517.184.539.458.002.03.149 1.852.309 3.655l.032.36c.08.896.162 1.757.229 2.357.071.648.421.983 1.038.996 1.667.035 3.368.037 5.201.004.656-.013 1.01-.341 1.084-1.005.207-1.863.567-6.321.57-6.367a.51.51 0 0 1 .539-.458Zm-3.36-4.48c.612 0 1.15.413 1.308 1.004l.17.841a.6.6 0 0 0 .576.481h2.188a.5.5 0 0 1 0 1H6.367a.5.5 0 0 1 0-1h2.187l.067-.005a.601.601 0 0 0 .51-.476l.163-.81a1.362 1.362 0 0 1 1.314-1.035h2.822Zm0 1h-2.822c-.16 0-.3.108-.341.262l-.155.78c-.02.099-.049.194-.086.285h3.987a1.583 1.583 0 0 1-.086-.285l-.162-.811c-.034-.123-.175-.23-.335-.23Z" fill="#fff"/></svg>