<svg width="20" height="20" fill="none" xmlns="http://www.w3.org/2000/svg"><path opacity=".12" d="M9.418 18.013c.185.107.277.161.407.189a.946.946 0 0 0 .35 0c.13-.028.222-.082.407-.19 1.623-.946 6.085-3.921 6.085-8.012V6.015c0-.666 0-1-.11-1.286a1.667 1.667 0 0 0-.455-.657c-.23-.203-.542-.32-1.166-.554l-4.468-1.675a1.768 1.768 0 0 0-.349-.11.833.833 0 0 0-.238 0c-.09.012-.176.045-.35.11L5.065 3.518c-.624.234-.936.351-1.166.554-.203.179-.36.404-.456.657-.109.287-.109.62-.109 1.286V10c0 4.09 4.462 7.066 6.085 8.013Z" fill="#BF7AF0"/><path d="M7.678 12.084c.26.495.78.833 1.378.833h1.777a1.667 1.667 0 0 0 0-3.333H9.167a1.667 1.667 0 1 1 0-3.334h1.777c.599 0 1.118.338 1.378.834M10 5v1.25m0 6.667v1.25M16.667 10c0 4.09-4.462 7.066-6.085 8.013-.185.107-.277.161-.407.189a.946.946 0 0 1-.35 0c-.13-.028-.222-.082-.407-.19-1.623-.946-6.085-3.921-6.085-8.012V6.015c0-.666 0-1 .11-1.286a1.66 1.66 0 0 1 .455-.657c.23-.203.542-.32 1.166-.554l4.468-1.675c.173-.065.26-.098.349-.11a.833.833 0 0 1 .238 0c.09.012.176.045.35.11l4.467 1.675c.624.234.936.351 1.166.554.203.179.36.404.456.657.109.287.109.62.109 1.286V10Z" stroke="#BF7AF0" stroke-width="1.5" stroke-linecap="round" stroke-linejoin="round"/></svg>