<svg width="23" height="19" fill="none" xmlns="http://www.w3.org/2000/svg"><path d="M21.147 17.484h.001a.508.508 0 0 0 .504-.509V1.853a.508.508 0 0 0-.504-.508H1.852a.508.508 0 0 0-.508.508v15.122c0 .281.227.509.508.509h19.294Zm0 1.244H1.853A1.753 1.753 0 0 1 .1 16.975V1.853A1.753 1.753 0 0 1 1.853.1h19.294A1.753 1.753 0 0 1 22.9 1.853v15.122a1.753 1.753 0 0 1-1.753 1.753Z" fill="#BF7AF0"/><path d="M14.172 13.817 9.536 7.524a.61.61 0 0 0-1.004.029l5.64 6.264Zm0 0-.01.009.07.072.08-.059-.008-.01-.132-.012Zm-10.335.937Zm0 0Zm.527.943ZM17.98 5.461a2.042 2.042 0 1 1-4.083 0 2.042 2.042 0 0 1 4.083 0Z" fill="#BF7AF0"/></svg>