<svg width="23" height="20" viewBox="0 0 23 20" fill="none" xmlns="http://www.w3.org/2000/svg">
<path d="M21.1472 18.0696L21.1481 18.0696C21.4269 18.0671 21.6517 17.8403 21.6517 17.5614V2.43888C21.6517 2.15995 21.4269 1.93315 21.1481 1.93067H21.1472H1.85291C1.57233 1.93067 1.3447 2.15811 1.3447 2.43888V17.5614C1.3447 17.8421 1.57231 18.0696 1.85291 18.0696L21.1472 18.0696ZM21.1472 19.3143H1.85291C1.38798 19.3143 0.942176 19.1296 0.613417 18.8009C0.284765 18.4721 0.1 18.0263 0.1 17.5613V2.43885C0.1 1.97393 0.284753 1.52811 0.613416 1.19933C0.942176 0.870575 1.38798 0.685938 1.85291 0.685938H21.1472C21.612 0.685938 22.0578 0.870567 22.3866 1.19934C22.7154 1.5281 22.9 1.97391 22.9 2.43885V17.5613C22.9 18.0263 22.7154 18.4721 22.3866 18.8009C22.0578 19.1296 21.612 19.3143 21.1472 19.3143Z" fill="#BF7AF0" stroke="#1C151E" stroke-width="0.2"/>
<path d="M14.1711 14.4032L9.53555 8.10962V8.10949C9.41695 7.94794 9.22639 7.85483 9.02597 7.86061C8.82556 7.86638 8.64077 7.97027 8.5315 8.13851L14.1711 14.4032ZM14.1711 14.4032L14.1619 14.4119L14.2309 14.4843L14.3114 14.425L14.3039 14.4149L14.1711 14.4032ZM3.83632 15.3402L3.83694 15.3408L3.83622 15.3404C3.83625 15.3403 3.83628 15.3403 3.83632 15.3402ZM3.83632 15.3402L3.83628 15.3402L3.83619 15.3403L3.83632 15.3402ZM4.36364 16.283L4.36364 16.2829L4.36364 16.283Z" fill="#BF7AF0" stroke="#1C151E" stroke-width="0.2"/>
<path d="M17.981 6.0471C17.981 7.17469 17.0668 8.08892 15.9392 8.08892C14.8115 8.08892 13.8974 7.17469 13.8974 6.0471C13.8974 4.91937 14.8115 4.00527 15.9392 4.00527C17.0668 4.00527 17.981 4.9194 17.981 6.0471Z" fill="#BF7AF0" stroke="#1C151E" stroke-width="0.2"/>
</svg>
