<svg width="48" height="48" viewBox="0 0 48 48" fill="none" xmlns="http://www.w3.org/2000/svg">
<path opacity="0.12" d="M19.0002 17.93C19.0002 16.9754 19.0002 16.4981 19.1997 16.2317C19.3736 15.9995 19.6397 15.8542 19.929 15.8335C20.261 15.8098 20.6624 16.0679 21.4654 16.5841L30.9066 22.6535C31.6034 23.1013 31.9518 23.3253 32.072 23.6101C32.1772 23.8589 32.1772 24.1397 32.072 24.3885C31.9518 24.6733 31.6034 24.8973 30.9066 25.3451L21.4654 31.4145C20.6624 31.9307 20.261 32.1889 19.929 32.1651C19.6397 32.1445 19.3736 31.9991 19.1997 31.7669C19.0002 31.5005 19.0002 31.0233 19.0002 30.0687V17.93Z" fill="white"/>
<path d="M24.0002 44C35.0458 44 44.0002 35.0456 44.0002 24C44.0002 12.9543 35.0458 4 24.0002 4C12.9545 4 4.00024 12.9543 4.00024 24C4.00024 35.0456 12.9545 44 24.0002 44Z" stroke="white" stroke-width="4" stroke-linecap="round" stroke-linejoin="round"/>
<path d="M19.0002 17.93C19.0002 16.9754 19.0002 16.4981 19.1997 16.2317C19.3736 15.9995 19.6397 15.8542 19.929 15.8335C20.261 15.8098 20.6624 16.0679 21.4654 16.5841L30.9066 22.6535C31.6034 23.1013 31.9518 23.3253 32.072 23.6101C32.1772 23.8589 32.1772 24.1397 32.072 24.3885C31.9518 24.6733 31.6034 24.8973 30.9066 25.3451L21.4654 31.4145C20.6624 31.9307 20.261 32.1889 19.929 32.1651C19.6397 32.1445 19.3736 31.9991 19.1997 31.7669C19.0002 31.5005 19.0002 31.0233 19.0002 30.0687V17.93Z" stroke="white" stroke-width="4" stroke-linecap="round" stroke-linejoin="round"/>
</svg>
