<svg width="30" height="30" viewBox="0 0 30 30" fill="none" xmlns="http://www.w3.org/2000/svg">
    <path opacity="0.4" d="M3.75 15H26.25M15 3.75V26.25" stroke-width="2" stroke-linecap="round" stroke-linejoin="round"/>
    <path d="M20.25 3.75H9.75C7.6498 3.75 6.5997 3.75 5.79754 4.15873C5.09193 4.51825 4.51825 5.09193 4.15873 5.79754C3.75 6.5997 3.75 7.6498 3.75 9.75V20.25C3.75 22.3503 3.75 23.4002 4.15873 24.2025C4.51825 24.9081 5.09193 25.4818 5.79754 25.8413C6.5997 26.25 7.6498 26.25 9.75 26.25H20.25C22.3503 26.25 23.4002 26.25 24.2025 25.8413C24.9081 25.4818 25.4818 24.9081 25.8413 24.2025C26.25 23.4002 26.25 22.3503 26.25 20.25V9.75C26.25 7.6498 26.25 6.5997 25.8413 5.79754C25.4818 5.09193 24.9081 4.51825 24.2025 4.15873C23.4002 3.75 22.3503 3.75 20.25 3.75Z" stroke-width="2" stroke-linecap="round" stroke-linejoin="round"/>
</svg>

