<svg width="26" height="26" fill="none" xmlns="http://www.w3.org/2000/svg"><path opacity=".12" d="M12.223 3.741c.25-.506.374-.759.544-.84a.542.542 0 0 1 .466 0c.17.081.294.334.544.84l2.37 4.8c.073.148.11.223.164.281a.542.542 0 0 0 .168.123c.072.033.154.045.319.069l5.299.775c.558.081.837.122.966.258a.542.542 0 0 1 .144.444c-.025.186-.227.383-.63.776L18.742 15c-.12.117-.179.175-.218.244a.54.54 0 0 0-.064.198c-.01.079.005.161.033.325l.904 5.274c.096.556.143.834.054.999a.542.542 0 0 1-.378.274c-.184.034-.434-.097-.934-.36l-4.737-2.491c-.147-.078-.221-.117-.299-.132a.537.537 0 0 0-.208 0c-.078.015-.152.054-.3.132L7.86 21.954c-.499.263-.749.394-.933.36a.542.542 0 0 1-.378-.274c-.09-.165-.041-.443.054-1l.904-5.272c.028-.165.043-.247.033-.326a.541.541 0 0 0-.064-.198c-.039-.07-.099-.127-.218-.244l-3.833-3.733c-.404-.393-.606-.59-.63-.776a.541.541 0 0 1 .143-.444c.13-.136.408-.177.966-.258l5.3-.775c.164-.024.246-.036.318-.07a.542.542 0 0 0 .169-.122c.053-.058.09-.133.164-.282l2.369-4.799Z" fill="#fff"/><path d="M12.223 3.741c.25-.506.374-.759.544-.84a.542.542 0 0 1 .466 0c.17.081.294.334.544.84l2.37 4.8c.073.148.11.223.164.281a.542.542 0 0 0 .168.123c.072.033.154.045.319.069l5.299.775c.558.081.837.122.966.258a.542.542 0 0 1 .144.444c-.025.186-.227.383-.63.776L18.742 15c-.12.117-.179.175-.218.244a.54.54 0 0 0-.064.198c-.01.079.005.161.033.325l.904 5.274c.096.556.143.834.054.999a.542.542 0 0 1-.378.274c-.184.034-.434-.097-.934-.36l-4.737-2.491c-.147-.078-.221-.117-.299-.132a.537.537 0 0 0-.208 0c-.078.015-.152.054-.3.132L7.86 21.954c-.499.263-.749.394-.933.36a.542.542 0 0 1-.378-.274c-.09-.165-.041-.443.054-1l.904-5.272c.028-.165.043-.247.033-.326a.541.541 0 0 0-.064-.198c-.039-.07-.099-.127-.218-.244l-3.833-3.733c-.404-.393-.606-.59-.63-.776a.541.541 0 0 1 .143-.444c.13-.136.408-.177.966-.258l5.3-.775c.164-.024.246-.036.318-.07a.542.542 0 0 0 .169-.122c.053-.058.09-.133.164-.282l2.369-4.799Z" stroke="#fff" stroke-width="2" stroke-linecap="round" stroke-linejoin="round"/></svg>