<svg width="24" height="24" viewBox="0 0 24 24" fill="none" xmlns="http://www.w3.org/2000/svg">
  <g clip-path="url(#clip0_1376_12485)">
    <path opacity="0.12" d="M12 22C17.5228 22 22 17.5228 22 12C22 6.47715 17.5228 2 12 2C6.47715 2 2 6.47715 2 12C2 17.5228 6.47715 22 12 22Z" fill="white" />
    <path opacity="0.4" d="M12 2V22" stroke="white" stroke-width="2" stroke-linecap="round" stroke-linejoin="round" />
    <path d="M6 16C6 18.2091 7.79086 20 10 20H14C16.2091 20 18 18.2091 18 16C18 13.7909 16.2091 12 14 12H10C7.79086 12 6 10.2091 6 8C6 5.79086 7.79086 4 10 4H14C16.2091 4 18 5.79086 18 8" stroke="white" stroke-width="2" stroke-linecap="round" stroke-linejoin="round" />
  </g>
  <defs>
    <clipPath id="clip0_1376_12485">
      <rect width="24" height="24" fill="white" />
    </clipPath>
  </defs>
</svg>