<svg width="18" height="17" fill="none" xmlns="http://www.w3.org/2000/svg"><path d="M3.885 16.893c.352 0 .801-.098 1.348-.293a12.842 12.842 0 0 0 1.736-.784c.61-.322 1.189-.68 1.736-1.076 1.06.005 2.053-.108 2.98-.337a10.08 10.08 0 0 0 2.527-.982 8.109 8.109 0 0 0 1.963-1.523c.547-.59.97-1.245 1.267-1.963.298-.718.447-1.48.447-2.285a5.84 5.84 0 0 0-.681-2.769 7.121 7.121 0 0 0-1.882-2.27 9.187 9.187 0 0 0-2.806-1.524C11.46.721 10.32.538 9.1.538c-1.22 0-2.363.183-3.428.55A9.205 9.205 0 0 0 2.875 2.61 7.251 7.251 0 0 0 .992 4.88a5.838 5.838 0 0 0-.681 2.77c0 .8.151 1.567.454 2.3.303.727.73 1.389 1.282 1.985a7.346 7.346 0 0 0 1.955 1.494c-.097.17-.21.361-.336.571a12.5 12.5 0 0 1-.381.6 9.18 9.18 0 0 1-.345.499c-.195.263-.28.534-.256.813.024.278.142.51.352.695.21.19.493.286.85.286Zm1.062-1.956c-.073.025-.122.023-.146-.007-.02-.024-.005-.068.044-.132.156-.195.346-.444.571-.747.225-.303.413-.59.564-.864.122-.23.151-.435.088-.615-.059-.186-.205-.337-.44-.454a7.463 7.463 0 0 1-1.83-1.194A5.128 5.128 0 0 1 2.64 9.4a3.98 3.98 0 0 1-.403-1.75c0-.718.176-1.39.528-2.014a5.46 5.46 0 0 1 1.472-1.648 7.3 7.3 0 0 1 2.19-1.12A8.493 8.493 0 0 1 9.1 2.456c.952 0 1.843.137 2.673.41.83.269 1.558.642 2.183 1.12a5.333 5.333 0 0 1 1.472 1.649c.357.625.535 1.296.535 2.014a4.02 4.02 0 0 1-.535 2.014 5.332 5.332 0 0 1-1.472 1.648 7.429 7.429 0 0 1-2.183 1.12 8.634 8.634 0 0 1-2.673.403h-.212a4.332 4.332 0 0 0-.264-.007c-.161 0-.308.024-.44.073a1.58 1.58 0 0 0-.432.264 18.661 18.661 0 0 1-2 1.34c-.331.2-.6.345-.805.433Z" fill="#fff" fill-opacity=".8"/></svg>