<svg width="30" height="30" viewBox="0 0 30 30" fill="none" xmlns="http://www.w3.org/2000/svg">
<path opacity="0.4" d="M6 14.75H23.5M14.75 6V23.5" stroke="#FF51A8" stroke-width="1.5" stroke-linecap="round" stroke-linejoin="round"/>
<path d="M18.8333 6H10.6667C9.03318 6 8.21643 6 7.59253 6.3179C7.04372 6.59753 6.59753 7.04372 6.3179 7.59253C6 8.21643 6 9.03318 6 10.6667V18.8333C6 20.4669 6 21.2835 6.3179 21.9075C6.59753 22.4563 7.04372 22.9025 7.59253 23.1821C8.21643 23.5 9.03318 23.5 10.6667 23.5H18.8333C20.4669 23.5 21.2835 23.5 21.9075 23.1821C22.4563 22.9025 22.9025 22.4563 23.1821 21.9075C23.5 21.2835 23.5 20.4669 23.5 18.8333V10.6667C23.5 9.03318 23.5 8.21643 23.1821 7.59253C22.9025 7.04372 22.4563 6.59753 21.9075 6.3179C21.2835 6 20.4669 6 18.8333 6Z" stroke="#FF51A8" stroke-width="1.5" stroke-linecap="round" stroke-linejoin="round"/>
</svg>
