<svg width="40" height="40" fill="none" xmlns="http://www.w3.org/2000/svg"><path opacity=".4" d="M30 15a5 5 0 1 0 0-10 5 5 0 0 0 0 10Z" stroke="#fff" stroke-width="3.333" stroke-linecap="round" stroke-linejoin="round"/><path d="M31.667 35h1.684c1.619 0 2.428 0 2.874-.337.389-.294.63-.744.658-1.23.033-.559-.415-1.232-1.313-2.579l-5.018-7.526c-.741-1.113-1.112-1.669-1.58-1.863a1.667 1.667 0 0 0-1.277 0c-.467.194-.838.75-1.58 1.863l-1.24 1.86M31.666 35 18.859 16.5c-.736-1.064-1.104-1.596-1.564-1.783a1.667 1.667 0 0 0-1.256 0c-.46.187-.828.72-1.565 1.783l-9.91 14.316c-.938 1.355-1.408 2.033-1.38 2.596.022.491.261.947.652 1.245.448.343 1.272.343 2.92.343h24.911Z" stroke="#fff" stroke-width="3.333" stroke-linecap="round" stroke-linejoin="round"/></svg>