<svg width="34" height="34" viewBox="0 0 34 34" fill="none" xmlns="http://www.w3.org/2000/svg">
<path d="M34 14.7152C34 2.59723 31.4028 0 19.2848 0H14.7152C2.59723 0 0 2.59723 0 14.7152V19.2848C0 31.4028 2.59723 34 14.7152 34H19.2848C31.4028 34 34 31.4028 34 19.2848V14.7152Z" fill="white"/>
<path d="M25.4886 8L18.478 13.2068L19.7745 10.1349L25.4886 8Z" fill="#E2761B" stroke="#E2761B" stroke-width="0.070458" stroke-linecap="round" stroke-linejoin="round"/>
<path d="M9.30444 8L16.2586 13.2562L15.0256 10.1349L9.30444 8Z" fill="#E4761B" stroke="#E4761B" stroke-width="0.070458" stroke-linecap="round" stroke-linejoin="round"/>
<path d="M22.9661 20.0703L21.099 22.9309L25.094 24.0301L26.2424 20.1337L22.9661 20.0703Z" fill="#E4761B" stroke="#E4761B" stroke-width="0.070458" stroke-linecap="round" stroke-linejoin="round"/>
<path d="M8.56458 20.1337L9.70599 24.0301L13.701 22.9309L11.8338 20.0703L8.56458 20.1337Z" fill="#E4761B" stroke="#E4761B" stroke-width="0.070458" stroke-linecap="round" stroke-linejoin="round"/>
<path d="M13.4755 15.2351L12.3623 16.9191L16.3291 17.0952L16.1882 12.8325L13.4755 15.2351Z" fill="#E4761B" stroke="#E4761B" stroke-width="0.070458" stroke-linecap="round" stroke-linejoin="round"/>
<path d="M21.3175 15.2361L18.5696 12.7842L18.478 17.0962L22.4378 16.9201L21.3175 15.2361Z" fill="#E4761B" stroke="#E4761B" stroke-width="0.070458" stroke-linecap="round" stroke-linejoin="round"/>
<path d="M13.7009 22.9299L16.0824 21.7673L14.025 20.1609L13.7009 22.9299Z" fill="#E4761B" stroke="#E4761B" stroke-width="0.070458" stroke-linecap="round" stroke-linejoin="round"/>
<path d="M18.7106 21.7673L21.0991 22.9299L20.7679 20.1609L18.7106 21.7673Z" fill="#E4761B" stroke="#E4761B" stroke-width="0.070458" stroke-linecap="round" stroke-linejoin="round"/>
<path d="M21.0991 22.9306L18.7106 21.7681L18.9008 23.3252L18.8797 23.9804L21.0991 22.9306Z" fill="#D7C1B3" stroke="#D7C1B3" stroke-width="0.070458" stroke-linecap="round" stroke-linejoin="round"/>
<path d="M13.701 22.9306L15.9205 23.9804L15.9064 23.3252L16.0825 21.7681L13.701 22.9306Z" fill="#D7C1B3" stroke="#D7C1B3" stroke-width="0.070458" stroke-linecap="round" stroke-linejoin="round"/>
<path d="M15.9555 19.1332L13.9686 18.5484L15.3707 17.9072L15.9555 19.1332Z" fill="#233447" stroke="#233447" stroke-width="0.070458" stroke-linecap="round" stroke-linejoin="round"/>
<path d="M18.8374 19.1332L19.4222 17.9072L20.8314 18.5484L18.8374 19.1332Z" fill="#233447" stroke="#233447" stroke-width="0.070458" stroke-linecap="round" stroke-linejoin="round"/>
<path d="M13.701 22.9304L14.0392 20.0698L11.8339 20.1332L13.701 22.9304Z" fill="#CD6116" stroke="#CD6116" stroke-width="0.070458" stroke-linecap="round" stroke-linejoin="round"/>
<path d="M20.7609 20.0698L21.0991 22.9304L22.9662 20.1332L20.7609 20.0698Z" fill="#CD6116" stroke="#CD6116" stroke-width="0.070458" stroke-linecap="round" stroke-linejoin="round"/>
<path d="M22.4378 16.9192L18.478 17.0953L18.8444 19.1316L19.4292 17.9056L20.8384 18.5468L22.4378 16.9192Z" fill="#CD6116" stroke="#CD6116" stroke-width="0.070458" stroke-linecap="round" stroke-linejoin="round"/>
<path d="M13.9687 18.5468L15.3779 17.9056L15.9557 19.1316L16.3291 17.0953L12.3623 16.9192L13.9687 18.5468Z" fill="#CD6116" stroke="#CD6116" stroke-width="0.070458" stroke-linecap="round" stroke-linejoin="round"/>
<path d="M12.3624 16.9192L14.0252 20.1603L13.9689 18.5468L12.3624 16.9192Z" fill="#E4751F" stroke="#E4751F" stroke-width="0.070458" stroke-linecap="round" stroke-linejoin="round"/>
<path d="M20.8385 18.5468L20.7681 20.1603L22.4379 16.9192L20.8385 18.5468Z" fill="#E4751F" stroke="#E4751F" stroke-width="0.070458" stroke-linecap="round" stroke-linejoin="round"/>
<path d="M16.3292 17.0947L15.9558 19.131L16.4208 21.5336L16.5265 18.37L16.3292 17.0947Z" fill="#E4751F" stroke="#E4751F" stroke-width="0.070458" stroke-linecap="round" stroke-linejoin="round"/>
<path d="M18.4782 17.0947L18.288 18.363L18.3725 21.5336L18.8446 19.131L18.4782 17.0947Z" fill="#E4751F" stroke="#E4751F" stroke-width="0.070458" stroke-linecap="round" stroke-linejoin="round"/>
<path d="M18.8445 19.1319L18.3724 21.5345L18.7106 21.767L20.768 20.1606L20.8385 18.5471L18.8445 19.1319Z" fill="#F6851B" stroke="#F6851B" stroke-width="0.070458" stroke-linecap="round" stroke-linejoin="round"/>
<path d="M13.9686 18.5471L14.025 20.1606L16.0824 21.767L16.4206 21.5345L15.9555 19.1319L13.9686 18.5471Z" fill="#F6851B" stroke="#F6851B" stroke-width="0.070458" stroke-linecap="round" stroke-linejoin="round"/>
<path d="M18.8796 23.9802L18.9007 23.325L18.7246 23.17H16.0683L15.9063 23.325L15.9204 23.9802L13.7009 22.9304L14.476 23.5645L16.0472 24.6566H18.7457L20.324 23.5645L21.099 22.9304L18.8796 23.9802Z" fill="#C0AD9E" stroke="#C0AD9E" stroke-width="0.070458" stroke-linecap="round" stroke-linejoin="round"/>
<path d="M18.7106 21.7669L18.3724 21.5344H16.4207L16.0825 21.7669L15.9064 23.3241L16.0684 23.169H18.7247L18.9008 23.3241L18.7106 21.7669Z" fill="#161616" stroke="#161616" stroke-width="0.070458" stroke-linecap="round" stroke-linejoin="round"/>
<path d="M25.7846 13.545L26.3834 10.6704L25.4886 8L18.7106 13.0307L21.3175 15.236L25.0025 16.314L25.8198 15.3629L25.4675 15.1092L26.0312 14.5949L25.5943 14.2567L26.158 13.8269L25.7846 13.545Z" fill="#763D16" stroke="#763D16" stroke-width="0.070458" stroke-linecap="round" stroke-linejoin="round"/>
<path d="M8.41663 10.6704L9.01552 13.545L8.63505 13.8269L9.19871 14.2567L8.76892 14.5949L9.33258 15.1092L8.98029 15.3629L9.79056 16.314L13.4755 15.236L16.0825 13.0307L9.3044 8L8.41663 10.6704Z" fill="#763D16" stroke="#763D16" stroke-width="0.070458" stroke-linecap="round" stroke-linejoin="round"/>
<path d="M25.0025 16.3141L21.3175 15.2361L22.4378 16.92L20.7679 20.1611L22.9662 20.1329H26.2425L25.0025 16.3141Z" fill="#F6851B" stroke="#F6851B" stroke-width="0.070458" stroke-linecap="round" stroke-linejoin="round"/>
<path d="M13.4755 15.2361L9.79054 16.3141L8.56458 20.1329H11.8338L14.0251 20.1611L12.3623 16.92L13.4755 15.2361Z" fill="#F6851B" stroke="#F6851B" stroke-width="0.070458" stroke-linecap="round" stroke-linejoin="round"/>
<path d="M18.4781 17.097L18.7106 13.0316L19.7815 10.1357H15.0256L16.0825 13.0316L16.3291 17.097L16.4137 18.3793L16.4207 21.5358H18.3724L18.3865 18.3793L18.4781 17.097Z" fill="#F6851B" stroke="#F6851B" stroke-width="0.070458" stroke-linecap="round" stroke-linejoin="round"/>
</svg>
