<svg viewBox="0 0 34 34" fill="none" xmlns="http://www.w3.org/2000/svg"><path d="M34 14.715C34 2.597 31.403 0 19.285 0h-4.57C2.597 0 0 2.597 0 14.715v4.57C0 31.403 2.597 34 14.715 34h4.57C31.403 34 34 31.403 34 19.285v-4.57Z" fill="#fff"/><path d="m25.489 8-7.011 5.207 1.296-3.072L25.49 8Z" fill="#E2761B" stroke="#E2761B" stroke-width=".07" stroke-linecap="round" stroke-linejoin="round"/><path d="m9.304 8 6.955 5.256-1.233-3.121L9.304 8Zm13.662 12.07L21.1 22.93l3.995 1.1 1.148-3.896-3.276-.064Zm-14.401.064 1.141 3.896 3.995-1.1-1.867-2.86-3.27.064Z" fill="#E4761B" stroke="#E4761B" stroke-width=".07" stroke-linecap="round" stroke-linejoin="round"/><path d="m13.476 15.235-1.114 1.684 3.967.176-.14-4.262-2.713 2.402Zm7.841.001-2.747-2.452-.092 4.312 3.96-.176-1.12-1.684ZM13.7 22.93l2.382-1.163-2.057-1.606-.324 2.769Zm5.01-1.163 2.39 1.163-.332-2.77-2.057 1.607Z" fill="#E4761B" stroke="#E4761B" stroke-width=".07" stroke-linecap="round" stroke-linejoin="round"/><path d="m21.1 22.93-2.39-1.162.19 1.557-.02.655 2.22-1.05Zm-7.399 0 2.22 1.05-.015-.655.176-1.557-2.381 1.163Z" fill="#D7C1B3" stroke="#D7C1B3" stroke-width=".07" stroke-linecap="round" stroke-linejoin="round"/><path d="m15.956 19.133-1.987-.585 1.402-.64.585 1.225Zm2.881 0 .585-1.226 1.41.641-1.995.585Z" fill="#233447" stroke="#233447" stroke-width=".07" stroke-linecap="round" stroke-linejoin="round"/><path d="m13.701 22.93.338-2.86-2.205.063L13.7 22.93Zm7.059-2.86.34 2.86 1.866-2.797-2.205-.063Zm1.678-3.15-3.96.175.366 2.037.585-1.226 1.41.64 1.599-1.627Zm-8.469 1.627 1.409-.641.578 1.226.373-2.037-3.967-.176 1.607 1.628Z" fill="#CD6116" stroke="#CD6116" stroke-width=".07" stroke-linecap="round" stroke-linejoin="round"/><path d="m12.362 16.92 1.663 3.24-.056-1.613-1.607-1.628Zm8.476 1.627-.07 1.613 1.67-3.24-1.6 1.627Zm-4.508-1.452-.374 2.036.465 2.403.105-3.164-.197-1.275Zm2.148 0-.19 1.268.084 3.17.473-2.402-.367-2.036Z" fill="#E4751F" stroke="#E4751F" stroke-width=".07" stroke-linecap="round" stroke-linejoin="round"/><path d="m18.845 19.132-.473 2.402.339.233 2.057-1.606.07-1.614-1.994.585Zm-4.876-.585.056 1.614 2.057 1.606.339-.232-.465-2.403-1.987-.585Z" fill="#F6851B" stroke="#F6851B" stroke-width=".07" stroke-linecap="round" stroke-linejoin="round"/><path d="m18.88 23.98.02-.655-.175-.155h-2.657l-.162.155.014.655-2.22-1.05.776.634 1.571 1.093h2.699l1.578-1.093.775-.634-2.22 1.05Z" fill="#C0AD9E" stroke="#C0AD9E" stroke-width=".07" stroke-linecap="round" stroke-linejoin="round"/><path d="m18.71 21.767-.338-.233h-1.951l-.338.233-.177 1.557.162-.155h2.657l.176.155-.19-1.557Z" fill="#161616" stroke="#161616" stroke-width=".07" stroke-linecap="round" stroke-linejoin="round"/><path d="m25.785 13.545.598-2.875L25.49 8l-6.778 5.03 2.607 2.206 3.684 1.078.818-.951-.352-.254.563-.514-.437-.338.564-.43-.373-.282ZM8.417 10.67l.599 2.875-.381.282.564.43-.43.338.564.514-.353.254.81.951 3.686-1.078 2.606-2.205L9.305 8l-.887 2.67Z" fill="#763D16" stroke="#763D16" stroke-width=".07" stroke-linecap="round" stroke-linejoin="round"/><path d="m25.003 16.314-3.686-1.078 1.12 1.684-1.67 3.241 2.2-.028h3.276l-1.24-3.819Zm-11.527-1.078L9.79 16.314l-1.226 3.819h3.269l2.191.028-1.663-3.241 1.114-1.684Zm5.002 1.861.233-4.065 1.07-2.896h-4.755l1.056 2.896.247 4.065.085 1.282.007 3.157h1.951l.015-3.157.091-1.282Z" fill="#F6851B" stroke="#F6851B" stroke-width=".07" stroke-linecap="round" stroke-linejoin="round"/></svg>