<svg width="15" height="14" viewBox="0 0 15 14" fill="none" xmlns="http://www.w3.org/2000/svg">
    <path d="M5.07299 9.42707L1.30176 13.1983M7.28479 3.44407L6.24419 4.48466C6.15931 4.56954 6.11687 4.61199 6.06852 4.64571C6.0256 4.67564 5.9793 4.70042 5.93059 4.71953C5.8757 4.74105 5.81685 4.75283 5.69914 4.77637L3.25616 5.26496C2.62129 5.39194 2.30386 5.45542 2.15535 5.62279C2.02597 5.7686 1.96689 5.96373 1.99366 6.15681C2.02439 6.37845 2.25329 6.60735 2.71111 7.06516L7.43493 11.789C7.89274 12.2468 8.12165 12.4757 8.34328 12.5064C8.53637 12.5332 8.73149 12.4741 8.8773 12.3447C9.04467 12.1962 9.10816 11.8788 9.23513 11.2439L9.72373 8.80095C9.74727 8.68324 9.75904 8.62439 9.78057 8.56951C9.79967 8.52079 9.82445 8.4745 9.85438 8.43158C9.88811 8.38322 9.93055 8.34078 10.0154 8.2559L11.056 7.21531C11.1103 7.16104 11.1374 7.1339 11.1673 7.11021C11.1938 7.08916 11.2218 7.07016 11.2512 7.05338C11.2843 7.03448 11.3195 7.01937 11.3901 6.98913L13.053 6.27646C13.5381 6.06854 13.7807 5.96459 13.8909 5.7966C13.9872 5.64969 14.0217 5.47069 13.9868 5.29851C13.9469 5.10162 13.7603 4.91501 13.3871 4.54179L9.9583 1.11303C9.58508 0.739815 9.39848 0.553207 9.20158 0.513292C9.0294 0.478388 8.8504 0.51286 8.70349 0.609215C8.5355 0.7194 8.43155 0.961966 8.22363 1.4471L7.51096 3.11C7.48073 3.18055 7.46561 3.21582 7.44671 3.2489C7.42993 3.27828 7.41093 3.30634 7.38988 3.33284C7.36619 3.36267 7.33906 3.3898 7.28479 3.44407Z" stroke="#8899A6" stroke-linecap="round" stroke-linejoin="round"/>
</svg>
