<svg width="29" height="28" viewBox="0 0 29 31" fill="none" xmlns="http://www.w3.org/2000/svg"><path opacity=".12" d="M8.203 14.453c-.26-.26-.39-.39-.482-.54a1.5 1.5 0 0 1-.18-.434c-.041-.173-.041-.356-.041-.723V9.4c0-.84 0-1.26.163-1.581a1.5 1.5 0 0 1 .656-.656C8.639 7 9.059 7 9.9 7h3.356c.367 0 .55 0 .723.041.153.037.3.098.433.18.152.093.281.223.541.482l5.751 5.751c.891.891 1.337 1.337 1.504 1.85a2.25 2.25 0 0 1 0 1.391c-.167.514-.613.96-1.504 1.85l-1.658 1.66c-.891.89-1.337 1.336-1.85 1.503a2.25 2.25 0 0 1-1.391 0c-.514-.167-.96-.613-1.85-1.504l-5.752-5.751Z" fill="#BF7AF0"/><path d="M12 11.5h.008H12ZM7.5 9.4v3.356c0 .367 0 .55.041.723.037.153.098.3.18.433.093.152.223.281.482.541l5.751 5.751c.891.891 1.337 1.337 1.85 1.504a2.25 2.25 0 0 0 1.391 0c.514-.167.96-.613 1.85-1.504l1.66-1.658c.89-.891 1.336-1.337 1.503-1.85a2.25 2.25 0 0 0 0-1.391c-.167-.514-.613-.96-1.504-1.85l-5.751-5.752c-.26-.26-.39-.39-.54-.482a1.5 1.5 0 0 0-.434-.18C13.806 7 13.623 7 13.256 7H9.9c-.84 0-1.26 0-1.581.163a1.5 1.5 0 0 0-.656.656c-.163.32-.163.74-.163 1.581Zm4.875 2.1a.375.375 0 1 1-.75 0 .375.375 0 0 1 .75 0Z" stroke="#BF7AF0" stroke-width="1.5" stroke-linecap="round" stroke-linejoin="round"/></svg>