<svg width="30" height="30" viewBox="0 0 30 30" fill="none" xmlns="http://www.w3.org/2000/svg">
<mask id="mask0_8074_50347" style="mask-type:alpha" maskUnits="userSpaceOnUse" x="0" y="0" width="30" height="30">
<path d="M10 20H0V30H10V20Z" fill="white"/>
<path d="M9.99983 20H7.49316V22.5067H9.99983V20Z" fill="white"/>
<path d="M20 20H10V0H20C33.2667 0.533333 33.2533 19.48 20 20Z" fill="white"/>
<path d="M12.5067 17.4932H10V19.9998H12.5067V17.4932Z" fill="white"/>
<path d="M10 22.5067C10 22.5067 10.04 20 12.5067 20C14.9734 20 11.9734 17.3467 11.9734 17.3467L8.94671 21.4L7.21338 22.8L10 22.5067Z" fill="white"/>
<path d="M9.99986 17.4933C9.99986 17.4933 9.99986 20 7.49319 20C4.98653 20 6.21319 21.44 6.21319 21.44L9.15986 20.8666L12.7332 17.1333L9.99986 17.4933Z" fill="white"/>
</mask>
<g mask="url(#mask0_8074_50347)">
<g filter="url(#filter0_b_8074_50347)">
<rect x="-41.7339" y="-2.93359" width="161.333" height="52.5333" fill="url(#paint0_linear_8074_50347)"/>
</g>
<ellipse cx="-16.3751" cy="24.2574" rx="27.685" ry="12.6675" fill="url(#paint1_linear_8074_50347)"/>
<ellipse cx="68.1323" cy="-9.10584" rx="71.8902" ry="22.8741" fill="url(#paint2_linear_8074_50347)"/>
<g filter="url(#filter1_b_8074_50347)">
<rect x="-41.7339" y="-2.93359" width="161.333" height="52.5333" fill="url(#paint3_linear_8074_50347)"/>
</g>
</g>
<defs>
<filter id="filter0_b_8074_50347" x="-55.3494" y="-16.5492" width="188.565" height="79.7643" filterUnits="userSpaceOnUse" color-interpolation-filters="sRGB">
<feFlood flood-opacity="0" result="BackgroundImageFix"/>
<feGaussianBlur in="BackgroundImageFix" stdDeviation="6.80778"/>
<feComposite in2="SourceAlpha" operator="in" result="effect1_backgroundBlur_8074_50347"/>
<feBlend mode="normal" in="SourceGraphic" in2="effect1_backgroundBlur_8074_50347" result="shape"/>
</filter>
<filter id="filter1_b_8074_50347" x="-177.889" y="-139.089" width="433.645" height="324.844" filterUnits="userSpaceOnUse" color-interpolation-filters="sRGB">
<feFlood flood-opacity="0" result="BackgroundImageFix"/>
<feGaussianBlur in="BackgroundImageFix" stdDeviation="68.0778"/>
<feComposite in2="SourceAlpha" operator="in" result="effect1_backgroundBlur_8074_50347"/>
<feBlend mode="normal" in="SourceGraphic" in2="effect1_backgroundBlur_8074_50347" result="shape"/>
</filter>
<linearGradient id="paint0_linear_8074_50347" x1="38.9328" y1="-2.93359" x2="38.9328" y2="49.5997" gradientUnits="userSpaceOnUse">
<stop stop-color="#FF51A8"/>
<stop offset="1" stop-color="#B52A6F"/>
</linearGradient>
<linearGradient id="paint1_linear_8074_50347" x1="-16.3751" y1="11.5898" x2="-16.3751" y2="36.9249" gradientUnits="userSpaceOnUse">
<stop stop-color="#FF51A8"/>
<stop offset="1" stop-color="#B52A6F"/>
</linearGradient>
<linearGradient id="paint2_linear_8074_50347" x1="68.1323" y1="-31.98" x2="68.1323" y2="13.7683" gradientUnits="userSpaceOnUse">
<stop stop-color="#FF51A8"/>
<stop offset="1" stop-color="#B52A6F"/>
</linearGradient>
<linearGradient id="paint3_linear_8074_50347" x1="38.9328" y1="-2.93359" x2="38.9328" y2="49.5997" gradientUnits="userSpaceOnUse">
<stop stop-color="#FF51A8"/>
<stop offset="1" stop-color="#B52A6F"/>
</linearGradient>
</defs>
</svg>
