<svg width="17" height="18" fill="none" xmlns="http://www.w3.org/2000/svg"><path d="M4.552 9.254h3.933a.516.516 0 0 0 .395-.176.571.571 0 0 0 .007-.806.534.534 0 0 0-.402-.168H4.552a.534.534 0 0 0-.403.168.571.571 0 0 0-.161.41.57.57 0 0 0 .16.396.524.524 0 0 0 .404.176Zm0 1.868H7.32a.526.526 0 0 0 .396-.169.562.562 0 0 0 .16-.403.562.562 0 0 0-.16-.402.526.526 0 0 0-.396-.169H4.552a.534.534 0 0 0-.403.169.562.562 0 0 0-.161.402c0 .156.054.29.16.403a.534.534 0 0 0 .404.169Zm7.302.11c.317 0 .606-.079.864-.235a1.77 1.77 0 0 0 .63-.63c.156-.264.234-.556.234-.879 0-.317-.078-.608-.234-.871a1.77 1.77 0 0 0-.63-.63 1.64 1.64 0 0 0-.864-.235c-.322 0-.615.079-.879.235a1.83 1.83 0 0 0-.637.63 1.678 1.678 0 0 0-.234.871c0 .323.078.616.234.88.161.263.373.473.637.63.264.155.557.233.879.233Zm-8.4 6.1H14c.835 0 1.475-.222 1.919-.666.444-.44.666-1.074.666-1.904V7.21c0-.83-.222-1.464-.666-1.904-.444-.444-1.084-.666-1.919-.666H3.453c-.835 0-1.474.222-1.919.666C1.09 5.746.868 6.38.868 7.21v7.552c0 .83.222 1.465.666 1.904.445.444 1.084.666 1.92.666Zm.204-1.89c-.293 0-.517-.075-.674-.226-.151-.147-.227-.376-.227-.689V7.445c0-.313.076-.542.227-.689.157-.151.381-.227.674-.227h10.13c.293 0 .517.076.673.227.157.147.235.376.235.689v7.082c0 .313-.078.542-.235.689-.156.151-.38.227-.673.227H3.658ZM2.596 3.425h12.268c-.049-.371-.18-.662-.395-.872-.215-.21-.535-.315-.96-.315H3.951c-.43 0-.752.105-.967.315-.21.21-.339.5-.388.872Zm1.465-2.256h9.338c-.029-.352-.151-.62-.366-.806-.215-.19-.51-.285-.886-.285h-6.84c-.377 0-.672.095-.887.285-.215.186-.335.454-.359.806Z" fill="#fff" fill-opacity=".8"/></svg>