<svg width="24" height="24" fill="none" xmlns="http://www.w3.org/2000/svg"><path d="M8.377 15.616 2.72 21.273m8.974-14.631-1.56 1.56a2.1 2.1 0 0 1-.264.242 1 1 0 0 1-.207.111c-.082.032-.17.05-.347.085l-3.665.733c-.952.19-1.428.286-1.65.537a1 1 0 0 0-.243.801c.046.332.389.676 1.076 1.363l7.085 7.085c.687.687 1.03 1.03 1.363 1.076a1 1 0 0 0 .801-.242c.251-.223.346-.699.537-1.651l.733-3.665c.035-.176.053-.265.085-.347.029-.073.066-.142.11-.207.051-.072.115-.136.242-.263l1.561-1.561c.082-.082.122-.122.167-.158.04-.031.082-.06.126-.085.05-.028.102-.051.208-.096l2.495-1.07c.727-.311 1.091-.467 1.256-.72a1 1 0 0 0 .144-.746c-.06-.296-.34-.576-.9-1.135l-5.143-5.144c-.56-.56-.84-.84-1.135-.9a1 1 0 0 0-.747.145c-.252.165-.408.529-.72 1.256l-1.069 2.495a2.078 2.078 0 0 1-.096.208 1 1 0 0 1-.085.126c-.036.045-.076.086-.158.167Z" stroke="#fff" stroke-width="2" stroke-linecap="round" stroke-linejoin="round"/></svg>