<svg width="25" height="24" fill="none" xmlns="http://www.w3.org/2000/svg"><path opacity=".12" d="M3.5 7.8c0-1.68 0-2.52.327-3.162a3 3 0 0 1 1.311-1.311C5.78 3 6.62 3 8.3 3h8.4c1.68 0 2.52 0 3.162.327a3 3 0 0 1 1.311 1.311c.327.642.327 1.482.327 3.162v8.4c0 1.68 0 2.52-.327 3.162a3 3 0 0 1-1.311 1.311C19.22 21 18.38 21 16.7 21H8.3c-1.68 0-2.52 0-3.162-.327a3 3 0 0 1-1.311-1.311C3.5 18.72 3.5 17.88 3.5 16.2V7.8Z" fill="#fff"/><path d="M12.5 8v4m0 0v4m0-4h-4m4 0h4m-8.2 9h8.4c1.68 0 2.52 0 3.162-.327a3 3 0 0 0 1.311-1.311c.327-.642.327-1.482.327-3.162V7.8c0-1.68 0-2.52-.327-3.162a3 3 0 0 0-1.311-1.311C19.22 3 18.38 3 16.7 3H8.3c-1.68 0-2.52 0-3.162.327a3 3 0 0 0-1.311 1.311C3.5 5.28 3.5 6.12 3.5 7.8v8.4c0 1.68 0 2.52.327 3.162a3 3 0 0 0 1.311 1.311C5.78 21 6.62 21 8.3 21Z" stroke="#fff" stroke-width="2" stroke-linecap="round" stroke-linejoin="round"/></svg>