<svg xmlns="http://www.w3.org/2000/svg" width="25" height="25" fill="none"><circle cx="12.5" cy="12.5" r="12.5" fill="#BF7AF0"/><path fill="#1C141E" d="M12.827 5a.804.804 0 0 0-.08.008.768.768 0 0 0-.678.775V6.86c-.65.094-1.271.31-1.797.67-.73.501-1.27 1.344-1.27 2.34 0 1.023.594 1.83 1.294 2.309.7.479 1.51.751 2.268 1.038.758.286 1.463.582 1.909.934.445.352.662.676.662 1.342 0 .49-.194.8-.599 1.078-.404.277-1.034.455-1.7.455-1.876 0-2.364-1.334-2.364-1.334a.77.77 0 0 0-1.406.623s.882 1.805 3.003 2.173v1.094a.767.767 0 1 0 1.533 0v-1.078c.65-.094 1.271-.31 1.797-.671.73-.501 1.27-1.343 1.27-2.34 0-1.108-.55-1.992-1.254-2.548-.704-.555-1.533-.865-2.308-1.158-.775-.292-1.499-.57-1.949-.878-.45-.308-.622-.527-.622-1.038 0-.491.194-.801.598-1.079.405-.277 1.035-.455 1.701-.455 1.876 0 2.364 1.334 2.364 1.334a.77.77 0 1 0 1.406-.623s-.882-1.804-3.003-2.172V5.783A.767.767 0 0 0 12.827 5Z"/></svg>