<svg width="24" height="24" viewBox="0 0 24 24" fill="none" xmlns="http://www.w3.org/2000/svg">
<path opacity="0.4" d="M8.37658 15.6172L2.71973 21.2741" stroke="white" stroke-width="2" stroke-linecap="round" stroke-linejoin="round"/>
<path d="M13.1024 3.64721C13.4143 2.91951 13.5703 2.55566 13.8222 2.39038C14.0426 2.24585 14.3111 2.19414 14.5694 2.2465C14.8647 2.30637 15.1446 2.58628 15.7044 3.14611L20.8476 8.28924C21.4074 8.84907 21.6873 9.12898 21.7472 9.42433C21.7996 9.6826 21.7478 9.9511 21.6033 10.1715C21.438 10.4235 21.0742 10.5794 20.3465 10.8913L17.8521 11.9603C17.7463 12.0057 17.6934 12.0283 17.6438 12.0567C17.5997 12.0819 17.5576 12.1104 17.5179 12.1419C17.4731 12.1775 17.4324 12.2182 17.351 12.2996L15.7901 13.8605C15.6628 13.9878 15.5992 14.0514 15.5486 14.124C15.5037 14.1884 15.4665 14.2578 15.4378 14.3309C15.4056 14.4132 15.3879 14.5015 15.3526 14.678L14.6197 18.3425C14.4292 19.2948 14.334 19.771 14.0829 19.9937C13.8642 20.1878 13.5715 20.2764 13.2819 20.2363C12.9495 20.1902 12.6061 19.8468 11.9194 19.1601L4.83369 12.0744C4.14698 11.3876 3.80362 11.0443 3.75753 10.7118C3.71738 10.4222 3.806 10.1295 4.00006 9.91075C4.22282 9.65969 4.69897 9.56446 5.65128 9.374L9.31574 8.64111C9.49231 8.6058 9.58059 8.58814 9.66291 8.55585C9.73599 8.52719 9.80543 8.49002 9.86981 8.44512C9.94234 8.39454 10.006 8.33088 10.1333 8.20355L11.6942 6.64266C11.7756 6.56126 11.8163 6.52056 11.8518 6.47581C11.8834 6.43607 11.9119 6.39398 11.9371 6.3499C11.9654 6.30029 11.9881 6.24738 12.0334 6.14156L13.1024 3.64721Z" stroke="white" stroke-width="2" stroke-linecap="round" stroke-linejoin="round"/>
</svg>
