<svg width="15" height="15" fill="none" xmlns="http://www.w3.org/2000/svg"><path fill-rule="evenodd" clip-rule="evenodd" d="M5.948 3.202h2.78L7.31.212l-1.361 2.99ZM3.303 5.426 5.27 3.464 2.148 2.352l1.155 3.074Zm.203 2.104a3.794 3.794 0 0 1 3.79-3.783 3.78 3.78 0 0 1 3.79 3.783 3.794 3.794 0 0 1-3.79 3.783c-2.087 0-3.79-1.7-3.79-3.783Zm5.898 3.985 1.966-1.962 1.135 3.075-3.101-1.113Zm1.906-6.068L9.344 3.484l3.1-1.112-1.134 3.075Zm-6.06 6.088L3.282 9.573l-1.155 3.075 3.121-1.113Zm.698.277h2.78l-1.376 2.976-1.404-2.976Zm5.647-2.946V6.091l2.98 1.402-2.98 1.373Zm-8.6.028V6.12L0 7.48l2.995 1.415Z" fill="#fff"/><path fill-rule="evenodd" clip-rule="evenodd" d="M9.911 6.574 6.86 9.54 5.247 7.973l.587-.532 1.026.997 2.465-2.396.586.532Z" fill="#000"/></svg>