<svg width="23" height="23" fill="none" xmlns="http://www.w3.org/2000/svg"><path d="M10 3.996H5.8c-1.68 0-2.52 0-3.162.327a3 3 0 0 0-1.311 1.311C1 6.276 1 7.116 1 8.796v8.4c0 1.68 0 2.52.327 3.162a3 3 0 0 0 1.311 1.311c.642.327 1.482.327 3.162.327h8.4c1.68 0 2.52 0 3.162-.327a3 3 0 0 0 1.311-1.31c.327-.642.327-1.483.327-3.163v-4.2m-12 3h1.675c.489 0 .733 0 .963-.055a2 2 0 0 0 .579-.24c.201-.123.374-.296.72-.642L20.5 5.496a2.121 2.121 0 0 0-3-3L7.937 12.06c-.346.346-.519.519-.642.72a2 2 0 0 0-.24.579c-.055.23-.055.475-.055.964v1.674Z" stroke="#fff" stroke-width="2" stroke-linecap="round" stroke-linejoin="round"/></svg>