<svg viewBox="0 0 20 20" fill="none" xmlns="http://www.w3.org/2000/svg"><path opacity=".4" d="M2.5 6.5c0-1.4 0-2.1.272-2.635a2.5 2.5 0 0 1 1.093-1.093C4.4 2.5 5.1 2.5 6.5 2.5h7c1.4 0 2.1 0 2.635.272a2.5 2.5 0 0 1 1.092 1.093C17.5 4.4 17.5 5.1 17.5 6.5v4.75c0 1.165 0 1.747-.19 2.207a2.5 2.5 0 0 1-1.353 1.353c-.46.19-1.042.19-2.207.19-.407 0-.61 0-.8.045a1.665 1.665 0 0 0-.685.342c-.149.124-.27.287-.515.613l-1.217 1.622c-.18.241-.271.362-.382.405a.416.416 0 0 1-.302 0c-.11-.043-.201-.164-.382-.405L8.25 16c-.244-.326-.366-.489-.515-.613a1.666 1.666 0 0 0-.685-.342C6.86 15 6.657 15 6.25 15c-1.165 0-1.747 0-2.207-.19a2.5 2.5 0 0 1-1.353-1.353c-.19-.46-.19-1.042-.19-2.207V6.5Z" stroke="#FFF" stroke-width="2" stroke-linecap="round" stroke-linejoin="round"/><path d="M8.333 7.085a1.874 1.874 0 0 1 3.641.624c0 1.25-1.873 1.874-1.873 1.874m.024 2.5h.008" stroke="#FFF" stroke-width="2" stroke-linecap="round" stroke-linejoin="round"/></svg>