<svg xmlns="http://www.w3.org/2000/svg" width="25" height="24" fill="none"><path stroke="#FF51A8" stroke-linecap="round" stroke-linejoin="round" stroke-width="2" d="M7.5 10V8A5 5 0 0 1 15 3.669M12.5 14.5v2M9.3 21h6.4c1.68 0 2.52 0 3.162-.327a3 3 0 0 0 1.311-1.311c.327-.642.327-1.482.327-3.162v-1.4c0-1.68 0-2.52-.327-3.162a3 3 0 0 0-1.311-1.311C18.22 10 17.38 10 15.7 10H9.3c-1.68 0-2.52 0-3.162.327a3 3 0 0 0-1.311 1.311C4.5 12.28 4.5 13.12 4.5 14.8v1.4c0 1.68 0 2.52.327 3.162a3 3 0 0 0 1.311 1.311C6.78 21 7.62 21 9.3 21Z"/></svg>