<svg width="30" height="30" viewBox="0 0 30 30" fill="none" xmlns="http://www.w3.org/2000/svg">
<path d="M21.5312 6H7.96875C6.88375 6 6 6.88375 6 7.96875V21.5312C6 22.6163 6.88375 23.5 7.96875 23.5H21.5312C22.6163 23.5 23.5 22.6163 23.5 21.5312V7.96875C23.5 6.88375 22.6163 6 21.5312 6ZM7.96875 7.3125H21.5312C21.8926 7.3125 22.1875 7.60738 22.1875 7.96875V16.4352L18.8118 13.0595C18.6893 12.937 18.523 12.867 18.348 12.867H18.3454C18.1704 12.867 18.0015 12.937 17.8799 13.063L14.1025 16.899L12.5161 15.3187C12.3936 15.1962 12.2274 15.1263 12.0524 15.1263C11.8835 15.1 11.7067 15.1962 11.5842 15.3249L7.3125 19.6868V7.96875C7.3125 7.60738 7.60738 7.3125 7.96875 7.3125ZM7.31775 21.5575L12.0585 16.7153L17.5553 22.1875H7.96875C7.617 22.1875 7.33263 21.9058 7.31775 21.5575ZM21.5312 22.1875H19.4137L15.0326 17.8239L18.3506 14.4551L22.1875 18.2911V21.5312C22.1875 21.8926 21.8926 22.1875 21.5312 22.1875Z" fill="#FF51A8"/>
<path d="M12.0094 12.8694C12.7546 12.8694 13.3587 12.2653 13.3587 11.5201C13.3587 10.775 12.7546 10.1709 12.0094 10.1709C11.2642 10.1709 10.6602 10.775 10.6602 11.5201C10.6602 12.2653 11.2642 12.8694 12.0094 12.8694Z" fill="#FF51A8"/>
</svg>
