<svg version="1.0" xmlns="http://www.w3.org/2000/svg" width="600" height="600" viewBox="0 0 450 450"><path d="M0 225v225h450V0H0v225zm171.5-75.5c11.9 5 13.9 17.8 7.1 44.5-2 8-3.9 15.4-4.2 16.5-.3 1.1 3.5-6.1 8.5-16 15.7-31.5 28.6-43.6 49.1-46.5 13.1-1.8 22.5 1.4 26.8 9.3 3 5.6 2.1 21.4-2.2 37.2-1.9 7.1-3.4 13.1-3.2 13.2.2.2 2-3.3 4-7.8 12.4-27.7 27.5-44.9 43.4-50 8.4-2.6 22-2.9 27.3-.5 8.3 3.5 11.4 10.6 10.7 24-.5 8.4-1.7 12.6-16.6 57.6-8.8 26.7-16.3 49.8-16.7 51.4-1.5 6.7 5.2 9.8 12.1 5.5 4.4-2.7 7.7-8.5 13-22.3 3.3-8.8 4.7-11.2 6.3-11.4 1.2-.2 2.1.1 2.1.6 0 2.3-8.4 25.1-10.7 29.1-4.1 7.1-9.1 11.9-15.7 15.1-15.8 7.6-33.3 5.2-41.1-5.8-2.8-4.1-3-4.9-2.9-13.5 0-9.1.2-9.6 15.7-56.2 8.6-25.9 16-49.1 16.3-51.6 2.1-15.6-13.4-10-26.7 9.7-14.3 21.2-29.3 57.1-41.9 100.4l-4.7 16.5-20.2.3c-19 .2-20.2.1-19.7-1.5 12.3-40.8 35.9-122.9 36.3-126.4.7-5.8-.6-7.9-4.9-7.9-9.5 0-21.6 13.6-33.5 37.5-10.8 21.6-22.8 55.1-29.9 83.2l-3.9 15.3h-19.7c-10.9 0-19.8-.2-19.8-.5s7.9-28.5 17.5-62.7c9.7-34.1 17.8-64 18.2-66.3.7-5.8-.9-8.5-5.1-8.5-7.5 0-13.2 7.4-20.2 26.7-3.3 8.9-4.1 10.3-6.1 10.3-2.2 0-2.2-.1 1.8-11.8 7.3-20.7 13.7-29.9 24.2-34.7 9.5-4.4 21.7-5.2 29.2-2z"/></svg>