<?xml version="1.0" standalone="no"?>
<!DOCTYPE svg PUBLIC "-//W3C//DTD SVG 20010904//EN"
 "http://www.w3.org/TR/2001/REC-SVG-20010904/DTD/svg10.dtd">
<svg version="1.0" xmlns="http://www.w3.org/2000/svg"
 width="450.000000pt" height="450.000000pt" viewBox="0 0 450.000000 450.000000"
 preserveAspectRatio="xMidYMid meet">
<metadata>
Created by potrace 1.14, written by Peter Selinger 2001-2017
</metadata>
<g transform="translate(0.000000,450.000000) scale(0.100000,-0.100000)"
fill="#000000" stroke="none">
<path d="M0 2250 l0 -2250 2250 0 2250 0 0 2250 0 2250 -2250 0 -2250 0 0
-2250z m1715 755 c119 -50 139 -178 71 -445 -20 -80 -39 -154 -42 -165 -3 -11
35 61 85 160 157 315 286 436 491 465 131 18 225 -14 268 -93 30 -56 21 -214
-22 -372 -19 -71 -34 -131 -32 -132 2 -2 20 33 40 78 124 277 275 449 434 500
84 26 220 29 273 5 83 -35 114 -106 107 -240 -5 -84 -17 -126 -166 -576 -88
-267 -163 -498 -167 -514 -15 -67 52 -98 121 -55 44 27 77 85 130 223 33 88
47 112 63 114 12 2 21 -1 21 -6 0 -23 -84 -251 -107 -291 -41 -71 -91 -119
-157 -151 -158 -76 -333 -52 -411 58 -28 41 -30 49 -29 135 0 91 2 96 157 562
86 259 160 491 163 516 21 156 -134 100 -267 -97 -143 -212 -293 -571 -419
-1004 l-47 -165 -202 -3 c-190 -2 -202 -1 -197 15 123 408 359 1229 363 1264
7 58 -6 79 -49 79 -95 0 -216 -136 -335 -375 -108 -216 -228 -551 -299 -832
l-39 -153 -197 0 c-109 0 -198 2 -198 5 0 3 79 285 175 627 97 341 178 640
182 663 7 58 -9 85 -51 85 -75 0 -132 -74 -202 -267 -33 -89 -41 -103 -61
-103 -22 0 -22 1 18 118 73 207 137 299 242 347 95 44 217 52 292 20z"/>
</g>
</svg>
