<svg width="18" height="22" fill="none" xmlns="http://www.w3.org/2000/svg"><path d="M8.302 20.617c.221.13.332.194.488.227.122.026.298.026.42 0 .156-.033.267-.098.488-.227C11.646 19.481 17 15.911 17 11.002V6.22c0-.8 0-1.2-.13-1.543a2 2 0 0 0-.548-.79c-.275-.242-.65-.383-1.398-.663L9.562 1.213c-.208-.078-.312-.117-.419-.132a1 1 0 0 0-.286 0c-.107.015-.21.054-.419.132l-5.362 2.01c-.748.281-1.123.422-1.398.665a2 2 0 0 0-.547.789C1 5.021 1 5.42 1 6.22v4.782c0 4.909 5.354 8.479 7.302 9.615Z" stroke="#fff" stroke-width="2" stroke-linecap="round" stroke-linejoin="round"/></svg>