<svg width="16" height="16" viewBox="0 0 16 16" fill="none" xmlns="http://www.w3.org/2000/svg">
  <path d="M7.73402 9.17366L7.96824 9.40789C8.35877 9.79841 8.99193 9.79841 9.38246 9.40789L13.848 4.94233C14.1083 4.68202 14.5304 4.68202 14.7907 4.94233C15.051 5.20264 15.051 5.62468 14.7907 5.88499L9.38246 11.2932C8.99193 11.6837 8.35877 11.6837 7.96824 11.2932L4.90402 8.229C4.64371 7.96869 4.64371 7.54664 4.90402 7.28633C5.16433 7.02602 5.58637 7.02602 5.84668 7.28633L6.79202 8.23166L7.73402 9.17366ZM8.2053 7.75828C7.94575 7.49873 7.94573 7.07791 8.20525 6.81833L10.5667 4.45642C10.8262 4.1968 11.2471 4.19678 11.5067 4.45638C11.7663 4.71593 11.7663 5.13675 11.5068 5.39633L9.14535 7.75823C8.88578 8.01785 8.46489 8.01787 8.2053 7.75828ZM5.37983 10.5873C5.63989 10.8474 5.63985 11.2692 5.37973 11.5293C5.11958 11.7894 4.69779 11.7894 4.43763 11.5293L1.13735 8.229C0.877039 7.96869 0.877039 7.54664 1.13735 7.28633C1.39766 7.02602 1.81971 7.02602 2.08002 7.28633L2.55068 7.75699L5.37983 10.5873Z" fill="#767676" />
</svg>
  