<svg width="17" height="17" fill="none" xmlns="http://www.w3.org/2000/svg"><path d="M7.723 16.864h1.502c.337 0 .63-.098.879-.293.253-.196.42-.457.498-.784l.263-1.164.125-.044 1.018.622c.283.18.583.25.9.205.318-.044.596-.185.836-.425l1.032-1.025c.245-.249.386-.53.425-.842a1.352 1.352 0 0 0-.205-.901l-.63-1.003.044-.118 1.157-.278c.323-.078.581-.242.777-.49.195-.255.293-.55.293-.887V8.001c0-.332-.098-.625-.293-.878a1.351 1.351 0 0 0-.777-.498l-1.15-.279-.05-.124.63-1.004c.18-.283.248-.58.204-.893a1.491 1.491 0 0 0-.417-.85l-1.04-1.025c-.235-.24-.51-.381-.828-.425a1.32 1.32 0 0 0-.9.198l-1.019.622-.132-.051-.263-1.165a1.35 1.35 0 0 0-.498-.776 1.36 1.36 0 0 0-.88-.3h-1.5a1.39 1.39 0 0 0-1.378 1.076l-.27 1.165-.133.051-1.01-.622a1.345 1.345 0 0 0-.909-.198 1.43 1.43 0 0 0-.827.425L2.164 3.475a1.473 1.473 0 0 0-.425.85c-.039.312.032.61.213.893l.622 1.004-.044.124-1.15.279a1.388 1.388 0 0 0-.783.505C.407 7.379.31 7.67.31 8v1.436c0 .337.098.632.293.886.195.254.454.418.776.491l1.158.278.044.117-.63 1.004a1.351 1.351 0 0 0-.205.9c.039.313.18.594.424.843l1.033 1.025c.234.24.51.381.828.425.317.044.62-.024.908-.205l1.01-.622.125.044.271 1.164a1.366 1.366 0 0 0 1.377 1.077Zm.3-1.655c-.112 0-.178-.054-.197-.162l-.425-1.78a4.13 4.13 0 0 1-.74-.22 4.073 4.073 0 0 1-.674-.365l-1.567.96c-.088.063-.173.053-.256-.03l-.63-.63c-.074-.068-.083-.151-.03-.25l.975-1.56a4.862 4.862 0 0 1-.345-.673 4.165 4.165 0 0 1-.227-.725l-1.78-.418c-.107-.02-.16-.085-.16-.197v-.88c0-.107.053-.173.16-.197l1.78-.417c.054-.254.13-.5.227-.74.103-.244.215-.466.337-.667l-.967-1.56c-.063-.097-.058-.183.015-.256l.645-.623c.078-.078.163-.088.256-.029l1.553.945c.18-.117.398-.23.652-.337.258-.107.517-.19.776-.25l.425-1.779c.02-.107.085-.161.197-.161h.901c.113 0 .179.054.198.161l.432 1.787c.254.059.5.14.74.242.24.098.464.212.674.344l1.545-.945c.098-.053.186-.044.264.03l.637.622c.073.073.08.159.022.257l-.96 1.552c.123.2.232.423.33.667.098.24.174.483.227.732l1.787.425c.108.024.161.09.161.198v.879c0 .112-.053.178-.16.197l-1.788.425a4.82 4.82 0 0 1-.564 1.392l.96 1.553c.058.097.051.18-.022.249l-.63.63c-.083.082-.171.092-.264.029l-1.545-.952c-.22.141-.445.26-.674.358-.23.098-.476.174-.74.228l-.432 1.78c-.02.107-.085.16-.198.16h-.9Zm.447-3.736c.508 0 .97-.124 1.384-.373.42-.25.752-.584.997-1.004.249-.42.373-.881.373-1.384 0-.503-.124-.962-.373-1.377a2.708 2.708 0 0 0-.997-.996 2.639 2.639 0 0 0-1.384-.374c-.503 0-.964.125-1.384.374-.415.244-.75.576-1.003.996a2.626 2.626 0 0 0-.374 1.377c0 .508.125.972.374 1.392.253.415.588.747 1.003.996.42.249.881.373 1.384.373Zm0-1.472a1.23 1.23 0 0 1-.644-.176 1.368 1.368 0 0 1-.462-.469 1.23 1.23 0 0 1-.176-.644c0-.234.06-.447.176-.637.117-.196.274-.35.469-.462.195-.117.408-.176.637-.176.235 0 .447.06.637.176.19.113.342.266.455.462.117.19.175.403.175.637 0 .234-.058.45-.175.644a1.306 1.306 0 0 1-.455.47c-.19.116-.402.175-.637.175Z" fill="#fff" fill-opacity=".8"/></svg>