<svg width="18" height="18" fill="none" xmlns="http://www.w3.org/2000/svg"><path d="M2.367 9.428c-.18-.148-.27-.222-.303-.31a.341.341 0 0 1 0-.24c.033-.088.123-.162.303-.31l6.25-5.143c.31-.255.465-.383.596-.386a.375.375 0 0 1 .295.13c.083.098.083.294.083.686v3.043a7.215 7.215 0 0 1 4.088 2.18 6.693 6.693 0 0 1 1.815 4.56v.434a8.374 8.374 0 0 0-2.834-2.123 8.691 8.691 0 0 0-3.069-.776v2.968c0 .392 0 .588-.083.686a.375.375 0 0 1-.295.13c-.131-.003-.286-.13-.596-.386l-6.25-5.143Z" stroke="#91337B" stroke-width="2" stroke-linecap="round" stroke-linejoin="round"/></svg>