<svg width="17" height="14" fill="none" xmlns="http://www.w3.org/2000/svg"><path d="M16.765 7.287a.523.523 0 0 0 .012-.73L10.558.141c-.297-.306-.793-.081-.793.36v2.678c-2.325-.038-4.071.61-5.37 1.605C3.079 5.794 2.239 7.15 1.72 8.462a10.898 10.898 0 0 0-.748 3.468c-.015.433.009.79.067 1.008a.728.728 0 0 0 .064.166.33.33 0 0 0 .176.158.273.273 0 0 0 .275-.064.51.51 0 0 0 .111-.161l.004-.007.002-.006v-.002l.006-.011.022-.05c.022-.044.055-.111.103-.195.096-.168.249-.406.473-.674.447-.537 1.178-1.2 2.31-1.683.645-.276 1.72-.4 2.774-.421 1.005-.02 1.943.057 2.406.166v2.757c0 .433.48.661.781.37l6.22-5.994Z" fill="#FBFBFB"/></svg>