<svg width="24" height="24" viewBox="0 0 24 24" fill="none" xmlns="http://www.w3.org/2000/svg">
<path d="M20.7914 12.6062C21.0355 12.3969 21.1575 12.2923 21.2023 12.1678C21.2415 12.0586 21.2415 11.939 21.2023 11.8298C21.1575 11.7053 21.0355 11.6006 20.7914 11.3914L12.3206 4.1308C11.9004 3.7706 11.6903 3.5905 11.5124 3.58609C11.3578 3.58226 11.2101 3.65018 11.1124 3.77006C11 3.90799 11 4.18473 11 4.7382V9.03346C8.86532 9.40691 6.91159 10.4885 5.45971 12.1127C3.87682 13.8833 3.00123 16.1747 3 18.5498V19.1617C4.04934 17.8977 5.35951 16.8753 6.84076 16.1647C8.1467 15.5382 9.55842 15.1671 11 15.0693V19.2594C11 19.8129 11 20.0896 11.1124 20.2276C11.2101 20.3474 11.3578 20.4154 11.5124 20.4115C11.6903 20.4071 11.9004 20.227 12.3206 19.8668L20.7914 12.6062Z" stroke="#A09FA6" stroke-width="2" stroke-linecap="round" stroke-linejoin="round"/>
</svg>
