<svg width="24" height="16" fill="none" xmlns="http://www.w3.org/2000/svg"><path d="M2.145 0C.965 0 0 .961 0 2.141v6.43c0 1.18.966 2.144 2.145 2.144h3.857c.584.013.584-.87 0-.857H2.145c-.72 0-1.287-.568-1.287-1.287V2.14c0-.72.568-1.283 1.287-1.283H21.86c.72 0 1.284.564 1.284 1.283V6.43c-.013.585.87.585.857 0V2.142C24 .962 23.038 0 21.859 0H2.145ZM12 2.141a3.434 3.434 0 0 0-3.426 3.43A3.434 3.434 0 0 0 12 9.001c1.888 0 3.43-1.541 3.43-3.43A3.437 3.437 0 0 0 12 2.141Zm.456 1.105h.002a.43.43 0 0 1 .433.436l-.003.617c0 .27-.245.472-.51.421-.246-.048-.483.106-.524.238-.042.132.024.245.23.285.629.12 1.086.757.89 1.385-.13.416-.601.438-1 .544l-.007.345c.037.616-.911.602-.855-.013l.007-.482a.429.429 0 0 1 .508-.414c.247.048.485-.105.526-.237.042-.132-.025-.245-.23-.284-.63-.12-1.086-.759-.89-1.386.13-.415.598-.438.996-.545l.004-.478a.429.429 0 0 1 .424-.432Zm11.111 4.46a.428.428 0 0 0-.424.437v1.715a1.27 1.27 0 0 1-1.284 1.284H12.43c-.572 0-.572.859 0 .859h9.429c1.18 0 2.14-.963 2.14-2.142V8.144a.428.428 0 0 0-.432-.436v-.001ZM3.43 11.143c-.571 0-.571.859 0 .858h6.855c.573 0 .573-.857 0-.858H3.43Zm-1.756 1.715c-.557.04-.518.87.041.857h7.713c.585.013.585-.87 0-.857H1.715a.35.35 0 0 0-.041 0Zm8.95 0c-.558.042-.514.874.045.857h1.794c.585.013.585-.87 0-.857h-1.839Zm-8.95 1.714c-.569.03-.528.883.041.858h10.747c.575.004.575-.86 0-.858H1.715a.4.4 0 0 0-.041 0Z"/></svg>