<svg viewBox="0 0 425 426" fill="none" xmlns="http://www.w3.org/2000/svg">
<path
    d="M307.514 213.136C307.514 265.686 265.014 308.286 212.587 308.286C160.161 308.286 117.66 265.686 117.66 213.136C117.66 160.586 160.161 117.986 212.587 117.986C265.014 117.986 307.514 160.586 307.514 213.136Z"
    fill="white"
  />
<path d="M212.5 0L256.893 77.0715H168.107L212.5 0Z" fill="white" />
<path
    d="M362.76 62.3864L339.781 148.349L277 85.4199L362.76 62.3864Z"
    fill="white"
  />
<path d="M425 213L348.109 257.497V168.503L425 213Z" fill="white" />
<path
    d="M362.76 363.614L277 340.58L339.781 277.652L362.76 363.614Z"
    fill="white"
  />
<path d="M212.5 426L168.107 348.929H256.893L212.5 426Z" fill="white" />
<path
    d="M62.24 363.614L85.2194 277.651L148 340.58L62.24 363.614Z"
    fill="white"
  />
<path d="M0 213L76.8906 168.503V257.497L0 213Z" fill="white" />
<path
    d="M62.2395 62.3864L148 85.4198L85.219 148.348L62.2395 62.3864Z"
    fill="white"
  />
</svg>
