<svg width="22" height="22" fill="none" xmlns="http://www.w3.org/2000/svg"><path opacity=".4" d="M20.167 9.167H1.833" stroke="gray" stroke-opacity=".923" stroke-width="2"/><path d="M10.083 17.417h7.15c1.027 0 1.54 0 1.933-.2.345-.176.625-.456.8-.801.2-.393.2-.906.2-1.933V7.517c0-1.027 0-1.54-.2-1.933a1.834 1.834 0 0 0-.8-.8c-.393-.2-.906-.2-1.933-.2h-1.65m-5.5 12.833 1.834 1.833m-1.834-1.833 1.834-1.834m-5.5 1.834h-1.65c-1.027 0-1.54 0-1.933-.2a1.833 1.833 0 0 1-.8-.801c-.2-.393-.2-.906-.2-1.933V7.517c0-1.027 0-1.54.2-1.933a1.82 1.82 0 0 1 .8-.8c.392-.2.906-.2 1.933-.2h7.15m0 0-1.834 1.833m1.834-1.834L10.083 2.75"/></svg>