<svg
  width="24"
  height="24"
  viewBox="0 0 24 24"
  fill="none"
  xmlns="http://www.w3.org/2000/svg"
>
    <path
    d="M22.7617 9.33113H20.5176C20.291 9.32846 20.0746 9.23638 19.9155 9.07483C19.7567 8.91328 19.6678 8.69564 19.6686 8.46896C19.6695 8.24229 19.7599 8.02518 19.9201 7.86476L21.5088 6.27606C21.7398 6.04386 21.8694 5.72981 21.8694 5.40234C21.8694 5.07505 21.7398 4.76081 21.5088 4.52879L19.4831 2.50311H19.4833C19.2482 2.27795 18.9352 2.15205 18.6095 2.15205C18.2841 2.15205 17.9711 2.27795 17.736 2.50311L16.1352 4.07995C15.9738 4.24116 15.7552 4.33156 15.5271 4.33123C15.2991 4.33106 15.0805 4.24016 14.9194 4.07877C14.7586 3.91723 14.6683 3.69842 14.6688 3.47042V1.23835C14.6688 0.911566 14.5396 0.598025 14.3094 0.366126C14.0792 0.134095 13.7668 0.00251141 13.44 0H10.5599C10.2315 0 9.91656 0.130413 9.68436 0.362775C9.452 0.594974 9.32159 0.909886 9.32159 1.23834V3.48246C9.31657 3.70628 9.22416 3.91955 9.06411 4.07641C8.90424 4.23327 8.68928 4.32133 8.46528 4.322C8.24111 4.32267 8.02565 4.23579 7.86476 4.07993L6.27606 2.49122C6.04101 2.26589 5.72796 2.14017 5.40234 2.14017C5.07689 2.14017 4.76385 2.26589 4.52878 2.49122L2.50311 4.5169V4.51673C2.27225 4.74893 2.14251 5.06298 2.14251 5.39045C2.14251 5.71774 2.27225 6.03198 2.50311 6.264L4.07994 7.86479C4.24116 8.02618 4.33156 8.24481 4.33123 8.47285C4.33106 8.70086 4.24016 8.9195 4.07877 9.08056C3.91723 9.24144 3.69842 9.33167 3.47042 9.33117H1.23835C0.911566 9.33117 0.598025 9.46041 0.366126 9.6906C0.134095 9.92079 0.00251141 10.2332 0 10.56V13.4401C0 13.7685 0.130413 14.0834 0.362775 14.3156C0.594973 14.548 0.909886 14.6784 1.23834 14.6784H3.48246C3.65338 14.6752 3.82129 14.7243 3.96374 14.819C4.10604 14.9138 4.21619 15.0497 4.27914 15.2088C4.3451 15.365 4.36134 15.5377 4.32568 15.7035C4.29002 15.8692 4.20431 16.0199 4.07992 16.1352L2.49121 17.7239C2.26019 17.9561 2.13061 18.2702 2.13061 18.5976C2.13061 18.9249 2.26019 19.2391 2.49121 19.4712L4.51689 21.4968H4.51672C4.75176 21.722 5.06482 21.8479 5.39044 21.8479C5.71589 21.8479 6.02892 21.722 6.264 21.4968L7.86478 19.92C8.02617 19.7588 8.24481 19.6684 8.47284 19.6687C8.70085 19.6689 8.91949 19.7598 9.08055 19.9212C9.24143 20.0827 9.33167 20.3015 9.33116 20.5295V22.7735C9.33434 23.0983 9.46492 23.4086 9.69478 23.6382C9.92463 23.8675 10.2353 23.9974 10.56 23.9999H13.4401C13.7685 23.9999 14.0835 23.8695 14.3156 23.6372C14.548 23.405 14.6784 23.09 14.6784 22.7616V20.5175C14.6752 20.3466 14.7243 20.1786 14.819 20.0362C14.9138 19.8939 15.0497 19.7837 15.2088 19.7208C15.3653 19.6507 15.5397 19.6311 15.7078 19.6645C15.8761 19.6982 16.0296 19.7832 16.1473 19.908L17.736 21.4967V21.4968C17.9711 21.722 18.2841 21.8479 18.6096 21.8479C18.9352 21.8479 19.2482 21.722 19.4833 21.4968L21.509 19.4712H21.5088C21.7398 19.2391 21.8694 18.9249 21.8694 18.5976C21.8694 18.2702 21.7398 17.9561 21.5088 17.7239L19.9201 16.1352C19.7589 15.9738 19.6685 15.7552 19.6688 15.5271C19.669 15.2991 19.7599 15.0805 19.9213 14.9194C20.0828 14.7585 20.3016 14.6683 20.5296 14.6688H22.7735C23.0983 14.6656 23.4087 14.535 23.6382 14.3052C23.8676 14.0753 23.9975 13.7646 24 13.44V10.5599C23.9982 10.2329 23.8667 9.92003 23.6345 9.68984C23.4025 9.45949 23.0886 9.33058 22.7617 9.33108L22.7617 9.33113ZM23.1097 13.428H23.1095C23.1102 13.5204 23.0737 13.6093 23.0084 13.6748C22.943 13.7402 22.8541 13.7765 22.7617 13.776H20.5176C20.0532 13.7762 19.6078 13.9609 19.2794 14.2893C18.9511 14.618 18.7666 15.0634 18.7666 15.5278C18.7664 15.9924 18.9509 16.4378 19.2792 16.7663L20.88 18.3527C21.0158 18.4886 21.0158 18.7089 20.88 18.8447L18.8543 20.8655H18.8545C18.7185 21.0012 18.4982 21.0012 18.3625 20.8655L16.7738 19.2768H16.7736C16.4452 18.9485 15.9997 18.764 15.5351 18.764C15.0707 18.764 14.6253 18.9485 14.2967 19.2769C13.9682 19.6052 13.7835 20.0507 13.7834 20.5151V22.7591C13.7839 22.8516 13.7475 22.9405 13.6821 23.0058C13.6166 23.0713 13.5277 23.1078 13.4353 23.1071H10.5601C10.4676 23.1078 10.3787 23.0713 10.3133 23.0058C10.248 22.9405 10.2115 22.8516 10.2122 22.7591V20.5128C10.2164 20.1652 10.1152 19.8247 9.92206 19.5359C9.72887 19.2471 9.45247 19.0237 9.12972 18.8951C8.8103 18.7605 8.45772 18.7247 8.11757 18.7923C7.77756 18.8598 7.4655 19.0277 7.22177 19.2743L5.63307 20.863V20.8631C5.49713 20.9989 5.27682 20.9989 5.14107 20.8631L3.13468 18.84C2.99891 18.7041 2.99891 18.4837 3.13468 18.348L4.72339 16.7593V16.7591C5.05268 16.4315 5.23784 15.9862 5.23819 15.5216C5.23835 15.0571 5.05353 14.6116 4.72459 14.2834C4.39563 13.9555 3.94965 13.772 3.48508 13.7735H1.24114C1.14856 13.7742 1.05967 13.7377 0.994377 13.6724C0.928922 13.607 0.892425 13.5181 0.893094 13.4257V10.5599C0.892424 10.4675 0.92892 10.3786 0.994377 10.3132C1.05967 10.2479 1.14856 10.2114 1.24114 10.2121H3.48508C3.94948 10.2117 4.39493 10.0271 4.72326 9.69864C5.05172 9.37018 5.23621 8.92469 5.23621 8.46017C5.23621 7.99577 5.05173 7.55031 4.72343 7.22169L3.13473 5.63298C2.99896 5.49705 2.99896 5.27674 3.13473 5.14099L5.16023 3.1202C5.29617 2.98443 5.51648 2.98443 5.65223 3.1202L7.24093 4.7089H7.2411C7.56956 5.0372 8.01505 5.22169 8.47958 5.22169C8.94397 5.22169 9.38943 5.0372 9.71805 4.70873C10.0465 4.38044 10.2312 3.93495 10.2314 3.47055V1.22893C10.2308 1.13652 10.2672 1.04762 10.3326 0.982164C10.3981 0.916709 10.487 0.880212 10.5794 0.88088H13.4403C13.5327 0.880211 13.6216 0.916706 13.687 0.982164C13.7523 1.04762 13.7888 1.13652 13.7881 1.22893V3.47287C13.7885 3.93744 13.9731 4.38272 14.3016 4.71122C14.63 5.03951 15.0755 5.224 15.54 5.224C16.0044 5.224 16.4499 5.03968 16.7785 4.71139L18.3672 3.12016C18.5032 2.98439 18.7235 2.98439 18.8592 3.12016L20.88 5.14566C21.0158 5.2816 21.0158 5.50191 20.88 5.63766L19.2913 7.22636V7.22653C18.963 7.55499 18.7785 8.00048 18.7785 8.465C18.7785 8.9294 18.963 9.37486 19.2915 9.70348C19.6198 10.0319 20.0653 10.2166 20.5297 10.2168H22.7761C22.8677 10.2163 22.9559 10.2519 23.0212 10.3164C23.0863 10.3807 23.1235 10.4684 23.124 10.56V13.428H23.1096L23.1097 13.428Z"
  />
    <path
    d="M11.9998 7.99915C10.9396 7.99982 9.92308 8.42135 9.17377 9.17137C8.42446 9.92138 8.00356 10.9382 8.00391 11.9983C8.00407 13.0584 8.42528 14.0751 9.17493 14.8248C9.92458 15.5744 10.9413 15.9956 12.0015 15.9958C13.0615 15.9961 14.0784 15.5753 14.8283 14.8259C15.5783 14.0766 15.9999 13.0601 16.0006 11.9999C16.0006 10.9389 15.579 9.92119 14.8289 9.17085C14.0785 8.42069 13.0608 7.99915 11.9998 7.99915ZM11.9998 15.1198C11.1723 15.1198 10.3788 14.791 9.79365 14.2059C9.20857 13.6209 8.87977 12.8273 8.87977 11.9998C8.87977 11.1723 9.20857 10.3788 9.79365 9.79365C10.3787 9.20857 11.1723 8.87977 11.9998 8.87977C12.8273 8.87977 13.6208 9.20856 14.2059 9.79365C14.791 10.3787 15.1198 11.1723 15.1198 11.9998C15.1198 12.8273 14.791 13.6208 14.2059 14.2059C13.6209 14.791 12.8273 15.1198 11.9998 15.1198Z"
  />
  </svg>
