<svg viewBox="0 0 425 426" fill="none" xmlns="http://www.w3.org/2000/svg"><path d="M307.514 213.136c0 52.55-42.5 95.15-94.927 95.15-52.426 0-94.927-42.6-94.927-95.15 0-52.55 42.501-95.15 94.927-95.15 52.427 0 94.927 42.6 94.927 95.15ZM212.5 0l44.393 77.072h-88.786L212.5 0ZM362.76 62.386l-22.979 85.963L277 85.419l85.76-23.033ZM425 213l-76.891 44.497v-88.994L425 213ZM362.76 363.614 277 340.58l62.781-62.928 22.979 85.962ZM212.5 426l-44.393-77.071h88.786L212.5 426ZM62.24 363.614l22.98-85.963L148 340.58l-85.76 23.034ZM0 213l76.89-44.497v88.994L0 213ZM62.24 62.386 148 85.42l-62.781 62.928-22.98-85.962Z" fill="#fff"/></svg>