<svg width="24" height="24" xmlns="http://www.w3.org/2000/svg"><path opacity=".4" d="M8.126 14a4.002 4.002 0 0 0 7.748 0" stroke-width="2" stroke-linecap="round" stroke-linejoin="round"/><path d="M3 10.565c0-.575 0-.862.074-1.126a2 2 0 0 1 .318-.65c.163-.221.39-.397.843-.75l6.783-5.275c.351-.273.527-.41.72-.463a1 1 0 0 1 .523 0c.194.053.37.19.721.463l6.783 5.275c.453.353.68.529.843.75.145.195.252.416.318.65.074.264.074.551.074 1.126V17.8c0 1.12 0 1.68-.218 2.108a2 2 0 0 1-.874.874C19.48 21 18.92 21 17.8 21H6.2c-1.12 0-1.68 0-2.108-.218a2 2 0 0 1-.874-.874C3 19.48 3 18.92 3 17.8v-7.235Z"/></svg>