<svg
  width="24"
  height="19"
  viewBox="0 0 24 19"
  fill="none"
  xmlns="http://www.w3.org/2000/svg"
>
    <path
    d="M10.4314 7.00659H4.28754C4.07946 7.00659 3.87995 7.0892 3.73296 7.23637C3.58579 7.38336 3.50317 7.58287 3.50317 7.79095V13.9348C3.50317 14.1427 3.58578 14.3422 3.73296 14.4894C3.87994 14.6364 4.07945 14.719 4.28754 14.719H10.4314C10.6395 14.719 10.839 14.6364 10.9861 14.4894C11.1331 14.3422 11.2157 14.1427 11.2157 13.9348V7.79095C11.2157 7.58288 11.1331 7.38336 10.9861 7.23637C10.839 7.08921 10.6395 7.00659 10.4314 7.00659ZM9.64719 13.1504H5.072V8.57523H9.64719V13.1504Z"
  />
    <path
    d="M12.7844 13.0197C12.7844 13.2278 12.867 13.4271 13.014 13.5743C13.1612 13.7215 13.3607 13.8041 13.5688 13.8041H19.7126C19.9929 13.8041 20.2519 13.6545 20.392 13.4118C20.532 13.1693 20.532 12.8702 20.392 12.6276C20.2519 12.3849 19.9929 12.2354 19.7126 12.2354H13.5688C13.3607 12.2354 13.1612 12.318 13.014 12.4651C12.867 12.6121 12.7844 12.8116 12.7844 13.0197V13.0197Z"
  />
    <path
    d="M16.314 7.84314H13.569C13.2887 7.84314 13.0298 7.9925 12.8897 8.23523C12.7497 8.47795 12.7497 8.77687 12.8897 9.01959C13.0298 9.26231 13.2887 9.41168 13.569 9.41168H16.314C16.5943 9.41168 16.8533 9.26232 16.9933 9.01959C17.1334 8.77686 17.1334 8.47794 16.9933 8.23523C16.8533 7.9925 16.5943 7.84314 16.314 7.84314Z"
  />
    <path
    d="M6.92812 8.90459e-06H4.00004C3.79196 8.90459e-06 3.59245 0.0826192 3.44546 0.229609C3.29829 0.376776 3.21567 0.576288 3.21567 0.784188V1.75147L2.87575 1.75165C2.11309 1.75165 1.38162 2.05456 0.84235 2.594C0.302897 3.13327 0 3.86474 0 4.6274V15.4772C0 16.2398 0.302911 16.9713 0.84235 17.5107C1.38162 18.05 2.11309 18.3529 2.87575 18.3529H21.1243C21.8869 18.3529 22.6184 18.05 23.1576 17.5107C23.6971 16.9713 24 16.2398 24 15.4772V4.6274C24 3.86474 23.6971 3.13327 23.1576 2.594C22.6184 2.05455 21.8869 1.75165 21.1243 1.75165H20.7843V0.784184C20.7843 0.576288 20.7017 0.376777 20.5545 0.229605C20.4076 0.0826196 20.208 4.63039e-06 20 4.63039e-06H17.0719C16.8638 4.63039e-06 16.6643 0.0826149 16.5173 0.229605C16.3701 0.376772 16.2875 0.576283 16.2875 0.784184V1.75147L7.71229 1.75165V0.78418C7.71229 0.576284 7.62968 0.376772 7.48251 0.2296C7.33552 0.082615 7.13601 0 6.92793 0L6.92812 8.90459e-06ZM4.8105 1.56874H6.1438V3.08509V3.08491C6.10258 3.29226 5.96727 3.46842 5.77779 3.56199C5.58831 3.65536 5.36601 3.65536 5.17652 3.56199C4.98705 3.46844 4.85173 3.29227 4.81052 3.08491L4.8105 1.56874ZM17.8825 1.56874H19.2158V3.08509V3.08491C19.1746 3.29226 19.0393 3.46842 18.8498 3.56199C18.6603 3.65536 18.438 3.65536 18.2485 3.56199C18.059 3.46844 17.9237 3.29227 17.8825 3.08491L17.8825 1.56874ZM18.5361 5.33334C19.0892 5.32987 19.6217 5.1227 20.0319 4.7514C20.4418 4.37992 20.7004 3.87039 20.7584 3.3202H21.0983H21.0981C21.4448 3.3202 21.7775 3.45807 22.0226 3.70317C22.2676 3.94827 22.4053 4.28072 22.4053 4.62741V15.4772C22.4053 15.8238 22.2676 16.1563 22.0226 16.4014C21.7775 16.6467 21.4448 16.7844 21.0981 16.7844H2.87576C2.52909 16.7844 2.19663 16.6467 1.95153 16.4014C1.70643 16.1563 1.56856 15.8239 1.56856 15.4772V4.62741C1.56856 4.28073 1.70643 3.94827 1.95153 3.70317C2.19663 3.45807 2.52908 3.3202 2.87576 3.3202H3.21569C3.32548 4.03398 3.77135 4.65149 4.41421 4.9803C5.05707 5.30892 5.81879 5.30892 6.46161 4.9803C7.10447 4.65149 7.55032 4.03398 7.66012 3.3202H16.2876C16.346 3.87497 16.6084 4.38814 17.0239 4.76018C17.4395 5.13202 17.9784 5.33646 18.5361 5.33334H18.5361Z"
  />
  </svg>
