<svg width="24" height="22" fill="none" xmlns="http://www.w3.org/2000/svg"><path d="M13.27 7.123a.97.97 0 0 0 .975-.971V2.913c0-.773-.308-1.514-.857-2.06A2.932 2.932 0 0 0 11.318 0H2.927C2.15 0 1.406.307.857.853A2.907 2.907 0 0 0 0 2.913V18.13c0 .773.308 1.514.857 2.06a2.932 2.932 0 0 0 2.07.854h8.388c.776 0 1.52-.307 2.07-.854a2.907 2.907 0 0 0 .857-2.06v-2.914a.97.97 0 0 0-.488-.84.978.978 0 0 0-.976 0 .97.97 0 0 0-.487.84v2.914a.97.97 0 0 1-.976.971H2.927a.97.97 0 0 1-.975-.971V2.914a.97.97 0 0 1 .975-.971h8.388a.97.97 0 0 1 .976.971V6.15a.97.97 0 0 0 .978.972Z"/><path d="M6.279 10.684a.97.97 0 0 0 .285.687c.183.182.431.284.69.284h13.4l-3.616 3.562a.968.968 0 0 0 .439 1.6c.326.094.68.011.93-.218l5.303-5.222a.97.97 0 0 0 0-1.383L18.407 4.78a.979.979 0 0 0-1.602.459.968.968 0 0 0 .233.923l3.616 3.561h-13.4a.971.971 0 0 0-.975.962Z"/></svg>