<svg viewBox="0 0 744 198" fill="none" xmlns="http://www.w3.org/2000/svg"><path d="M279.568 99.063c0 24.425-20.045 44.225-44.771 44.225s-44.771-19.8-44.771-44.225c0-24.424 20.045-44.224 44.771-44.224s44.771 19.8 44.771 44.224ZM234.756 0l20.937 35.822h-41.874L234.756 0ZM305.624 28.997 294.786 68.95l-29.61-29.249 40.448-10.705ZM305.624 169.004l-40.448-10.706 29.61-29.249 10.838 39.955ZM234.756 198l-20.937-35.822h41.874L234.756 198ZM163.888 169.003l10.838-39.954 29.61 29.249-40.448 10.705ZM163.888 28.997l40.448 10.705-29.61 29.249-10.838-39.954ZM14.896 76.64v56.214H3.056v8.575h45.832v-8.575H37.43v-58.12c4.01-3.24 9.549-6.67 15.469-6.67 11.458 0 17.76 6.86 17.76 19.056v45.734h-11.65v8.575h45.643v-8.575H93.193v-58.12c4.01-3.24 9.549-6.67 15.469-6.67 11.649 0 17.76 6.86 17.76 19.056v45.734h-11.649v8.575h46.024v-8.575h-11.84V81.022c0-16.388-8.212-28.012-23.681-28.012-13.177 0-23.107 8.385-30.173 15.245H92.24C88.61 59.68 81.162 53.01 69.513 53.01c-13.177 0-21.77 7.813-28.645 14.673H37.43V51.105L0 65.015 14.896 76.64ZM326.714 76.64v56.214h-11.84v8.575h45.833v-8.575h-11.459v-58.12c4.011-3.24 9.549-6.67 15.469-6.67 11.458 0 17.76 6.86 17.76 19.056v45.734h-11.649v8.575h45.642v-8.575h-11.458v-58.12c4.01-3.24 9.548-6.67 15.468-6.67 11.649 0 17.76 6.86 17.76 19.056v45.734h-11.649v8.575h46.024v-8.575h-11.84V81.022c0-16.388-8.212-28.012-23.68-28.012-13.177 0-23.108 8.385-30.174 15.245h-2.864c-3.629-8.575-11.076-15.245-22.726-15.245-13.177 0-21.77 7.813-28.645 14.673h-3.438V51.105l-37.43 13.91 14.896 11.624ZM558.578 111.892c-6.874 8.956-16.614 12.768-27.499 12.768-17.569 0-31.701-13.53-31.701-33.729v-1.334h59.773c0-19.627-13.177-36.587-35.138-36.587-23.489 0-42.968 22.105-42.968 46.306 0 25.344 18.142 44.018 41.631 44.018 17.76 0 32.847-11.243 35.902-31.442Zm-38.003-49.735c10.122 0 16.806 8.004 16.806 19.818h-37.239c2.673-12.767 10.885-19.818 20.433-19.818ZM580.319 76.64v56.214h-11.84v8.575h46.024v-8.575h-11.649v-58.12c4.01-3.24 9.548-6.67 15.659-6.67 11.649 0 17.951 6.86 17.951 19.056v45.734h-11.84v8.575h46.215v-8.575h-11.84V81.022c0-16.388-8.403-28.012-24.253-28.012-12.604 0-21.58 7.623-28.455 14.673h-3.437V51.105l-37.43 13.91 14.895 11.624ZM674.105 62.538l14.896 8.575-.955 47.068c0 16.388 11.649 25.153 25.399 25.153 14.704 0 26.163-8.384 30.555-24.01-5.538 5.717-11.458 8.194-18.333 8.194-8.403 0-15.66-4.955-15.66-16.769V67.874h26.163l6.111-10.29h-32.274V34.717l-35.902 27.821Z" fill="#fff"/></svg>