<svg width="24" height="21" fill="none" xmlns="http://www.w3.org/2000/svg"><path d="m14.38 11.96-2.76-1.592a1.202 1.202 0 0 0-1.8 1.038v3.187a1.204 1.204 0 0 0 1.2 1.2 1.2 1.2 0 0 0 .6-.161l2.76-1.593h.001c.37-.214.6-.612.6-1.04 0-.427-.23-.825-.6-1.039Zm-2.96 1.94v-1.8l1.56.9-1.56.9Z"/><path d="M21.6 5.2H2.4A2.403 2.403 0 0 0 0 7.6v10.8c0 1.323 1.077 2.4 2.4 2.4h19.2c1.323 0 2.4-1.077 2.4-2.4V7.6c0-1.324-1.077-2.4-2.4-2.4Zm.8 13.2a.8.8 0 0 1-.8.8H2.4a.8.8 0 0 1-.8-.8V7.6a.8.8 0 0 1 .8-.8h19.2a.8.8 0 0 1 .8.8v10.8ZM3.6 4.2h16.8a.8.8 0 0 0 0-1.6H3.6a.8.8 0 0 0 0 1.6Zm2.8-2.6h11.2a.8.8 0 0 0 0-1.6H6.4a.8.8 0 0 0 0 1.6Z"/></svg>