<svg width="95" height="95" fill="none" xmlns="http://www.w3.org/2000/svg"><path opacity=".15" fill-rule="evenodd" clip-rule="evenodd" d="M48.549 2.188c25.627 0 46.402 20.774 46.402 46.4 0 25.627-20.775 46.401-46.402 46.401-25.627 0-46.402-20.774-46.402-46.4 0-25.627 20.775-46.401 46.402-46.401Z" fill="#000"/><path fill-rule="evenodd" clip-rule="evenodd" d="M47.553 5.44c23.175 0 41.963 18.787 41.963 41.961 0 23.175-18.788 41.961-41.963 41.961S5.591 70.576 5.591 47.402C5.59 24.226 24.378 5.44 47.553 5.44Z" fill="#812265"/><path opacity=".1" fill-rule="evenodd" clip-rule="evenodd" d="M49.756 7.689c-22.881 0-41.43 18.548-41.43 41.428 0 13.47 6.434 25.435 16.392 33.002C13.22 74.634 5.613 61.677 5.613 46.937c0-23.175 18.787-41.962 41.963-41.962 14.741 0 27.699 7.608 35.183 19.105-7.566-9.958-19.531-16.39-33.003-16.39Z" fill="#fff"/><path fill-rule="evenodd" clip-rule="evenodd" d="M47.375 1C21.748 1 .973 21.774.973 47.401c0 25.627 20.775 46.4 46.402 46.4 25.627 0 46.401-20.773 46.401-46.4S73.002 1 47.375 1Zm0 87.523c-22.712 0-41.123-18.41-41.123-41.122 0-22.711 18.411-41.122 41.123-41.122 22.711 0 41.123 18.41 41.123 41.122 0 22.711-18.412 41.122-41.123 41.122Z" fill="#fff"/><path d="M47.375 1C21.748 1 .973 21.774.973 47.401c0 25.627 20.775 46.4 46.402 46.4 25.627 0 46.401-20.773 46.401-46.4S73.002 1 47.375 1Zm0 87.523c-22.712 0-41.123-18.41-41.123-41.122 0-22.711 18.411-41.122 41.123-41.122 22.711 0 41.123 18.41 41.123 41.122 0 22.711-18.412 41.122-41.123 41.122Z" stroke="#EAEAEA" stroke-width=".198" stroke-miterlimit="10"/><path fill-rule="evenodd" clip-rule="evenodd" d="m47.87 47.479 29.49-14.94c8.096 16.46 1.761 36.264-14.28 44.39-6.971 3.532-14.636 4.282-21.771 2.667-.619-.14 6.56-32.117 6.56-32.117Z" fill="url(#a)"/><path fill-rule="evenodd" clip-rule="evenodd" d="m48.164 46.998-24.302.996c-.393-13.492 9.895-24.813 23.115-25.354 5.745-.235 11.104 1.603 15.387 4.864.371.282-14.2 19.494-14.2 19.494Z" fill="url(#b)"/><path fill-rule="evenodd" clip-rule="evenodd" d="m47.553 48.011-16.71 30.642C13.951 69.18 7.611 48.163 16.701 31.497c3.95-7.244 10.168-12.482 17.34-15.347.622-.248 13.512 31.861 13.512 31.861Z" fill="url(#c)"/><path fill-rule="evenodd" clip-rule="evenodd" d="M63.082 28.124a2.126 2.126 0 0 0-2.974.452L48.761 43.989a2.127 2.127 0 0 0 3.425 2.523l11.347-15.415a2.125 2.125 0 0 0-.45-2.973ZM47.643 49.163a2.126 2.126 0 0 0-2.494 1.681l-5.283 27.139a2.127 2.127 0 0 0 4.175.813l5.283-27.139a2.127 2.127 0 0 0-1.68-2.494Z" fill="#000" opacity=".15"/><path fill-rule="evenodd" clip-rule="evenodd" d="M62.487 27.53a2.126 2.126 0 0 0-2.973.451L48.166 43.394a2.127 2.127 0 0 0 3.425 2.523l11.347-15.415a2.125 2.125 0 0 0-.45-2.973ZM47.048 48.567a2.127 2.127 0 0 0-2.494 1.682l-5.283 27.138a2.127 2.127 0 0 0 4.175.813l5.283-27.138a2.127 2.127 0 0 0-1.68-2.495Z" fill="#fff"/><path d="m47.771 47.797-13.34-32.084" stroke="#000" stroke-width=".595" stroke-miterlimit="10" stroke-linecap="round" stroke-linejoin="round" opacity=".15"/><path d="m47.375 47.4-13.34-32.083" stroke="#fff" stroke-width=".595" stroke-miterlimit="10" stroke-linecap="round" stroke-linejoin="round"/><path fill-rule="evenodd" clip-rule="evenodd" d="M48.167 42.886a5.307 5.307 0 1 1 0 10.615 5.307 5.307 0 0 1 0-10.614Z" fill="#000" opacity=".15"/><path fill-rule="evenodd" clip-rule="evenodd" d="M47.374 42.093a5.307 5.307 0 1 1 0 10.615 5.307 5.307 0 0 1 0-10.614Z" fill="#F25AC7"/><path opacity=".8" fill-rule="evenodd" clip-rule="evenodd" d="M35.441 17.182c-.33.275-.458 3.307-.458 3.307s-.22-3.074-.543-3.302c-.322-.228-2.335-.47-2.335-.47s2.162-.237 2.397-.514c.234-.276.481-3.892.481-3.892s.24 3.532.479 3.915 3.337.49 3.337.49-3.027.19-3.358.466ZM44.16 79.91c-.335.277-.463 3.343-.463 3.343s-.223-3.108-.55-3.339c-.325-.23-2.36-.475-2.36-.475s2.186-.24 2.423-.519c.237-.279.487-3.936.487-3.936s.242 3.571.484 3.959c.242.387 3.374.496 3.374.496s-3.06.191-3.395.47Z" fill="#fff"/><path opacity=".5" fill-rule="evenodd" clip-rule="evenodd" d="M74.151 69.651c-.285.237-.394 2.845-.394 2.845s-.19-2.644-.467-2.84c-.277-.197-2.008-.405-2.008-.405s1.86-.204 2.061-.44c.202-.238.414-3.349.414-3.349s.206 3.037.412 3.367c.205.33 2.87.422 2.87.422s-2.603.163-2.888.4Z" fill="#fff"/><defs><linearGradient id="a" x1="77.161" y1="32.406" x2="44.349" y2="81.624" gradientUnits="userSpaceOnUse"><stop stop-color="#FF9FF2" stop-opacity="0"/><stop offset=".189" stop-color="#FFA4F2" stop-opacity=".113"/><stop offset=".414" stop-color="#FFB3F0" stop-opacity=".248"/><stop offset=".659" stop-color="#FFCBEF" stop-opacity=".395"/><stop offset=".915" stop-color="#FFECEC" stop-opacity=".549"/><stop offset="1" stop-color="#FFF9EB" stop-opacity=".6"/></linearGradient><linearGradient id="b" x1="23.954" y1="48.143" x2="60.95" y2="25.22" gradientUnits="userSpaceOnUse"><stop stop-color="#FF9FF2" stop-opacity="0"/><stop offset=".189" stop-color="#FFA4F2" stop-opacity=".113"/><stop offset=".414" stop-color="#FFB3F0" stop-opacity=".248"/><stop offset=".659" stop-color="#FFCBEF" stop-opacity=".395"/><stop offset=".915" stop-color="#FFECEC" stop-opacity=".549"/><stop offset="1" stop-color="#FFF9EB" stop-opacity=".6"/></linearGradient><linearGradient id="c" x1="31.096" y1="78.649" x2="30.184" y2="16.206" gradientUnits="userSpaceOnUse"><stop stop-color="#FF9FF2" stop-opacity="0"/><stop offset=".189" stop-color="#FFA4F2" stop-opacity=".113"/><stop offset=".414" stop-color="#FFB3F0" stop-opacity=".248"/><stop offset=".659" stop-color="#FFCBEF" stop-opacity=".395"/><stop offset=".915" stop-color="#FFECEC" stop-opacity=".549"/><stop offset="1" stop-color="#FFF9EB" stop-opacity=".6"/></linearGradient></defs></svg>