<svg width="17" height="18" fill="none" xmlns="http://www.w3.org/2000/svg"><path d="M3.453 17.332H14c.835 0 1.475-.222 1.919-.666.444-.44.666-1.074.666-1.904V7.21c0-.83-.222-1.464-.666-1.904-.444-.444-1.084-.666-1.919-.666H3.453c-.835 0-1.474.222-1.919.666C1.09 5.746.868 6.38.868 7.21v7.552c0 .83.222 1.465.666 1.904.445.444 1.084.666 1.92.666Zm.205-1.89c-.293 0-.517-.075-.674-.226-.151-.147-.227-.376-.227-.689V7.445c0-.313.076-.542.227-.689.157-.151.381-.227.674-.227h10.13c.293 0 .517.076.673.227.157.147.235.376.235.689v7.082c0 .313-.078.542-.235.689-.156.151-.38.227-.673.227H3.658ZM2.596 3.425h12.268c-.049-.371-.18-.662-.395-.872-.215-.21-.535-.315-.96-.315H3.951c-.43 0-.752.105-.967.315-.21.21-.339.5-.388.872Zm1.465-2.256h9.338c-.029-.352-.151-.62-.366-.806-.215-.19-.51-.285-.886-.285h-6.84c-.377 0-.672.095-.887.285-.215.186-.335.454-.359.806Zm.535 14.949h8.445c-.113-.41-.3-.784-.564-1.12a3.967 3.967 0 0 0-.945-.88 4.377 4.377 0 0 0-1.253-.571 5.107 5.107 0 0 0-1.465-.205 5.08 5.08 0 0 0-1.457.205 4.503 4.503 0 0 0-1.253.571 4.097 4.097 0 0 0-.952.88c-.258.336-.444.71-.556 1.12Zm4.218-3.728c.425.005.806-.103 1.143-.323.342-.22.61-.512.806-.879.2-.37.3-.788.3-1.252 0-.43-.1-.828-.3-1.194-.2-.366-.472-.659-.813-.879a2.033 2.033 0 0 0-1.136-.33c-.415 0-.793.11-1.135.33a2.41 2.41 0 0 0-.805.88c-.2.365-.3.763-.3 1.193.004.464.104.881.3 1.252.195.367.461.66.798.88.342.214.723.322 1.142.322Z" fill="#fff" fill-opacity=".8"/></svg>