<svg width="24" height="25" fill="none" xmlns="http://www.w3.org/2000/svg"><path opacity=".12" d="M19 17.7V6.5H5v11.2c0 1.68 0 2.52.327 3.162a3 3 0 0 0 1.311 1.311c.642.327 1.482.327 3.162.327h4.4c1.68 0 2.52 0 3.162-.327a3 3 0 0 0 1.311-1.311C19 20.22 19 19.38 19 17.7Z" fill="#fff"/><path d="M19 6.5v11.2c0 1.68 0 2.52-.327 3.162a3 3 0 0 1-1.311 1.311c-.642.327-1.482.327-3.162.327H9.8c-1.68 0-2.52 0-3.162-.327a3 3 0 0 1-1.311-1.311C5 20.22 5 19.38 5 17.7V6.5m11 0v-.8c0-1.12 0-1.68-.218-2.108a2 2 0 0 0-.874-.874C14.48 2.5 13.92 2.5 12.8 2.5h-1.6c-1.12 0-1.68 0-2.108.218a2 2 0 0 0-.874.874C8 4.02 8 4.58 8 5.7v.8h8Zm-13 0h18H3Z" stroke="#fff" stroke-width="2" stroke-linecap="round" stroke-linejoin="round"/></svg>