<svg width="34" height="34" fill="none" xmlns="http://www.w3.org/2000/svg"><path d="M34 14.715C34 2.597 31.403 0 19.285 0h-4.57C2.597 0 0 2.597 0 14.715v4.57C0 31.403 2.597 34 14.715 34h4.57C31.403 34 34 31.403 34 19.285v-4.57Z" fill="#0016DE"/><path fill-rule="evenodd" clip-rule="evenodd" d="M10.149 8.5c-.905 0-1.638.73-1.638 1.632v1.9c0 .902.733 1.632 1.638 1.632h2.898v10.633c0 .901.733 1.632 1.638 1.632h1.908c.905 0 1.638-.73 1.638-1.632V10.132c0-.901-.733-1.632-1.638-1.632H10.15Z" fill="#fff"/><path d="M22.12 13.664a2.587 2.587 0 0 0 2.592-2.582A2.587 2.587 0 0 0 22.119 8.5a2.587 2.587 0 0 0-2.592 2.582 2.587 2.587 0 0 0 2.592 2.582Z" fill="#fff"/></svg>