<svg width="14" height="14" viewBox="0 0 14 14" fill="none" xmlns="http://www.w3.org/2000/svg">
<path fill-rule="evenodd" clip-rule="evenodd" d="M13.3915 4.34951V4.35229C13.7394 5.19006 13.9163 6.0803 13.9163 6.99918C13.9163 10.8349 10.7939 13.9574 6.95817 13.9574C3.12245 13.9574 0 10.8349 0 6.99918C0 3.16344 3.12245 0.0410156 6.95817 0.0410156C7.68298 0.0410156 8.39914 0.153941 9.08098 0.37461C9.0838 0.37461 9.0838 0.37739 9.0838 0.37739H9.09251C9.10226 0.380718 9.11015 0.386656 9.11832 0.392764L9.12601 0.398427L9.1293 0.400709L9.13301 0.403077L9.135 0.404244L9.13905 0.406423C9.15374 0.415174 9.17124 0.417954 9.18558 0.429485C9.18558 0.429485 9.18558 0.430429 9.18613 0.431218C9.18648 0.431785 9.18716 0.432265 9.18833 0.432265C9.20398 0.448206 9.21524 0.464164 9.228 0.482233L9.23171 0.487535C9.23342 0.489783 9.23521 0.491911 9.23706 0.494004L9.24111 0.4985C9.24475 0.502498 9.24839 0.506496 9.25154 0.51094C9.25402 0.514338 9.25621 0.51801 9.25793 0.522128C9.2626 0.530279 9.26562 0.539168 9.26788 0.548451L9.26905 0.553633L9.27035 0.559965L9.27227 0.571427L9.27495 0.578754L9.27783 0.586321L9.27804 0.586888C9.28284 0.599414 9.28778 0.612369 9.28978 0.626697C9.28978 0.631433 9.28916 0.636255 9.28854 0.641248V0.643548C9.28778 0.650051 9.28696 0.656932 9.28696 0.664465C9.28696 0.690701 9.28422 0.713763 9.27824 0.740017V0.742797C9.27488 0.752561 9.26898 0.761449 9.26328 0.769892C9.25882 0.776584 9.25456 0.782984 9.25196 0.789316C9.24324 0.806818 9.23727 0.824304 9.22574 0.838615C8.85434 1.29111 8.65159 1.8565 8.65159 2.43621C8.65159 3.82466 9.78197 4.95548 11.1708 4.95548C11.8261 4.95548 12.4464 4.70339 12.9191 4.24534C12.923 4.24209 12.9269 4.23933 12.9308 4.23684C12.9365 4.23327 12.9421 4.23027 12.9477 4.22729C12.9527 4.22468 12.9576 4.22207 12.9625 4.2191C12.98 4.20757 12.9915 4.19604 13.009 4.18729H13.0149C13.0352 4.17893 13.0587 4.17576 13.0818 4.17298C13.0961 4.17298 13.1108 4.16423 13.1251 4.16701C13.1426 4.16701 13.1569 4.17298 13.1744 4.17576C13.1947 4.17854 13.2149 4.18132 13.2324 4.18729C13.24 4.19094 13.2464 4.19597 13.2531 4.20146L13.2568 4.20452L13.2643 4.21035C13.2873 4.22188 13.3076 4.23341 13.3278 4.25092C13.3278 4.25258 13.3278 4.25325 13.3285 4.25352C13.3289 4.25369 13.3296 4.25369 13.3307 4.25369C13.3422 4.26801 13.3509 4.28549 13.3597 4.30299C13.3684 4.3173 13.3828 4.32606 13.3887 4.34354C13.3887 4.34529 13.3887 4.34608 13.3892 4.3469L13.39 4.348L13.3915 4.34951ZM2.0294 7.86875C2.0294 8.5097 2.54871 9.02858 3.18923 9.02858C3.82975 9.02858 4.34906 8.5097 4.34906 7.86875C4.34906 7.22781 3.82975 6.70893 3.18923 6.70893C2.54829 6.70893 2.0294 7.22821 2.0294 7.86875ZM4.92836 2.94C4.45003 2.94 4.05879 3.33164 4.05879 3.80995C4.05879 4.28829 4.45044 4.67993 4.92836 4.67954C5.4071 4.67954 5.79834 4.28829 5.79834 3.80995C5.79834 3.33123 5.40669 2.94 4.92836 2.94ZM6.66831 10.7681C6.66831 11.2469 7.05955 11.6381 7.53788 11.6381C8.01621 11.6381 8.40786 11.2465 8.40786 10.7681C8.40786 10.2898 8.01621 9.89856 7.53788 9.89856C7.05955 9.89856 6.66831 10.2898 6.66831 10.7681ZM6.95817 6.85405C6.95817 7.495 7.47748 8.01388 8.118 8.01388C8.75852 8.01388 9.27742 7.495 9.27783 6.85405C9.27783 6.21312 8.75852 5.69424 8.118 5.69424C7.47707 5.69424 6.95817 6.21351 6.95817 6.85405Z" fill="white"/>
</svg>
