<svg width="18" height="18" viewBox="0 0 18 18" fill="none" xmlns="http://www.w3.org/2000/svg">
<path d="M1.5 9.08586L8.73167 12.7017C8.83006 12.7509 8.87925 12.7755 8.93085 12.7852C8.97655 12.7937 9.02345 12.7937 9.06915 12.7852C9.12075 12.7755 9.16994 12.7509 9.26833 12.7017L16.5 9.08586M1.5 12.8359L8.73167 16.4517C8.83006 16.5009 8.87925 16.5255 8.93085 16.5352C8.97655 16.5437 9.02345 16.5437 9.06915 16.5352C9.12075 16.5255 9.16994 16.5009 9.26833 16.4517L16.5 12.8359M1.5 5.33586L8.73167 1.72003C8.83006 1.67083 8.87925 1.64624 8.93085 1.63656C8.97655 1.62798 9.02345 1.62798 9.06915 1.63656C9.12075 1.64624 9.16994 1.67083 9.26833 1.72003L16.5 5.33586L9.26833 8.9517C9.16994 9.00089 9.12075 9.02549 9.06915 9.03517C9.02345 9.04375 8.97655 9.04375 8.93085 9.03517C8.87925 9.02549 8.83006 9.00089 8.73167 8.9517L1.5 5.33586Z" stroke="#BF7AF0" stroke-width="1.5" stroke-linecap="round" stroke-linejoin="round"/>
</svg>
