<svg width="22" height="19" fill="none" xmlns="http://www.w3.org/2000/svg"><path d="M19 7V4.7c0-1.12 0-1.68-.218-2.108a2 2 0 0 0-.874-.874C17.48 1.5 16.92 1.5 15.8 1.5H4.2c-1.12 0-1.68 0-2.108.218a2 2 0 0 0-.874.874C1 3.02 1 3.58 1 4.7v9.6c0 1.12 0 1.68.218 2.108a2 2 0 0 0 .874.874c.428.218.988.218 2.108.218h11.6c1.12 0 1.68 0 2.108-.218a2 2 0 0 0 .874-.874C19 15.98 19 15.42 19 14.3V12m-5-2.5c0-.465 0-.697.038-.89a2 2 0 0 1 1.572-1.572C15.803 7 16.035 7 16.5 7h2c.465 0 .697 0 .89.038a2 2 0 0 1 1.572 1.572c.038.193.038.425.038.89s0 .697-.038.89a2 2 0 0 1-1.572 1.572c-.193.038-.425.038-.89.038h-2c-.465 0-.697 0-.89-.038a2 2 0 0 1-1.572-1.572C14 10.197 14 9.965 14 9.5Z" stroke="#fff" stroke-width="2" stroke-linecap="round" stroke-linejoin="round"/></svg>