<svg width="22" height="18" fill="none" xmlns="http://www.w3.org/2000/svg"><path d="M1 6h20V4.2c0-1.12 0-1.68-.218-2.108a2 2 0 0 0-.874-.874C19.48 1 18.92 1 17.8 1H4.2c-1.12 0-1.68 0-2.108.218a2 2 0 0 0-.874.874C1 2.52 1 3.08 1 4.2v7.6c0 1.12 0 1.68.218 2.108a2 2 0 0 0 .874.874C2.52 15 3.08 15 4.2 15H10m3.5 2 2.025-.405c.176-.035.265-.053.347-.085a.994.994 0 0 0 .207-.111c.073-.05.136-.114.264-.242L20.5 12a1.414 1.414 0 1 0-2-2l-4.157 4.157a2.098 2.098 0 0 0-.242.264.994.994 0 0 0-.11.207c-.033.082-.05.17-.086.347L13.5 17Z" stroke="#fff" stroke-width="2" stroke-linecap="round" stroke-linejoin="round"/></svg>